# Blender 4.0.2
# www.blender.org
mtllib barrel.mtl
o barrel
v -0.006352 -0.006383 -0.386999
v -0.152928 -0.006383 -0.357843
v -0.277190 -0.006383 -0.274814
v -0.360218 -0.006383 -0.150553
v -0.389374 -0.006383 -0.003977
v -0.360218 -0.006383 0.142599
v -0.277190 -0.006383 0.266861
v -0.152928 -0.006383 0.349889
v -0.006352 -0.006383 0.379045
v 0.140224 -0.006383 0.349889
v 0.264485 -0.006383 0.266860
v 0.347514 -0.006383 0.142599
v 0.376669 -0.006383 -0.003977
v 0.347514 -0.006383 -0.150553
v 0.264485 -0.006383 -0.274814
v 0.140223 -0.006383 -0.357843
v -0.006352 1.239015 -0.386999
v -0.152928 1.239015 -0.357843
v -0.277190 1.239015 -0.274814
v -0.360218 1.239015 -0.150553
v -0.389374 1.239015 -0.003977
v -0.360218 1.239015 0.142599
v -0.277190 1.239015 0.266861
v -0.152928 1.239015 0.349889
v -0.006352 1.239015 0.379045
v 0.140224 1.239015 0.349889
v 0.264485 1.239015 0.266860
v 0.347514 1.239015 0.142599
v 0.376669 1.239015 -0.003977
v 0.347514 1.239015 -0.150553
v 0.264485 1.239015 -0.274814
v 0.140223 1.239015 -0.357843
v -0.587378 0.616316 -0.003977
v 0.530446 0.616316 0.218372
v -0.543150 0.616316 0.218372
v 0.574673 0.616316 -0.003977
v -0.417199 0.616316 0.406870
v 0.530445 0.616316 -0.226326
v -0.228701 0.616316 0.532821
v -0.006352 0.616316 -0.585002
v 0.404494 0.616316 -0.414824
v -0.228701 0.616316 -0.540774
v -0.006352 0.616316 0.577049
v 0.215996 0.616316 -0.540775
v -0.417199 0.616316 -0.414824
v 0.215997 0.616316 0.532821
v -0.543150 0.616316 -0.226326
v 0.404495 0.616316 0.406870
v -0.512126 0.941872 0.205521
v 0.541093 0.941872 -0.003977
v -0.393455 0.941872 0.383126
v 0.499421 0.941872 -0.213476
v -0.215850 0.941872 0.501797
v 0.380750 0.941872 -0.391079
v -0.215851 0.941872 -0.509750
v -0.006352 0.941872 0.543469
v 0.203145 0.941872 -0.509751
v -0.393455 0.941872 -0.391079
v 0.203146 0.941872 0.501797
v -0.512126 0.941872 -0.213475
v 0.380750 0.941872 0.383125
v -0.553798 0.941872 -0.003977
v 0.499421 0.941872 0.205521
v -0.006352 0.941872 -0.551422
v -0.553798 0.290760 -0.003977
v 0.499421 0.290760 0.205521
v -0.006352 0.290760 -0.551422
v -0.512126 0.290760 0.205521
v 0.541093 0.290760 -0.003977
v -0.393455 0.290760 0.383126
v 0.499421 0.290760 -0.213476
v -0.215850 0.290760 0.501797
v 0.380750 0.290760 -0.391079
v -0.215851 0.290760 -0.509750
v -0.006352 0.290760 0.543469
v 0.203145 0.290760 -0.509751
v -0.393455 0.290760 -0.391079
v 0.203146 0.290760 0.501797
v -0.512126 0.290760 -0.213475
v 0.380750 0.290760 0.383125
v -0.006352 -0.006383 -0.426941
v -0.168214 -0.006383 -0.394745
v -0.305433 -0.006383 -0.303058
v -0.397120 -0.006383 -0.165838
v -0.429317 -0.006383 -0.003977
v -0.397120 -0.006383 0.157885
v -0.305433 -0.006383 0.295104
v -0.168214 -0.006383 0.386791
v -0.006352 -0.006383 0.418988
v 0.155509 -0.006383 0.386791
v 0.292729 -0.006383 0.295104
v 0.384416 -0.006383 0.157884
v 0.416612 -0.006383 -0.003977
v 0.384416 -0.006383 -0.165839
v 0.292728 -0.006383 -0.303058
v 0.155509 -0.006383 -0.394745
v -0.006352 1.239015 -0.426941
v -0.168214 1.239015 -0.394745
v -0.305433 1.239015 -0.303058
v -0.397120 1.239015 -0.165838
v -0.429317 1.239015 -0.003977
v -0.397120 1.239015 0.157885
v -0.305433 1.239015 0.295104
v -0.168214 1.239015 0.386791
v -0.006352 1.239015 0.418988
v 0.155509 1.239015 0.386791
v 0.292729 1.239015 0.295104
v 0.384416 1.239015 0.157884
v 0.416612 1.239015 -0.003977
v 0.384416 1.239015 -0.165839
v 0.292728 1.239015 -0.303058
v 0.155509 1.239015 -0.394745
v -0.006352 0.087571 -0.436513
v -0.171877 0.087571 -0.403588
v -0.312201 0.087571 -0.309826
v -0.405963 0.087571 -0.169501
v -0.438888 0.087571 -0.003977
v -0.405963 0.087571 0.161548
v -0.312201 0.087571 0.301872
v -0.171877 0.087571 0.395634
v -0.006352 0.087571 0.428559
v 0.159172 0.087571 0.395634
v 0.299497 0.087571 0.301872
v 0.393259 0.087571 0.161547
v 0.426184 0.087571 -0.003977
v 0.393258 0.087571 -0.169501
v 0.299496 0.087571 -0.309826
v 0.159171 0.087571 -0.403588
v -0.006352 1.145061 -0.436513
v -0.171877 1.145061 -0.403588
v -0.312201 1.145061 -0.309826
v -0.405963 1.145061 -0.169501
v -0.438888 1.145061 -0.003977
v -0.405963 1.145061 0.161548
v -0.312201 1.145061 0.301872
v -0.171877 1.145061 0.395634
v -0.006352 1.145061 0.428559
v 0.159172 1.145061 0.395634
v 0.299497 1.145061 0.301872
v 0.393259 1.145061 0.161547
v 0.426184 1.145061 -0.003977
v 0.393258 1.145061 -0.169501
v 0.299496 1.145061 -0.309826
v 0.159171 1.145061 -0.403588
v -0.571652 0.843520 -0.003977
v 0.515916 0.843520 0.212354
v -0.006352 0.843520 -0.569276
v -0.528621 0.843520 0.212354
v 0.558947 0.843520 -0.003977
v -0.406079 0.843520 0.395750
v 0.515916 0.843520 -0.220308
v -0.222683 0.843520 0.518292
v 0.393374 0.843520 -0.403704
v -0.222683 0.843520 -0.526245
v -0.006352 0.843520 0.561323
v 0.209978 0.843520 -0.526246
v -0.406079 0.843520 -0.403704
v 0.209979 0.843520 0.518292
v -0.528621 0.843520 -0.220307
v 0.393375 0.843520 0.395750
v -0.528621 0.389112 0.212354
v 0.558947 0.389112 -0.003977
v -0.406079 0.389112 0.395750
v 0.515916 0.389112 -0.220308
v -0.222683 0.389112 0.518292
v 0.393374 0.389112 -0.403704
v -0.222683 0.389112 -0.526245
v -0.006352 0.389112 0.561323
v 0.209978 0.389112 -0.526246
v -0.406079 0.389112 -0.403704
v 0.209979 0.389112 0.518292
v -0.528621 0.389112 -0.220307
v 0.393375 0.389112 0.395750
v -0.571652 0.389112 -0.003977
v 0.515916 0.389112 0.212354
v -0.006352 0.389112 -0.569276
v -0.435204 1.182978 0.173659
v 0.457833 1.182978 -0.003977
v -0.334581 1.182978 0.324252
v 0.422499 1.182978 -0.181613
v -0.183988 1.182978 0.424875
v 0.321876 1.182978 -0.332206
v -0.183988 1.182978 -0.432828
v -0.006352 1.182978 0.460209
v 0.171283 1.182978 -0.432829
v -0.334581 1.182978 -0.332205
v 0.171284 1.182978 0.424875
v -0.435204 1.182978 -0.181613
v 0.321877 1.182978 0.324252
v -0.470538 1.182978 -0.003977
v 0.422499 1.182978 0.173659
v -0.006352 1.182978 -0.468162
v -0.503408 1.107907 -0.003977
v 0.452868 1.107907 0.186238
v -0.006352 1.107907 -0.501032
v -0.465572 1.107907 0.186238
v 0.490703 1.107907 -0.003977
v -0.357824 1.107907 0.347495
v 0.452867 1.107907 -0.194192
v -0.196567 1.107907 0.455243
v 0.345119 1.107907 -0.355449
v -0.196567 1.107907 -0.463196
v -0.006352 1.107907 0.493079
v 0.183862 1.107907 -0.463197
v -0.357824 1.107907 -0.355448
v 0.183863 1.107907 0.455243
v -0.465572 1.107907 -0.194192
v 0.345119 1.107907 0.347495
v -0.502443 0.122576 -0.003977
v 0.451975 0.122576 0.185868
v -0.006352 0.122576 -0.500067
v -0.464680 0.122576 0.185869
v 0.489738 0.122576 -0.003977
v -0.357141 0.122576 0.346812
v 0.451975 0.122576 -0.193823
v -0.196198 0.122576 0.454351
v 0.344436 0.122576 -0.354766
v -0.196198 0.122576 -0.462304
v -0.006352 0.122576 0.492114
v 0.183493 0.122576 -0.462305
v -0.357141 0.122576 -0.354765
v 0.183493 0.122576 0.454351
v -0.464680 0.122576 -0.193822
v 0.344437 0.122576 0.346812
v -0.466555 0.040175 -0.003977
v 0.418819 0.040175 0.172135
v -0.006352 0.040175 -0.464179
v -0.431524 0.040175 0.172135
v 0.453850 0.040175 -0.003977
v -0.331765 0.040175 0.321436
v 0.418819 0.040175 -0.180089
v -0.182464 0.040175 0.421195
v 0.319059 0.040175 -0.329389
v -0.182464 0.040175 -0.429148
v -0.006352 0.040175 0.456226
v 0.169759 0.040175 -0.429148
v -0.331765 0.040175 -0.329389
v 0.169760 0.040175 0.421195
v -0.431524 0.040175 -0.180089
v 0.319060 0.040175 0.321435
v -0.542044 0.846736 0.217914
v -0.525549 0.945088 0.211081
v 0.573476 0.846736 -0.003977
v 0.555622 0.945088 -0.003977
v -0.416353 0.846736 0.406024
v -0.403728 0.945088 0.393399
v 0.529339 0.846736 -0.225868
v 0.512844 0.945088 -0.219036
v -0.228243 0.846736 0.531715
v -0.221410 0.945088 0.515220
v 0.403648 0.846736 -0.413978
v 0.391023 0.945088 -0.401353
v -0.228243 0.846736 -0.539668
v -0.221411 0.945088 -0.523173
v -0.006352 0.846736 0.575852
v -0.006352 0.945088 0.557998
v 0.215538 0.846736 -0.539669
v 0.208705 0.945088 -0.523174
v -0.416353 0.846736 -0.413977
v -0.403728 0.945088 -0.401353
v 0.215539 0.846736 0.531715
v 0.208706 0.945088 0.515220
v -0.542044 0.846736 -0.225867
v -0.525549 0.945088 -0.219035
v 0.403649 0.846736 0.406024
v 0.391024 0.945088 0.393399
v 0.512844 0.945088 0.211081
v -0.568327 0.945088 -0.003977
v -0.006352 0.945088 -0.565951
v -0.586181 0.385896 -0.003977
v -0.568327 0.287545 -0.003977
v 0.529339 0.385896 0.217914
v 0.512844 0.287545 0.211081
v -0.006352 0.385896 -0.583805
v -0.006352 0.287545 -0.565951
v -0.525549 0.287545 0.211081
v 0.555622 0.287545 -0.003977
v -0.403728 0.287545 0.393399
v 0.512844 0.287545 -0.219036
v -0.221410 0.287545 0.515220
v 0.391023 0.287545 -0.401353
v -0.221411 0.287545 -0.523173
v -0.006352 0.287545 0.557998
v 0.208705 0.287545 -0.523174
v -0.403728 0.287545 -0.401353
v 0.208706 0.287545 0.515220
v -0.525549 0.287545 -0.219035
v 0.391024 0.287545 0.393399
v -0.586181 0.846736 -0.003977
v 0.529339 0.846736 0.217914
v -0.006352 0.846736 -0.583805
v -0.542044 0.385896 0.217914
v 0.573476 0.385896 -0.003977
v -0.416353 0.385896 0.406024
v 0.529339 0.385896 -0.225868
v -0.228243 0.385896 0.531715
v 0.403648 0.385896 -0.413978
v -0.228243 0.385896 -0.539668
v -0.006352 0.385896 0.575852
v 0.215538 0.385896 -0.539669
v -0.416353 0.385896 -0.413977
v 0.215539 0.385896 0.531715
v -0.542044 0.385896 -0.225867
v 0.403649 0.385896 0.406024
v -0.477897 1.115029 0.191344
v -0.447529 1.190100 0.178765
v 0.504044 1.115029 -0.003977
v 0.471174 1.190100 -0.003977
v -0.367257 1.115029 0.356928
v -0.344014 1.190100 0.333685
v 0.465192 1.115029 -0.199297
v 0.434824 1.190100 -0.186719
v -0.201672 1.115029 0.467568
v -0.189094 1.190100 0.437200
v 0.354552 1.115029 -0.364882
v 0.331309 1.190100 -0.341639
v -0.201673 1.115029 -0.475522
v -0.189094 1.190100 -0.445153
v -0.006352 1.115029 0.506420
v -0.006352 1.190100 0.473549
v 0.188967 1.115029 -0.475522
v 0.176388 1.190100 -0.445154
v -0.367257 1.115029 -0.364881
v -0.344014 1.190100 -0.341639
v 0.188968 1.115029 0.467568
v 0.176389 1.190100 0.437200
v -0.477897 1.115029 -0.199297
v -0.447529 1.190100 -0.186718
v 0.354553 1.115029 0.356928
v 0.331310 1.190100 0.333685
v 0.434824 1.190100 0.178764
v -0.483878 1.190100 -0.003977
v -0.006352 1.190100 -0.481503
v -0.516749 1.115029 -0.003977
v 0.465193 1.115029 0.191343
v -0.006352 1.115029 -0.514373
v -0.443861 0.033083 0.177245
v -0.477017 0.115485 0.190979
v 0.467204 0.033083 -0.003977
v 0.503092 0.115485 -0.003977
v -0.341207 0.033083 0.330878
v -0.366584 0.115485 0.356255
v 0.431157 0.033083 -0.185199
v 0.464313 0.115485 -0.198933
v -0.187574 0.033083 0.433532
v -0.201308 0.115485 0.466688
v 0.328502 0.033083 -0.338832
v 0.353879 0.115485 -0.364209
v -0.187575 0.033083 -0.441486
v -0.201308 0.115485 -0.474642
v -0.006352 0.033083 0.469580
v -0.006352 0.115485 0.505468
v 0.174869 0.033083 -0.441486
v 0.188603 0.115485 -0.474642
v -0.341207 0.033083 -0.338832
v -0.366584 0.115485 -0.364208
v 0.174870 0.033083 0.433532
v 0.188604 0.115485 0.466688
v -0.443861 0.033083 -0.185199
v -0.477017 0.115485 -0.198933
v 0.328503 0.033083 0.330878
v 0.353879 0.115485 0.356255
v 0.464313 0.115485 0.190979
v -0.515797 0.115485 -0.003977
v -0.006352 0.115485 -0.513421
v -0.479909 0.033083 -0.003977
v 0.431157 0.033083 0.177245
v -0.006352 0.033083 -0.477533
vn 0.3385 0.4662 0.8173
vn -0.0000 0.4662 0.8847
vn -0.6256 0.4662 0.6256
vn -0.8173 0.4662 0.3385
vn 0.8055 0.5925 -0.0000
vn 0.7442 0.5925 0.3083
vn -0.5696 0.5925 0.5696
vn -0.7442 0.5925 0.3083
vn 0.7442 0.5925 -0.3083
vn -0.3083 0.5925 0.7442
vn 0.5696 0.5925 -0.5696
vn -0.3083 0.5925 -0.7442
vn -0.0000 0.5925 -0.8055
vn -0.0000 0.5925 0.8055
vn 0.3083 0.5925 -0.7442
vn -0.5696 0.5925 -0.5696
vn 0.3083 0.5925 0.7442
vn -0.7442 0.5925 -0.3083
vn 0.5696 0.5925 0.5696
vn -0.8055 0.5925 -0.0000
vn -0.9976 -0.0691 -0.0000
vn -0.9217 -0.0691 0.3818
vn -0.9239 -0.0000 0.3827
vn -1.0000 -0.0000 -0.0000
vn 0.1997 -0.9764 0.0827
vn 0.2161 -0.9764 -0.0000
vn 0.7054 -0.0691 0.7054
vn 0.9217 -0.0691 0.3818
vn 0.9239 -0.0000 0.3827
vn 0.7071 -0.0000 0.7071
vn -0.9217 -0.0691 -0.3818
vn -0.9239 -0.0000 -0.3827
vn 0.3818 -0.0691 0.9217
vn 0.3827 -0.0000 0.9239
vn -0.7054 -0.0691 -0.7054
vn -0.7071 -0.0000 -0.7071
vn 0.3818 -0.0691 -0.9217
vn -0.0000 -0.0691 -0.9976
vn -0.0000 -0.0000 -1.0000
vn 0.3827 -0.0000 -0.9239
vn -0.0000 -0.0691 0.9976
vn -0.0000 -0.0000 1.0000
vn -0.3818 -0.0691 -0.9217
vn -0.3827 -0.0000 -0.9239
vn 0.7054 -0.0691 -0.7054
vn 0.7071 -0.0000 -0.7071
vn -0.3818 -0.0691 0.9217
vn -0.3827 -0.0000 0.9239
vn 0.9217 -0.0691 -0.3818
vn 0.9239 -0.0000 -0.3827
vn -0.7054 -0.0691 0.7054
vn -0.7071 -0.0000 0.7071
vn 0.9976 -0.0691 -0.0000
vn 1.0000 -0.0000 -0.0000
vn -0.8836 -0.2920 0.3660
vn -0.9564 -0.2920 -0.0000
vn 0.1528 -0.9764 -0.1528
vn 0.0827 -0.9764 -0.1997
vn 0.4333 -0.8832 -0.1795
vn 0.3316 -0.8832 -0.3316
vn -0.4351 -0.8822 -0.1802
vn -0.4710 -0.8822 -0.0000
vn -0.0827 -0.9764 -0.1997
vn -0.1528 -0.9764 -0.1528
vn -0.0827 -0.9764 0.1997
vn -0.0000 -0.9764 0.2161
vn -0.4333 -0.8832 -0.1795
vn -0.4690 -0.8832 -0.0000
vn 0.1802 -0.8822 0.4351
vn 0.3330 -0.8822 0.3330
vn 0.1528 -0.9764 0.1528
vn -0.0000 -0.9764 -0.2161
vn 0.4690 -0.8832 -0.0000
vn -0.3330 -0.8822 -0.3330
vn 0.1997 -0.9764 -0.0827
vn 0.1802 -0.8822 -0.4351
vn -0.0000 -0.8822 -0.4710
vn 0.9564 -0.2920 -0.0000
vn 0.8836 -0.2920 0.3660
vn -0.6763 -0.2920 0.6763
vn 0.8836 -0.2920 -0.3660
vn -0.3660 -0.2920 0.8836
vn 0.6763 -0.2920 -0.6763
vn -0.3660 -0.2920 -0.8836
vn -0.0000 -0.2920 -0.9564
vn -0.0000 -0.2920 0.9564
vn 0.3660 -0.2920 -0.8836
vn -0.6763 -0.2920 -0.6763
vn 0.3660 -0.2920 0.8836
vn -0.8836 -0.2920 -0.3660
vn 0.6763 -0.2920 0.6763
vn -0.0000 -1.0000 -0.0000
vn -0.0000 1.0000 -0.0000
vn -0.6256 -0.4662 -0.6256
vn -0.8173 -0.4662 -0.3385
vn -0.8847 -0.4662 -0.0000
vn -0.3385 0.4662 0.8173
vn 0.6256 0.4662 0.6256
vn -0.8173 -0.4662 0.3385
vn 0.8173 0.4662 0.3385
vn -0.6256 -0.4662 0.6256
vn -0.0000 -0.4662 0.8847
vn 0.3385 -0.4662 0.8173
vn 0.8847 0.4662 -0.0000
vn -0.3385 -0.4662 0.8173
vn 0.6256 -0.4662 0.6256
vn 0.8173 0.4662 -0.3385
vn 0.8173 -0.4662 0.3385
vn 0.6256 0.4662 -0.6256
vn 0.8847 -0.4662 -0.0000
vn 0.3385 0.4662 -0.8173
vn 0.8173 -0.4662 -0.3385
vn -0.0000 0.4662 -0.8847
vn 0.6256 -0.4662 -0.6256
vn -0.3385 0.4662 -0.8173
vn 0.3385 -0.4662 -0.8173
vn -0.6256 0.4662 -0.6256
vn -0.0000 -0.4662 -0.8847
vn -0.8173 0.4662 -0.3385
vn -0.3385 -0.4662 -0.8173
vn -0.8847 0.4662 -0.0000
vn -0.9217 0.0691 0.3818
vn -0.9976 0.0691 -0.0000
vn 0.9976 0.0691 -0.0000
vn 0.9217 0.0691 0.3818
vn -0.7054 0.0691 0.7054
vn 0.9217 0.0691 -0.3818
vn -0.3818 0.0691 0.9217
vn 0.7054 0.0691 -0.7054
vn -0.3818 0.0691 -0.9217
vn -0.0000 0.0691 -0.9976
vn -0.0000 0.0691 0.9976
vn 0.3818 0.0691 -0.9217
vn -0.7054 0.0691 -0.7054
vn 0.3818 0.0691 0.9217
vn -0.9217 0.0691 -0.3818
vn 0.7054 0.0691 0.7054
vn -0.1528 -0.9764 0.1528
vn -0.0000 -0.8822 0.4710
vn 0.0827 -0.9764 0.1997
vn -0.1802 -0.8822 -0.4351
vn -0.1997 -0.9764 0.0827
vn 0.3330 -0.8822 -0.3330
vn -0.1802 -0.8822 0.4351
vn -0.2161 -0.9764 -0.0000
vn 0.4351 -0.8822 -0.1802
vn -0.8841 0.2904 0.3662
vn -0.9569 0.2904 -0.0000
vn -0.3330 -0.8822 0.3330
vn 0.4710 -0.8822 -0.0000
vn 0.1997 0.9764 0.0827
vn 0.1528 0.9764 0.1528
vn -0.4351 -0.8822 0.1802
vn -0.1997 -0.9764 -0.0827
vn -0.2161 0.9764 -0.0000
vn -0.1997 0.9764 -0.0827
vn 0.4351 -0.8822 0.1802
vn 0.0827 0.9764 0.1997
vn -0.1528 0.9764 -0.1528
vn -0.0000 0.9764 -0.2161
vn 0.0827 0.9764 -0.1997
vn -0.0000 0.9764 0.2161
vn 0.9569 0.2904 -0.0000
vn 0.8841 0.2904 0.3662
vn -0.6766 0.2904 0.6766
vn 0.8841 0.2904 -0.3662
vn -0.3662 0.2904 0.8841
vn 0.6766 0.2904 -0.6766
vn -0.3662 0.2904 -0.8841
vn -0.0000 0.2904 -0.9569
vn -0.0000 0.2904 0.9569
vn 0.3662 0.2904 -0.8841
vn -0.6766 0.2904 -0.6766
vn 0.3662 0.2904 0.8841
vn -0.8841 0.2904 -0.3662
vn 0.6766 0.2904 0.6766
vn -0.0827 0.9764 -0.1997
vn -0.7809 -0.6246 -0.0000
vn -0.7215 -0.6246 0.2989
vn -0.4333 0.8832 0.1795
vn -0.4690 0.8832 -0.0000
vn 0.1528 0.9764 -0.1528
vn 0.4690 0.8832 -0.0000
vn 0.4333 0.8832 0.1795
vn -0.0827 0.9764 0.1997
vn -0.3316 0.8832 0.3316
vn 0.4333 0.8832 -0.1795
vn 0.1997 0.9764 -0.0827
vn -0.1795 0.8832 0.4333
vn -0.1528 0.9764 0.1528
vn 0.3316 0.8832 -0.3316
vn 0.2161 0.9764 -0.0000
vn -0.1795 0.8832 -0.4333
vn -0.0000 0.8832 -0.4690
vn -0.1997 0.9764 0.0827
vn -0.0000 0.8832 0.4690
vn 0.7215 -0.6246 0.2989
vn 0.7809 -0.6246 -0.0000
vn -0.5522 -0.6246 0.5522
vn 0.7215 -0.6246 -0.2989
vn -0.2989 -0.6246 0.7215
vn 0.5522 -0.6246 -0.5522
vn -0.0000 -0.6246 -0.7809
vn -0.2989 -0.6246 -0.7215
vn -0.0000 -0.6246 0.7809
vn 0.2989 -0.6246 -0.7215
vn -0.5522 -0.6246 -0.5522
vn 0.2989 -0.6246 0.7215
vn -0.7215 -0.6246 -0.2989
vn 0.5522 -0.6246 0.5522
vn -0.9839 0.1786 -0.0000
vn -0.9090 0.1786 0.3765
vn 0.6957 0.1786 0.6957
vn 0.9090 0.1786 0.3765
vn -0.9090 0.1786 -0.3765
vn 0.3765 0.1786 0.9090
vn -0.6957 0.1786 -0.6957
vn 0.3765 0.1786 -0.9090
vn -0.0000 0.1786 -0.9839
vn -0.0000 0.1786 0.9839
vn -0.3765 0.1786 -0.9090
vn 0.6957 0.1786 -0.6957
vn -0.3765 0.1786 0.9090
vn 0.9090 0.1786 -0.3765
vn -0.6957 0.1786 0.6957
vn 0.9839 0.1786 -0.0000
vn -0.9839 -0.1786 -0.0000
vn -0.9090 -0.1786 0.3765
vn 0.9090 -0.1786 0.3765
vn 0.9839 -0.1786 -0.0000
vn -0.6957 -0.1786 0.6957
vn 0.9090 -0.1786 -0.3765
vn -0.3765 -0.1786 0.9090
vn 0.6957 -0.1786 -0.6957
vn -0.0000 -0.1786 -0.9839
vn -0.3765 -0.1786 -0.9090
vn -0.0000 -0.1786 0.9839
vn 0.3765 -0.1786 -0.9090
vn -0.6957 -0.1786 -0.6957
vn 0.3765 -0.1786 0.9090
vn -0.9090 -0.1786 -0.3765
vn 0.6957 -0.1786 0.6957
vn -0.9160 0.4011 -0.0000
vn -0.8463 0.4011 0.3506
vn 0.6477 0.4011 0.6477
vn 0.8463 0.4011 0.3506
vn -0.8463 0.4011 -0.3506
vn 0.3506 0.4011 0.8463
vn -0.6477 0.4011 -0.6477
vn 0.3506 0.4011 -0.8463
vn -0.0000 0.4011 -0.9160
vn -0.0000 0.4011 0.9160
vn -0.3506 0.4011 -0.8463
vn 0.6477 0.4011 -0.6477
vn -0.3506 0.4011 0.8463
vn 0.8463 0.4011 -0.3506
vn -0.6477 0.4011 0.6477
vn 0.9160 0.4011 -0.0000
vn -0.9168 -0.3993 -0.0000
vn -0.8470 -0.3993 0.3509
vn 0.6483 -0.3993 0.6483
vn 0.8470 -0.3993 0.3509
vn -0.8470 -0.3993 -0.3509
vn 0.3509 -0.3993 0.8470
vn -0.6483 -0.3993 -0.6483
vn 0.3509 -0.3993 -0.8470
vn -0.0000 -0.3993 -0.9168
vn -0.0000 -0.3993 0.9168
vn -0.3509 -0.3993 -0.8470
vn 0.6483 -0.3993 -0.6483
vn -0.3509 -0.3993 0.8470
vn 0.8470 -0.3993 -0.3509
vn -0.6483 -0.3993 0.6483
vn 0.9168 -0.3993 -0.0000
vn -0.4333 -0.8832 0.1795
vn 0.1795 -0.8832 -0.4333
vn -0.3316 -0.8832 0.3316
vn -0.0000 -0.8832 0.4690
vn 0.1795 -0.8832 0.4333
vn -0.4351 0.8822 -0.1802
vn -0.3330 0.8822 -0.3330
vn -0.0000 -0.8832 -0.4690
vn 0.4710 0.8822 -0.0000
vn 0.4351 0.8822 0.1802
vn -0.1795 -0.8832 0.4333
vn -0.1802 0.8822 -0.4351
vn 0.3316 -0.8832 0.3316
vn 0.3330 0.8822 0.3330
vn -0.1795 -0.8832 -0.4333
vn -0.0000 0.8822 0.4710
vn -0.1802 0.8822 0.4351
vn -0.0000 0.8822 -0.4710
vn 0.4333 -0.8832 0.1795
vn 0.1802 0.8822 0.4351
vn -0.3316 -0.8832 -0.3316
vn -0.3330 0.8822 0.3330
vn 0.1802 0.8822 -0.4351
vn -0.4351 0.8822 0.1802
vn 0.3330 0.8822 -0.3330
vn -0.4710 0.8822 -0.0000
vn 0.3316 0.8832 0.3316
vn 0.4351 0.8822 -0.1802
vn -0.4333 0.8832 -0.1795
vn 0.1795 0.8832 0.4333
vn -0.3316 0.8832 -0.3316
vn 0.1795 0.8832 -0.4333
vt -0.253691 0.493776
vt -0.004542 0.493776
vt -0.004542 0.622835
vt -0.253691 0.622835
vt 0.493756 0.493776
vt 0.742905 0.493776
vt 0.742905 0.622836
vt 0.493756 0.622835
vt 0.500001 1.637035
vt 0.500000 1.864943
vt 0.231109 1.864943
vt 0.229867 1.637035
vt 0.000858 1.637035
vt 0.003153 1.864943
vt 0.231108 1.864943
vt 0.229866 1.637035
vt 0.770134 1.637035
vt 0.768892 1.864943
vt 0.999143 1.637035
vt 0.996847 1.864943
vt 0.229866 1.637035
vt 0.231108 1.864943
vt 0.500000 1.864943
vt 0.500000 1.637035
vt 0.500000 1.637035
vt 0.500000 1.864943
vt 0.770133 1.637035
vt 0.768891 1.864943
vt 0.996846 1.864943
vt 0.999141 1.637035
vt 0.770134 1.637035
vt 0.768892 1.864943
vt 0.770134 1.637035
vt 0.768891 1.864943
vt 0.996847 1.864943
vt 0.999142 1.637035
vt 0.999142 1.637035
vt 0.996847 1.864943
vt 0.500000 1.637035
vt 0.003153 1.864943
vt 0.000858 1.637035
vt 0.500000 0.120200
vt 0.225934 0.120200
vt 0.224400 0.500000
vt 0.500000 0.500000
vt 0.397719 0.843160
vt 0.422653 0.783710
vt 0.427065 0.784564
vt 0.401469 0.845592
vt -0.006407 0.120200
vt 0.225935 0.120200
vt 0.224400 0.500000
vt -0.009242 0.500000
vt 0.774066 0.120200
vt 0.775600 0.500000
vt 0.774066 0.120200
vt 1.006408 0.120200
vt 1.009243 0.500000
vt 0.775600 0.500000
vt 1.006407 0.120200
vt 1.009243 0.500000
vt 0.774065 0.120200
vt 0.500000 0.120200
vt 0.500000 0.500000
vt 0.775599 0.500000
vt 0.500000 0.120200
vt 0.500000 0.500000
vt 0.225934 0.120200
vt -0.006407 0.120200
vt -0.009243 0.500000
vt 0.224400 0.500000
vt 1.006407 0.120200
vt 1.009242 0.500000
vt 0.774066 0.120200
vt 1.006408 0.120200
vt 1.009243 0.500000
vt 0.775601 0.500000
vt 0.500001 0.120200
vt 0.500001 0.500000
vt 0.231043 -0.422962
vt 0.226925 -0.059925
vt 0.500000 -0.059925
vt 0.500000 -0.422962
vt 0.180652 0.815905
vt 0.210933 0.845810
vt 0.209324 0.848127
vt 0.178265 0.817453
vt 0.434030 0.798982
vt 0.413069 0.749006
vt 0.416600 0.746771
vt 0.438169 0.798198
vt 0.394821 0.846049
vt 0.417460 0.792071
vt 0.421306 0.792855
vt 0.398059 0.848282
vt 0.226292 0.589785
vt 0.166096 0.614410
vt 0.163699 0.610770
vt 0.225493 0.585492
vt 0.332885 0.665560
vt 0.293320 0.649375
vt 0.293829 0.646643
vt 0.334410 0.663244
vt 0.179627 0.749006
vt 0.158667 0.798983
vt 0.154816 0.798198
vt 0.176384 0.746771
vt 0.239173 0.615996
vt 0.184517 0.638354
vt 0.182111 0.635013
vt 0.238234 0.612054
vt 0.351646 0.888661
vt 0.354174 0.892301
vt 0.250497 0.861995
vt 0.293320 0.861995
vt 0.293829 0.864727
vt 0.249905 0.864727
vt 0.434030 0.853076
vt 0.438169 0.853861
vt 0.352989 0.887362
vt 0.355105 0.890704
vt 0.166096 0.888662
vt 0.226293 0.913287
vt 0.225493 0.917579
vt 0.163699 0.892301
vt 0.164264 0.776832
vt 0.161455 0.777375
vt 0.184517 0.887362
vt 0.239173 0.909721
vt 0.238234 0.913663
vt 0.182112 0.890704
vt 0.291449 0.589785
vt 0.292379 0.585492
vt 0.500001 -0.422962
vt 0.500001 -0.059925
vt 0.226925 -0.059925
vt 0.231043 -0.422962
vt 0.003032 -0.422962
vt -0.004577 -0.059925
vt 0.768958 -0.422962
vt 0.773076 -0.059925
vt 0.996969 -0.422962
vt 1.004578 -0.059925
vt 0.231043 -0.422962
vt 0.226925 -0.059925
vt 0.500000 -0.059925
vt 0.500000 -0.422962
vt 0.500000 -0.422962
vt 0.500000 -0.059925
vt 0.768956 -0.422962
vt 0.773074 -0.059925
vt 1.004576 -0.059925
vt 0.996968 -0.422962
vt 0.768958 -0.422962
vt 0.773075 -0.059925
vt 0.768957 -0.422962
vt 0.773075 -0.059925
vt 1.004577 -0.059925
vt 0.996968 -0.422962
vt 0.996969 -0.422962
vt 1.004577 -0.059925
vt -0.004577 -0.059925
vt 0.003032 -0.422962
vt 0.471325 0.187572
vt 0.417470 0.187572
vt 0.411487 0.157494
vt 0.477308 0.157494
vt 0.266399 0.156201
vt 0.212544 0.156201
vt 0.206562 0.126124
vt 0.272382 0.126124
vt 0.065059 0.156201
vt 0.011204 0.156201
vt 0.005222 0.126124
vt 0.071042 0.126124
vt 0.404212 0.156201
vt 0.350357 0.156201
vt 0.344374 0.126124
vt 0.410194 0.126124
vt 0.078318 0.126124
vt 0.132173 0.126124
vt 0.138155 0.156201
vt 0.072335 0.156201
vt 0.283244 0.188865
vt 0.337098 0.188865
vt 0.343081 0.218942
vt 0.277261 0.218942
vt 0.199286 0.187572
vt 0.145431 0.187572
vt 0.139448 0.157494
vt 0.205269 0.157494
vt 0.404212 0.250313
vt 0.350357 0.250313
vt 0.344374 0.220235
vt 0.410195 0.220235
vt 0.266399 0.187572
vt 0.212544 0.187572
vt 0.206562 0.157494
vt 0.272382 0.157494
vt 0.065059 0.250313
vt 0.011204 0.250313
vt 0.005222 0.220235
vt 0.071042 0.220235
vt 0.212544 0.220235
vt 0.266399 0.220235
vt 0.272382 0.250313
vt 0.206562 0.250313
vt 0.337098 0.187572
vt 0.283244 0.187572
vt 0.277261 0.157494
vt 0.343081 0.157494
vt 0.417470 0.220235
vt 0.471325 0.220235
vt 0.477308 0.250313
vt 0.411487 0.250313
vt 0.078318 0.188865
vt 0.132173 0.188865
vt 0.138155 0.218942
vt 0.072335 0.218942
vt 0.404212 0.218942
vt 0.350357 0.218942
vt 0.344374 0.188865
vt 0.410195 0.188865
vt 0.538438 0.156201
vt 0.484583 0.156201
vt 0.478600 0.126124
vt 0.544421 0.126124
vt 0.017717 0.357869
vt -0.262556 0.357869
vt -0.262556 0.638143
vt 0.017717 0.638143
vt -0.004572 0.365070
vt -0.231116 0.365070
vt -0.231116 0.591613
vt -0.004572 0.591613
vt 0.187695 0.392315
vt -0.004648 0.392315
vt -0.004648 0.584658
vt 0.187695 0.584658
vt 0.184591 0.369368
vt -0.021016 0.369368
vt -0.021016 0.574976
vt 0.184591 0.574976
vt 0.514492 0.345919
vt 0.236809 0.345919
vt 0.236809 0.623602
vt 0.514492 0.623602
vt 0.493069 0.399220
vt 0.257093 0.399220
vt 0.257093 0.635196
vt 0.493069 0.635196
vt 0.482946 0.354867
vt 0.241034 0.354867
vt 0.241034 0.596779
vt 0.482946 0.596779
vt 0.245727 0.359180
vt -0.016872 0.359180
vt -0.016872 0.621780
vt 0.245727 0.621780
vt 0.512811 0.352244
vt 0.246504 0.352244
vt 0.246504 0.618550
vt 0.512811 0.618550
vt 0.002125 0.374881
vt -0.224539 0.374881
vt -0.224539 0.601545
vt 0.002125 0.601545
vt 0.730711 0.363763
vt 0.489017 0.363763
vt 0.489017 0.605457
vt 0.730711 0.605457
vt 0.256080 0.343568
vt -0.021172 0.343568
vt -0.021172 0.620821
vt 0.256080 0.620821
vt 0.767815 0.345608
vt 0.500804 0.345608
vt 0.500804 0.612619
vt 0.767815 0.612619
vt 0.494442 0.381866
vt 0.257239 0.381866
vt 0.257239 0.619069
vt 0.494442 0.619069
vt 0.733997 0.364733
vt 0.489097 0.364733
vt 0.489097 0.609633
vt 0.733997 0.609633
vt 0.977096 0.325446
vt 0.725769 0.325446
vt 0.725769 0.576772
vt 0.977096 0.576772
vt 1.250901 0.644355
vt 1.051445 0.644355
vt 1.051445 0.541037
vt 1.250901 0.541037
vt 0.214260 0.936713
vt 0.068841 0.791293
vt -0.009861 0.601292
vt -0.009861 0.395637
vt 0.068840 0.205636
vt 0.214260 0.060216
vt 0.404261 -0.018485
vt 0.609916 -0.018485
vt 0.799917 0.060216
vt 0.945337 0.205635
vt 1.024038 0.395636
vt 1.024038 0.601292
vt 0.945337 0.791292
vt 0.799917 0.936713
vt 0.609916 1.015414
vt 0.404261 1.015414
vt 0.788437 0.932078
vt 0.600445 1.009947
vt 0.396964 1.009947
vt 0.208973 0.932079
vt 0.065090 0.788196
vt -0.012778 0.600205
vt -0.012778 0.396723
vt 0.065090 0.208732
vt 0.208972 0.064850
vt 0.396964 -0.013019
vt 0.600444 -0.013019
vt 0.788436 0.064850
vt 0.932319 0.208732
vt 1.010187 0.396724
vt 1.010187 0.600204
vt 0.932319 0.788196
vt 1.013911 0.660105
vt 0.728189 0.660105
vt 0.728189 0.512101
vt 1.013911 0.512101
vt 0.244607 0.493776
vt 0.244606 0.622835
vt -0.502840 0.493776
vt -0.502840 0.622835
vt 0.978348 0.650697
vt 0.724180 0.650697
vt 0.724180 0.519038
vt 0.978348 0.519038
vt -0.751989 0.493776
vt -0.751989 0.622836
vt 0.703736 0.630283
vt 0.491459 0.630283
vt 0.491459 0.520323
vt 0.703736 0.520323
vt 0.013433 0.649482
vt -0.274955 0.649482
vt -0.274955 0.500097
vt 0.013433 0.500097
vt -1.001138 0.493777
vt -1.001138 0.622836
vt 0.245081 0.653984
vt 0.035250 0.653984
vt 0.035250 0.545291
vt 0.245081 0.545291
vt -0.018793 0.605063
vt -0.253599 0.605063
vt -0.253599 0.483434
vt -0.018793 0.483434
vt -1.250287 0.493776
vt -1.250287 0.622836
vt -0.484662 0.720811
vt -0.727085 0.720811
vt -0.727085 0.595235
vt -0.484662 0.595235
vt -0.501827 0.659239
vt -0.730768 0.659239
vt -0.730768 0.540647
vt -0.501827 0.540647
vt -1.499436 0.493776
vt -1.499436 0.622836
vt -0.740600 0.607385
vt -0.955209 0.607385
vt -0.955210 0.496217
vt -0.740600 0.496217
vt 2.237803 0.493776
vt 2.486952 0.493776
vt 2.486952 0.622835
vt 2.237803 0.622835
vt -1.243611 0.707497
vt -1.528749 0.707497
vt -1.528749 0.559796
vt -1.243612 0.559796
vt 1.988653 0.493776
vt 1.988653 0.622836
vt 2.473486 0.633834
vt 2.244545 0.633834
vt 2.244545 0.515243
vt 2.473486 0.515243
vt 1.739504 0.493776
vt 1.739504 0.622836
vt 2.248918 0.614595
vt 2.019976 0.614595
vt 2.019977 0.496003
vt 2.248918 0.496003
vt 1.490354 0.493776
vt 1.490354 0.622836
vt 2.008657 0.631179
vt 1.742911 0.631178
vt 1.742911 0.493522
vt 2.008658 0.493522
vt 1.241205 0.493776
vt 1.241205 0.622836
vt 1.747610 0.640800
vt 1.468727 0.640800
vt 1.468727 0.496339
vt 1.747610 0.496339
vt 0.992055 0.493776
vt 0.992055 0.622836
vt 1.485853 0.638029
vt 1.239701 0.638029
vt 1.239701 0.510522
vt 1.485853 0.510522
vt 0.225934 0.879800
vt 0.500000 0.879800
vt 0.500001 0.879800
vt 0.225935 0.879800
vt -0.006407 0.879800
vt 0.774066 0.879800
vt 1.006408 0.879800
vt 0.225934 0.879800
vt 0.500000 0.879800
vt 0.500000 0.879800
vt 0.774065 0.879800
vt 1.006407 0.879800
vt 0.774066 0.879800
vt 0.774066 0.879800
vt 1.006407 0.879800
vt 1.006408 0.879800
vt -0.006407 0.879800
vt 0.363166 0.695465
vt 0.365469 0.693918
vt 0.298332 0.615996
vt 0.298981 0.612054
vt 0.291449 0.913287
vt 0.292379 0.917579
vt 0.164264 0.734539
vt 0.161455 0.733995
vt 0.298333 0.909721
vt 0.298982 0.913663
vt 0.120023 0.843160
vt 0.116403 0.845592
vt 0.379554 0.734539
vt 0.382279 0.733995
vt 0.142685 0.846049
vt 0.139157 0.848282
vt 0.351646 0.614410
vt 0.354174 0.610770
vt 0.180651 0.695465
vt 0.178264 0.693918
vt 0.352989 0.638354
vt 0.355105 0.635012
vt 0.379554 0.776831
vt 0.382279 0.777375
vt 0.095089 0.783710
vt 0.090807 0.784564
vt 0.120046 0.792071
vt 0.115910 0.792855
vt 0.397719 0.659911
vt 0.401469 0.657479
vt 0.226925 1.059925
vt 0.230573 1.418760
vt 0.500000 1.418760
vt 0.500000 1.059925
vt 0.394821 0.679667
vt 0.398059 0.677434
vt 0.095088 0.719361
vt 0.090807 0.718508
vt 0.120046 0.733646
vt 0.115910 0.732862
vt 0.422653 0.719361
vt 0.427065 0.718507
vt 0.146746 0.828295
vt 0.187074 0.868122
vt 0.185042 0.871207
vt 0.143678 0.830356
vt 0.417460 0.733645
vt 0.421306 0.732861
vt 0.120023 0.659911
vt 0.116403 0.657479
vt 0.411639 0.719934
vt 0.389814 0.667897
vt 0.392993 0.665836
vt 0.415379 0.719210
vt 0.142685 0.679667
vt 0.139156 0.677435
vt 0.239764 0.889677
vt 0.239087 0.893315
vt 0.349486 0.628070
vt 0.351629 0.624985
vt 0.239764 0.606515
vt 0.187074 0.628070
vt 0.185042 0.624985
vt 0.239087 0.602877
vt 0.296796 0.889677
vt 0.297584 0.893315
vt 0.500001 1.059925
vt 0.500001 1.418760
vt 0.230574 1.418760
vt 0.226925 1.059925
vt -0.004577 1.059925
vt 0.002164 1.418760
vt 0.773076 1.059925
vt 0.769427 1.418760
vt 1.004578 1.059925
vt 0.997836 1.418760
vt 0.226925 1.059925
vt 0.230573 1.418760
vt 0.500000 1.418760
vt 0.500000 1.059925
vt 0.500000 1.059925
vt 0.500000 1.418760
vt 0.773074 1.059925
vt 0.769426 1.418760
vt 0.997835 1.418760
vt 1.004576 1.059925
vt 0.773075 1.059925
vt 0.769427 1.418760
vt 0.773075 1.059925
vt 0.769426 1.418760
vt 0.997836 1.418760
vt 1.004577 1.059925
vt 1.004577 1.059925
vt 0.997836 1.418760
vt 0.002165 1.418760
vt -0.004577 1.059925
vt 0.296796 0.606515
vt 0.297584 0.602877
vt 0.500000 -0.864943
vt 0.231108 -0.864943
vt 0.232054 -0.656621
vt 0.500000 -0.656621
vt 0.441262 0.791672
vt 0.441262 0.733360
vt 0.445401 0.732575
vt 0.445401 0.792457
vt 0.146746 0.667897
vt 0.143678 0.665836
vt 0.144425 0.791672
vt 0.167021 0.845546
vt 0.163778 0.847781
vt 0.140574 0.792457
vt 0.349486 0.868122
vt 0.351629 0.871207
vt 0.418667 0.845545
vt 0.422198 0.847781
vt 0.144425 0.733360
vt 0.140574 0.732575
vt 0.124921 0.719934
vt 0.121292 0.719210
vt 0.376916 0.886778
vt 0.379323 0.890123
vt 0.389814 0.828295
vt 0.392993 0.830356
vt 0.167021 0.679487
vt 0.163778 0.677252
vt 0.124921 0.776258
vt 0.121292 0.776982
vt 0.322366 0.615939
vt 0.263321 0.615939
vt 0.262671 0.611993
vt 0.323305 0.611993
vt 0.411639 0.776258
vt 0.415379 0.776982
vt 0.322366 0.909094
vt 0.323305 0.913039
vt 0.231109 -0.864943
vt 0.500000 -0.864943
vt 0.500001 -0.656621
vt 0.232054 -0.656621
vt 0.806891 -0.675102
vt 0.990426 -0.662211
vt 0.989050 -0.816306
vt 0.809072 -0.829176
vt 0.768892 -0.864943
vt 0.767947 -0.656621
vt 1.173794 -0.648581
vt 1.170151 -0.802597
vt 0.811935 -0.666067
vt 0.997583 -0.657024
vt 0.996207 -0.811118
vt 0.814116 -0.820141
vt 0.231108 -0.864943
vt 0.232053 -0.656621
vt 0.500000 -0.656621
vt 0.500000 -0.864943
vt 0.500000 -0.656621
vt 1.181779 -0.648027
vt 1.178136 -0.802042
vt 0.808102 -0.678748
vt 0.990493 -0.666260
vt 0.989117 -0.820354
vt 0.810283 -0.832822
vt 0.768892 -0.864943
vt 0.767947 -0.656621
vt 0.768891 -0.864943
vt 0.767945 -0.656621
vt 1.172737 -0.652327
vt 1.169094 -0.806343
vt 0.811575 -0.677765
vt 0.993935 -0.667458
vt 0.992559 -0.821552
vt 0.813757 -0.831839
vt 0.768891 -0.864943
vt 0.767946 -0.656621
vt 1.175557 -0.655441
vt 1.171914 -0.809456
vt 0.464144 0.189619
vt 0.837256 0.189619
vt 0.820987 -0.002055
vt 0.459363 -0.002055
vt 1.140418 0.206352
vt 0.837256 0.189619
vt 0.820986 -0.002055
vt 1.127556 -0.002055
vt 0.091032 0.189619
vt 0.097740 -0.002055
vt 0.091032 0.189619
vt -0.200776 0.188424
vt -0.208830 -0.002055
vt 0.097739 -0.002055
vt -0.200776 0.188424
vt -0.208830 -0.002055
vt 0.091033 0.189619
vt 0.464144 0.189619
vt 0.459363 -0.002055
vt 0.097741 -0.002055
vt 0.464144 0.189619
vt 0.459363 -0.002055
vt 0.837257 0.189619
vt 1.140419 0.206352
vt 1.127556 -0.002055
vt 0.820987 -0.002055
vt -0.200775 0.188424
vt -0.208829 -0.002055
vt 0.091031 0.189619
vt -0.200777 0.188424
vt -0.208831 -0.002055
vt 0.097739 -0.002055
vt 0.464143 0.189619
vt 0.459362 -0.002055
vt 0.881754 0.777252
vt 0.529009 0.777252
vt 0.517802 0.995942
vt 0.881754 0.995942
vt 0.529010 0.777252
vt 0.881755 0.777252
vt 0.881755 0.995942
vt 0.517803 0.995942
vt 0.229967 0.777252
vt 0.209259 0.995942
vt 1.234499 0.777252
vt 1.245706 0.995942
vt 1.533542 0.777252
vt 1.528636 0.997839
vt 0.881754 0.777252
vt 0.529009 0.777252
vt 0.517802 0.995942
vt 0.881754 0.995942
vt 0.881754 0.777252
vt 0.881754 0.995942
vt 1.533540 0.777252
vt 1.234497 0.777252
vt 1.245704 0.995942
vt 1.528634 0.997839
vt 1.234499 0.777252
vt 1.245705 0.995942
vt 1.533541 0.777252
vt 1.234498 0.777252
vt 1.245705 0.995942
vt 1.528635 0.997839
vt 1.533541 0.777252
vt 1.528635 0.997839
vt 0.229967 0.777252
vt 0.209260 0.995942
vt 0.511373 0.789018
vt 0.132546 0.789018
vt 0.156943 0.991989
vt 0.511373 0.991989
vt -0.140752 0.787568
vt 0.132547 0.789018
vt 0.156944 0.991989
vt -0.143528 0.991989
vt 0.890199 0.789018
vt 0.865802 0.991989
vt 0.890199 0.789018
vt 1.166398 0.792643
vt 1.166273 0.991989
vt 0.865802 0.991989
vt 1.166398 0.792643
vt 1.166273 0.991989
vt 0.890198 0.789018
vt 0.511372 0.789018
vt 0.511372 0.991989
vt 0.865801 0.991989
vt 0.511373 0.789018
vt 0.511373 0.991989
vt 0.132546 0.789018
vt -0.140753 0.787568
vt -0.143528 0.991989
vt 0.156943 0.991989
vt 1.166397 0.792643
vt 1.166272 0.991989
vt 0.890200 0.789018
vt 1.166399 0.792643
vt 1.166274 0.991989
vt 0.865803 0.991989
vt 0.511373 0.789018
vt 0.511373 0.991989
vt 0.511953 0.172481
vt 0.909561 0.172481
vt 0.939693 -0.008311
vt 0.511953 -0.008311
vt 1.246636 0.172481
vt 0.909560 0.172481
vt 0.939692 -0.008311
vt 1.247291 -0.005465
vt 0.114345 0.172481
vt 0.084213 -0.008311
vt 0.114345 0.172481
vt -0.222731 0.172481
vt -0.218926 -0.003040
vt 0.084213 -0.008311
vt -0.222730 0.172481
vt -0.218925 -0.003040
vt 0.114347 0.172481
vt 0.511953 0.172481
vt 0.511953 -0.008311
vt 0.084215 -0.008311
vt 0.511953 0.172481
vt 0.511953 -0.008311
vt 0.909561 0.172481
vt 1.246636 0.172481
vt 1.247292 -0.005465
vt 0.939693 -0.008311
vt -0.222729 0.172481
vt -0.218924 -0.003040
vt 0.114344 0.172481
vt -0.222731 0.172481
vt -0.218926 -0.003040
vt 0.084212 -0.008311
vt 0.511952 0.172481
vt 0.511952 -0.008311
vt 0.158667 0.853076
vt 0.154816 0.853861
vt 0.332885 0.845810
vt 0.334410 0.848127
vt 0.374338 0.710756
vt 0.376746 0.707411
vt 0.250497 0.649375
vt 0.249905 0.646643
vt 0.179628 0.903052
vt 0.176385 0.905287
vt 0.268962 0.962003
vt 0.323735 0.962003
vt 0.324674 0.965949
vt 0.268311 0.965949
vt 0.363166 0.815905
vt 0.365469 0.817453
vt 0.338240 0.736232
vt 0.299174 0.697650
vt 0.301580 0.694309
vt 0.341768 0.733999
vt 0.323735 0.690055
vt 0.324673 0.686110
vt 0.210933 0.665560
vt 0.209324 0.663244
vt 0.081635 0.841202
vt 0.102777 0.891611
vt 0.099539 0.893844
vt 0.077789 0.841986
vt 0.180588 0.802035
vt 0.213613 0.834651
vt 0.211802 0.837260
vt 0.177899 0.803778
vt 0.218358 0.941302
vt 0.216239 0.944647
vt 0.248132 0.676771
vt 0.249071 0.672829
vt 0.397518 0.713294
vt 0.379645 0.670679
vt 0.382240 0.668936
vt 0.400587 0.712682
vt 0.374338 0.941302
vt 0.376746 0.944647
vt 0.141843 0.930192
vt 0.139727 0.933533
vt 0.256764 0.852303
vt 0.256097 0.855380
vt 0.268961 0.690055
vt 0.268311 0.686110
vt 0.346619 0.638063
vt 0.348337 0.635454
vt 0.248132 0.951072
vt 0.299174 0.930192
vt 0.301579 0.933534
vt 0.249071 0.955014
vt 0.256764 0.620411
vt 0.213614 0.638063
vt 0.211802 0.635454
vt 0.256097 0.617334
vt 0.192885 0.676770
vt 0.192236 0.672829
vt 0.413069 0.903052
vt 0.416600 0.905287
vt 0.303469 0.852303
vt 0.304042 0.855380
vt 0.192885 0.951072
vt 0.192236 0.955014
vt 0.218358 0.710756
vt 0.216239 0.707411
vt 0.303469 0.620411
vt 0.304042 0.617334
vt 0.338239 0.891611
vt 0.341768 0.893844
vt 0.180588 0.670679
vt 0.177899 0.668936
vt 0.141843 0.697650
vt 0.139727 0.694309
vt 0.346619 0.834651
vt 0.348337 0.837260
vt 0.359382 0.841202
vt 0.363518 0.841986
vt 0.162714 0.713294
vt 0.159552 0.712682
vt 0.102778 0.736232
vt 0.099539 0.733999
vt 0.379645 0.802035
vt 0.382240 0.803778
vt 0.359382 0.786640
vt 0.363518 0.785856
vt 0.208771 0.886779
vt 0.206653 0.890123
vt 0.162714 0.759420
vt 0.159552 0.760032
vt 0.081635 0.786640
vt 0.077789 0.785856
vt 0.418667 0.679487
vt 0.422198 0.677252
vt 0.397518 0.759420
vt 0.400587 0.760032
vt 0.263321 0.909094
vt 0.262671 0.913039
vt 0.376916 0.638254
vt 0.379323 0.634909
vt 0.208772 0.638254
vt 0.206653 0.634909
s 1
usemtl wood
f 2/1/1 1/2/2 113/3/2 114/4/1
f 15/5/3 14/6/4 126/7/4 127/8/3
f 178/9/5 109/10/5 108/11/6 191/12/6
f 179/13/7 103/14/7 102/15/8 177/16/8
f 180/17/9 110/18/9 109/10/5 178/9/5
f 181/16/10 104/15/10 103/14/7 179/13/7
f 182/19/11 111/20/11 110/18/9 180/17/9
f 183/21/12 98/22/12 97/23/13 192/24/13
f 184/25/14 105/26/14 104/15/10 181/16/10
f 185/27/15 112/28/15 111/29/11 182/30/11
f 186/13/16 99/14/16 98/22/12 183/21/12
f 187/31/17 106/32/17 105/26/14 184/25/14
f 192/24/13 97/23/13 112/28/15 185/27/15
f 188/33/18 100/34/18 99/35/16 186/36/16
f 189/37/19 107/38/19 106/32/17 187/31/17
f 190/39/20 101/23/20 100/34/18 188/33/18
f 191/12/6 108/11/6 107/40/19 189/41/19
f 174/42/21 161/43/22 35/44/23 33/45/24
f 173/50/27 175/51/28 34/52/29 48/53/30
f 172/54/31 174/42/21 33/45/24 47/55/32
f 171/56/33 173/57/27 48/58/30 46/59/34
f 170/60/35 172/54/31 47/55/32 45/61/36
f 169/62/37 176/63/38 40/64/39 44/65/40
f 168/66/41 171/56/33 46/59/34 43/67/42
f 167/68/43 170/69/35 45/70/36 42/71/44
f 166/72/45 169/62/37 44/65/40 41/73/46
f 165/43/47 168/66/41 43/67/42 39/44/48
f 176/63/38 167/68/43 42/71/44 40/64/39
f 164/74/49 166/75/45 41/76/46 38/77/50
f 163/69/51 165/43/47 39/44/48 37/70/52
f 162/78/53 164/74/49 38/77/50 36/79/54
f 161/43/22 163/69/51 37/70/52 35/44/23
f 175/51/28 162/78/53 36/79/54 34/52/29
f 212/80/55 68/81/55 65/82/56 209/83/56
f 213/134/78 69/135/78 66/136/79 210/137/79
f 214/138/80 70/139/80 68/81/55 212/80/55
f 215/140/81 71/141/81 69/135/78 213/134/78
f 216/80/82 72/81/82 70/139/80 214/138/80
f 217/142/83 73/143/83 71/141/81 215/140/81
f 218/144/84 74/145/84 67/146/85 211/147/85
f 219/148/86 75/149/86 72/81/82 216/80/82
f 220/150/87 76/151/87 73/152/83 217/153/83
f 221/138/88 77/139/88 74/145/84 218/144/84
f 222/154/89 78/155/89 75/149/86 219/148/86
f 211/147/85 67/146/85 76/151/87 220/150/87
f 223/156/90 79/157/90 77/158/88 221/159/88
f 224/160/91 80/161/91 78/155/89 222/154/89
f 209/83/56 65/82/56 79/157/90 223/156/90
f 210/137/79 66/136/79 80/162/91 224/163/91
f 1/164/92 2/165/92 82/166/92 81/167/92
f 2/168/92 3/169/92 83/170/92 82/171/92
f 3/172/92 4/173/92 84/174/92 83/175/92
f 4/176/92 5/177/92 85/178/92 84/179/92
f 5/180/92 6/181/92 86/182/92 85/183/92
f 6/184/92 7/185/92 87/186/92 86/187/92
f 7/188/92 8/189/92 88/190/92 87/191/92
f 8/192/92 9/193/92 89/194/92 88/195/92
f 9/196/92 10/197/92 90/198/92 89/199/92
f 10/200/92 11/201/92 91/202/92 90/203/92
f 11/204/92 12/205/92 92/206/92 91/207/92
f 12/208/92 13/209/92 93/210/92 92/211/92
f 13/212/92 14/213/92 94/214/92 93/215/92
f 14/216/92 15/217/92 95/218/92 94/219/92
f 15/220/92 16/221/92 96/222/92 95/223/92
f 16/224/92 1/225/92 81/226/92 96/227/92
f 18/228/93 17/229/93 97/230/93 98/231/93
f 19/232/93 18/233/93 98/234/93 99/235/93
f 20/236/93 19/237/93 99/238/93 100/239/93
f 21/240/93 20/241/93 100/242/93 101/243/93
f 22/244/93 21/245/93 101/246/93 102/247/93
f 23/248/93 22/249/93 102/250/93 103/251/93
f 24/252/93 23/253/93 103/254/93 104/255/93
f 25/256/93 24/257/93 104/258/93 105/259/93
f 26/260/93 25/261/93 105/262/93 106/263/93
f 27/264/93 26/265/93 106/266/93 107/267/93
f 28/268/93 27/269/93 107/270/93 108/271/93
f 29/272/93 28/273/93 108/274/93 109/275/93
f 30/276/93 29/277/93 109/278/93 110/279/93
f 31/280/93 30/281/93 110/282/93 111/283/93
f 32/284/93 31/285/93 111/286/93 112/287/93
f 17/288/93 32/289/93 112/290/93 97/291/93
f 27/292/94 28/293/95 140/294/95 139/295/94
f 113/296/92 128/297/92 127/298/92 126/299/92 125/300/92 124/301/92 123/302/92 122/303/92 121/304/92 120/305/92 119/306/92 118/307/92 117/308/92 116/309/92 115/310/92 114/311/92
f 129/312/93 130/313/93 131/314/93 132/315/93 133/316/93 134/317/93 135/318/93 136/319/93 137/320/93 138/321/93 139/322/93 140/323/93 141/324/93 142/325/93 143/326/93 144/327/93
f 28/328/95 29/329/96 141/330/96 140/331/95
f 16/332/97 15/5/3 127/8/3 128/333/97
f 3/334/98 2/1/1 114/4/1 115/335/98
f 29/336/96 30/337/99 142/338/99 141/339/96
f 1/2/2 16/332/97 128/333/97 113/3/2
f 4/340/100 3/334/98 115/335/98 116/341/100
f 30/342/99 31/343/101 143/344/101 142/345/99
f 17/346/102 18/347/103 130/348/103 129/349/102
f 5/350/104 4/340/100 116/341/100 117/351/104
f 31/352/101 32/353/105 144/354/105 143/355/101
f 18/356/103 19/357/106 131/358/106 130/359/103
f 6/360/107 5/350/104 117/351/104 118/361/107
f 32/362/105 17/363/102 129/364/102 144/365/105
f 19/366/106 20/367/108 132/368/108 131/369/106
f 7/370/109 6/360/107 118/361/107 119/371/109
f 20/372/108 21/373/110 133/374/110 132/375/108
f 8/376/111 7/377/109 119/378/109 120/379/111
f 21/380/110 22/381/112 134/382/112 133/383/110
f 9/384/113 8/376/111 120/379/111 121/385/113
f 22/386/112 23/387/114 135/388/114 134/389/112
f 10/390/115 9/384/113 121/385/113 122/391/115
f 23/392/114 24/393/116 136/394/116 135/395/114
f 11/396/117 10/390/115 122/391/115 123/397/117
f 24/398/116 25/399/118 137/400/118 136/401/116
f 12/402/119 11/396/117 123/397/117 124/403/119
f 25/404/118 26/405/120 138/406/120 137/407/118
f 13/408/121 12/402/119 124/403/119 125/409/121
f 26/410/120 27/411/94 139/412/94 138/413/120
f 14/6/4 13/408/121 125/409/121 126/7/4
f 35/44/23 148/414/122 145/415/123 33/45/24
f 36/79/54 149/416/124 146/417/125 34/52/29
f 37/70/52 150/418/126 148/414/122 35/44/23
f 38/77/50 151/419/127 149/416/124 36/79/54
f 39/44/48 152/414/128 150/418/126 37/70/52
f 41/76/46 153/420/129 151/419/127 38/77/50
f 42/71/44 154/421/130 147/422/131 40/64/39
f 43/67/42 155/423/132 152/414/128 39/44/48
f 44/65/40 156/424/133 153/425/129 41/73/46
f 45/70/36 157/418/134 154/421/130 42/71/44
f 46/59/34 158/426/135 155/423/132 43/67/42
f 40/64/39 147/422/131 156/424/133 44/65/40
f 47/55/32 159/427/136 157/428/134 45/61/36
f 48/58/30 160/429/137 158/426/135 46/59/34
f 33/45/24 145/415/123 159/427/136 47/55/32
f 34/52/29 146/417/125 160/430/137 48/53/30
f 49/461/147 196/462/147 193/463/148 62/464/148
f 50/497/163 197/498/163 194/499/164 63/500/164
f 51/501/165 198/502/165 196/462/147 49/461/147
f 52/503/166 199/504/166 197/498/163 50/497/163
f 53/461/167 200/462/167 198/502/165 51/501/165
f 54/505/168 201/506/168 199/504/166 52/503/166
f 55/507/169 202/508/169 195/509/170 64/510/170
f 56/511/171 203/512/171 200/462/167 53/461/167
f 57/513/172 204/514/172 201/515/168 54/516/168
f 58/501/173 205/502/173 202/508/169 55/507/169
f 59/517/174 206/518/174 203/512/171 56/511/171
f 64/510/170 195/509/170 204/514/172 57/513/172
f 60/519/175 207/520/175 205/521/173 58/522/173
f 61/523/176 208/524/176 206/518/174 59/517/174
f 62/464/148 193/463/148 207/520/175 60/519/175
f 63/500/164 194/499/164 208/525/176 61/526/176
f 85/529/178 86/530/179 228/531/179 225/532/178
f 92/567/197 93/568/198 229/569/198 226/570/197
f 86/571/179 87/572/199 230/573/199 228/574/179
f 93/568/198 94/575/200 231/576/200 229/569/198
f 87/572/199 88/577/201 232/578/201 230/573/199
f 94/579/200 95/580/202 233/581/202 231/582/200
f 81/529/203 82/583/204 234/584/204 227/585/203
f 88/530/201 89/586/205 235/587/205 232/531/201
f 95/580/202 96/588/206 236/589/206 233/581/202
f 82/590/204 83/591/207 237/592/207 234/593/204
f 89/586/205 90/594/208 238/595/208 235/587/205
f 96/596/206 81/529/203 227/585/203 236/597/206
f 83/591/207 84/598/209 239/599/209 237/592/207
f 90/600/208 91/601/210 240/602/210 238/603/208
f 84/604/209 85/529/178 225/532/178 239/605/209
f 91/601/210 92/606/197 226/607/197 240/602/210
f 177/16/8 102/15/8 101/23/20 190/39/20
usemtl metal
f 79/46/25 65/47/26 271/48/26 287/49/25
f 153/84/57 156/85/58 257/86/58 251/87/57
f 228/88/59 230/89/60 341/90/60 337/91/59
f 207/92/61 193/93/62 334/94/62 327/95/61
f 78/96/63 80/97/64 288/98/64 286/99/63
f 152/100/65 155/101/66 255/102/66 249/103/65
f 226/104/67 229/105/68 339/106/68 367/107/67
f 206/108/69 208/109/70 329/110/70 325/111/69
f 77/112/71 79/46/25 287/49/25 285/113/71
f 147/114/72 154/115/63 253/116/63 291/117/72
f 225/118/73 228/88/59 337/91/59 366/119/73
f 205/120/74 207/92/61 327/95/61 323/121/74
f 76/122/65 67/123/66 275/124/66 284/125/65
f 151/126/75 153/84/57 251/87/57 247/127/75
f 204/128/76 195/129/77 336/130/77 321/131/76
f 75/132/72 78/96/63 286/99/63 283/133/72
f 150/431/138 152/100/65 249/103/65 245/432/138
f 203/433/139 206/108/69 325/111/69 319/434/139
f 74/435/140 77/112/71 285/113/71 282/436/140
f 149/437/26 151/126/75 247/127/75 243/438/26
f 202/439/141 205/120/74 323/121/74 317/440/141
f 73/441/138 76/122/65 284/125/65 281/442/138
f 148/443/142 150/431/138 245/432/138 241/444/142
f 201/445/143 204/128/76 321/131/76 315/446/143
f 72/447/58 75/132/72 283/133/72 280/448/58
f 146/449/25 149/437/26 243/438/26 290/450/25
f 200/451/144 203/433/139 319/434/139 313/452/144
f 67/123/66 74/435/140 282/436/140 275/124/66
f 145/453/145 148/443/142 241/444/142 289/454/145
f 195/129/77 202/439/141 317/440/141 336/130/77
f 71/455/142 73/441/138 281/442/138 279/456/142
f 199/457/146 201/445/143 315/446/143 311/458/146
f 70/459/57 72/447/58 280/448/58 278/460/57
f 198/465/149 200/451/144 313/452/144 309/466/149
f 69/467/145 71/455/142 279/456/142 277/468/145
f 197/469/150 199/457/146 311/458/146 307/470/150
f 68/471/75 70/459/57 278/460/57 276/472/75
f 175/473/151 173/474/152 304/475/152 272/476/151
f 196/477/153 198/465/149 309/466/149 305/478/153
f 66/479/154 69/467/145 277/468/145 273/480/154
f 174/481/155 172/482/156 303/483/156 270/484/155
f 194/485/157 197/469/150 307/470/150 335/486/157
f 65/47/26 68/471/75 276/472/75 271/48/26
f 173/474/152 171/487/158 302/488/158 304/475/152
f 193/93/62 196/477/153 305/478/153 334/94/62
f 172/482/156 170/489/159 301/490/159 303/483/156
f 176/491/160 169/492/161 300/493/161 274/494/160
f 171/487/158 168/495/162 299/496/162 302/488/158
f 170/489/159 167/527/177 298/528/177 301/490/159
f 212/533/180 209/534/181 364/535/181 338/536/180
f 169/492/161 166/537/182 297/538/182 300/493/161
f 213/539/183 210/540/184 363/541/184 340/542/183
f 168/495/162 165/543/185 296/544/185 299/496/162
f 214/545/186 212/533/180 338/536/180 342/546/186
f 167/527/177 176/491/160 274/494/160 298/528/177
f 215/547/187 213/539/183 340/542/183 344/548/187
f 166/537/182 164/549/188 295/550/188 297/538/182
f 216/551/189 214/545/186 342/546/186 346/552/189
f 165/543/185 163/553/190 294/554/190 296/544/185
f 217/555/191 215/547/187 344/548/187 348/556/191
f 164/549/188 162/557/192 293/558/192 295/550/188
f 218/559/193 211/560/194 365/561/194 350/562/193
f 163/553/190 161/563/195 292/564/195 294/554/190
f 219/565/196 216/551/189 346/552/189 352/566/196
f 289/608/211 241/609/212 242/610/212 268/611/211
f 265/612/213 290/613/214 267/614/214 266/615/213
f 263/616/215 289/608/211 268/611/211 264/617/215
f 261/618/216 265/619/213 266/620/213 262/621/216
f 259/622/217 263/616/215 264/617/215 260/623/217
f 257/624/218 291/625/219 269/626/219 258/627/218
f 255/628/220 261/618/216 262/621/216 256/629/220
f 253/630/221 259/631/217 260/632/217 254/633/221
f 251/634/222 257/624/218 258/627/218 252/635/222
f 249/609/223 255/628/220 256/629/220 250/610/223
f 291/625/219 253/630/221 254/633/221 269/626/219
f 247/636/224 251/637/222 252/638/222 248/639/224
f 245/631/225 249/609/223 250/610/223 246/632/225
f 243/640/226 247/636/224 248/639/224 244/641/226
f 241/609/212 245/631/225 246/632/225 242/610/212
f 290/613/214 243/640/226 244/641/226 267/614/214
f 271/642/227 276/643/228 292/644/228 270/645/227
f 273/646/229 277/647/230 293/648/230 272/649/229
f 276/643/228 278/650/231 294/651/231 292/644/228
f 277/647/230 279/652/232 295/653/232 293/648/230
f 278/650/231 280/643/233 296/644/233 294/651/231
f 279/652/232 281/654/234 297/655/234 295/653/232
f 275/656/235 282/657/236 298/658/236 274/659/235
f 280/643/233 283/660/237 299/661/237 296/644/233
f 281/662/234 284/663/238 300/664/238 297/665/234
f 282/657/236 285/650/239 301/651/239 298/658/236
f 283/660/237 286/666/240 302/667/240 299/661/237
f 284/663/238 275/656/235 274/659/235 300/664/238
f 285/668/239 287/669/241 303/670/241 301/671/239
f 286/666/240 288/672/242 304/673/242 302/667/240
f 287/669/241 271/642/227 270/645/227 303/670/241
f 288/674/242 273/646/229 272/649/229 304/675/242
f 334/676/243 305/677/244 306/678/244 332/679/243
f 329/680/245 335/681/246 331/682/246 330/683/245
f 327/684/247 334/676/243 332/679/243 328/685/247
f 325/686/248 329/687/245 330/688/245 326/689/248
f 323/690/249 327/684/247 328/685/247 324/691/249
f 321/692/250 336/693/251 333/694/251 322/695/250
f 319/696/252 325/686/248 326/689/248 320/697/252
f 317/698/253 323/699/249 324/700/249 318/701/253
f 315/702/254 321/692/250 322/695/250 316/703/254
f 313/677/255 319/696/252 320/697/252 314/678/255
f 336/693/251 317/698/253 318/701/253 333/694/251
f 311/704/256 315/705/254 316/706/254 312/707/256
f 309/699/257 313/677/255 314/678/255 310/700/257
f 307/708/258 311/704/256 312/707/256 308/709/258
f 305/677/244 309/699/257 310/700/257 306/678/244
f 335/681/246 307/708/258 308/709/258 331/682/246
f 366/710/259 337/711/260 338/712/260 364/713/259
f 361/714/261 367/715/262 363/716/262 362/717/261
f 359/718/263 366/710/259 364/713/259 360/719/263
f 357/720/264 361/721/261 362/722/261 358/723/264
f 355/724/265 359/718/263 360/719/263 356/725/265
f 353/726/266 368/727/267 365/728/267 354/729/266
f 351/730/268 357/720/264 358/723/264 352/731/268
f 349/732/269 355/733/265 356/734/265 350/735/269
f 347/736/270 353/726/266 354/729/266 348/737/270
f 345/711/271 351/730/268 352/731/268 346/712/271
f 368/727/267 349/732/269 350/735/269 365/728/267
f 343/738/272 347/739/270 348/740/270 344/741/272
f 341/733/273 345/711/271 346/712/271 342/734/273
f 339/742/274 343/738/272 344/741/272 340/743/274
f 337/711/260 341/733/273 342/734/273 338/712/260
f 367/715/262 339/742/274 340/743/274 363/716/262
f 208/109/70 194/485/157 335/486/157 329/110/70
f 229/105/68 231/744/275 343/745/275 339/106/68
f 154/115/63 157/746/64 259/747/64 253/116/63
f 80/97/64 66/479/154 273/480/154 288/98/64
f 230/89/60 232/748/276 345/749/276 341/90/60
f 155/101/66 158/750/140 261/751/140 255/102/66
f 231/744/275 233/752/277 347/753/277 343/745/275
f 156/85/58 147/114/72 291/117/72 257/86/58
f 227/754/278 234/755/279 349/756/279 368/757/278
f 157/746/64 159/758/154 263/759/154 259/747/64
f 191/760/280 189/761/281 330/762/281 331/763/280
f 232/748/276 235/764/282 351/765/282 345/749/276
f 158/750/140 160/766/71 265/767/71 261/751/140
f 190/768/283 188/769/284 328/770/284 332/771/283
f 63/772/156 61/773/159 266/774/159 267/775/156
f 233/752/277 236/776/285 353/777/285 347/753/277
f 159/758/154 145/453/145 289/454/145 263/759/154
f 189/761/281 187/778/286 326/779/286 330/762/281
f 62/780/192 60/781/151 264/782/151 268/783/192
f 234/755/279 237/784/287 355/785/287 349/756/279
f 160/766/71 146/449/25 290/450/25 265/767/71
f 188/769/284 186/786/288 324/787/288 328/770/284
f 61/773/159 59/788/177 262/789/177 266/774/159
f 235/764/282 238/790/289 357/791/289 351/765/282
f 60/781/151 58/792/152 260/793/152 264/782/151
f 192/794/290 185/795/291 322/796/291 333/797/290
f 236/776/285 227/754/278 368/757/278 353/777/285
f 64/798/162 57/799/185 258/800/185 269/801/162
f 187/778/286 184/802/292 320/803/292 326/779/286
f 237/784/287 239/804/293 359/805/293 355/785/287
f 59/788/177 56/806/160 256/807/160 262/789/177
f 186/786/288 183/808/294 318/809/294 324/787/288
f 238/790/289 240/810/295 361/811/295 357/791/289
f 58/792/152 55/812/158 254/813/158 260/793/152
f 185/795/291 182/814/296 316/815/296 322/796/291
f 239/804/293 225/118/73 366/119/73 359/805/293
f 57/799/185 54/816/190 252/817/190 258/800/185
f 184/802/292 181/818/297 314/819/297 320/803/292
f 240/810/295 226/104/67 367/107/67 361/811/295
f 56/806/160 53/820/161 250/821/161 256/807/160
f 183/808/294 192/794/290 333/797/290 318/809/294
f 55/812/158 64/798/162 269/801/162 254/813/158
f 182/814/296 180/822/298 312/823/298 316/815/296
f 54/816/190 52/824/195 248/825/195 252/817/190
f 181/818/297 179/826/299 310/827/299 314/819/297
f 53/820/161 51/828/182 246/829/182 250/821/161
f 180/822/298 178/830/300 308/831/300 312/823/298
f 210/540/184 224/832/301 362/833/301 363/541/184
f 52/824/195 50/834/155 244/835/155 248/825/195
f 179/826/299 177/836/302 306/837/302 310/827/299
f 209/534/181 223/838/303 360/839/303 364/535/181
f 51/828/182 49/840/188 242/841/188 246/829/182
f 178/830/300 191/760/280 331/763/280 308/831/300
f 224/832/301 222/842/304 358/843/304 362/833/301
f 50/834/155 63/772/156 267/775/156 244/835/155
f 177/836/302 190/768/283 332/771/283 306/837/302
f 223/838/303 221/844/305 356/845/305 360/839/303
f 49/840/188 62/780/192 268/783/192 242/841/188
f 211/560/194 220/846/306 354/847/306 365/561/194
f 222/842/304 219/565/196 352/566/196 358/843/304
f 221/844/305 218/559/193 350/562/193 356/845/305
f 161/563/195 174/481/155 270/484/155 292/564/195
f 220/846/306 217/555/191 348/556/191 354/847/306
f 162/557/192 175/473/151 272/476/151 293/558/192
