# Blender 4.5.3 LTS
# www.blender.org
mtllib arena_wall_col.mtl
o Wall
v -181.351410 -192.212860 -25.901419
v -181.875763 -192.212860 21.918341
v -170.005615 -192.212860 68.244423
v -168.468231 -192.212860 -71.956047
v -146.549866 -192.212845 109.919739
v -144.104202 -192.212875 -113.106987
v -113.106987 -192.212845 144.104233
v -109.919716 -192.212875 -146.549866
v -71.956047 -192.212845 168.468231
v -68.244400 -192.212875 -170.005615
v -25.901419 -192.212845 181.351410
v -21.918341 -192.212875 -181.875763
v 21.918341 -192.212845 181.875778
v 25.901419 -192.212875 -181.351379
v 68.244400 -192.212845 170.005646
v 71.956047 -192.212875 -168.468201
v 109.919716 -192.212845 146.549881
v 113.106987 -192.212875 -144.104172
v 144.104202 -192.212845 113.106995
v 146.549881 -192.212875 -109.919716
v 168.468231 -192.212860 71.956062
v 170.005615 -192.212860 -68.244400
v 181.351410 -192.212860 25.901442
v 181.875763 -192.212860 -21.918318
v 25.901419 199.817108 -181.351379
v -21.918341 199.817108 -181.875763
v 71.956047 199.817108 -168.468201
v 113.106987 199.817108 -144.104172
v 146.549881 199.817108 -109.919724
v 170.005615 199.817123 -68.244408
v 181.875763 199.817123 -21.918322
v 181.351410 199.817123 25.901438
v 168.468231 199.817123 71.956055
v 144.104202 199.817123 113.106987
v 109.919716 199.817139 146.549881
v 68.244400 199.817123 170.005646
v 21.918341 199.817123 181.875778
v -25.901419 199.817123 181.351410
v -71.956047 199.817123 168.468231
v -113.106987 199.817139 144.104233
v -146.549866 199.817123 109.919731
v -170.005615 199.817123 68.244415
v -181.875763 199.817123 21.918339
v -181.351410 199.817123 -25.901423
v -168.468231 199.817123 -71.956055
v -144.104202 199.817108 -113.106995
v -109.919716 199.817108 -146.549866
v -68.244400 199.817108 -170.005615
vn -0.1414 -0.0000 0.9900
vn 0.1196 -0.0000 0.9928
vn -0.3928 -0.0000 0.9196
vn -0.6174 -0.0000 0.7866
vn -0.8000 -0.0000 0.6000
vn -0.9280 -0.0000 0.3725
vn -0.9928 -0.0000 0.1196
vn -0.9900 -0.0000 -0.1414
vn -0.9196 -0.0000 -0.3928
vn -0.7866 -0.0000 -0.6174
vn -0.6000 -0.0000 -0.8000
vn -0.3725 -0.0000 -0.9280
vn -0.1196 -0.0000 -0.9928
vn 0.1414 -0.0000 -0.9900
vn 0.3928 -0.0000 -0.9196
vn 0.6174 -0.0000 -0.7866
vn 0.8000 -0.0000 -0.6000
vn 0.9280 -0.0000 -0.3725
vn 0.9928 -0.0000 -0.1196
vn 0.9900 -0.0000 0.1414
vn 0.9196 -0.0000 0.3928
vn 0.7866 -0.0000 0.6174
vn 0.6000 -0.0000 0.8000
vn 0.3725 -0.0000 0.9280
vt 1.000000 0.000000
vt 0.000000 1.000000
vt 0.000000 0.000000
vt 1.000000 1.000000
vt 0.000023 0.000035
vt 1.000060 1.000060
vt 0.000008 1.000002
vt 0.999961 0.999998
vt 0.000000 1.000018
vt 0.999953 1.000044
vt 0.000000 1.000070
vt 0.999941 1.000030
vt 0.000000 1.000001
vt 0.999990 0.999979
vt 0.000000 1.000011
vt 0.000000 0.999997
vt 1.000010 0.000000
vt 0.000000 0.999992
vt 0.000000 0.999993
vt 0.999993 0.000000
vt 0.000000 0.999078
vt 0.000023 0.000037
vt 1.000027 -0.000027
vt 1.000037 1.000016
vt 0.999932 0.000000
vt 1.000018 0.999989
vt 1.000261 0.000000
vt 0.999892 1.000000
vt 1.000015 0.999969
vt 0.999939 0.000000
vt 1.000006 0.999975
vt 1.000023 0.000000
vt 0.999969 0.999969
vt 1.000005 0.000000
vt 1.000005 0.999996
vt 0.000000 0.999998
vt 1.000006 0.000000
s 1
usemtl Material
f 14/1/1 26/2/2 12/3/2
f 16/1/3 25/2/1 14/3/1
f 18/1/4 27/2/3 16/3/3
f 29/4/5 18/3/4 20/1/5
f 30/4/6 20/3/5 22/1/6
f 31/4/7 22/3/6 24/1/7
f 32/4/8 24/3/7 23/1/8
f 33/4/9 23/3/8 21/1/9
f 34/4/10 21/3/9 19/1/10
f 17/1/11 34/2/10 19/3/10
f 15/1/12 35/2/11 17/3/11
f 13/1/13 36/2/12 15/3/12
f 11/1/14 37/2/13 13/3/13
f 9/1/15 38/2/14 11/3/14
f 7/1/16 39/2/15 9/3/15
f 7/5/16 41/6/17 40/7/16
f 5/8/17 42/3/18 41/9/17
f 3/3/18 43/10/19 42/11/18
f 2/3/19 44/12/20 43/13/19
f 1/3/20 45/14/21 44/15/20
f 4/3/21 46/4/22 45/16/21
f 8/17/23 46/18/22 6/3/22
f 10/1/24 47/19/23 8/3/23
f 12/20/2 48/21/24 10/3/24
f 14/1/1 25/4/1 26/2/2
f 16/1/3 27/4/3 25/2/1
f 18/1/4 28/4/4 27/2/3
f 29/4/5 28/2/4 18/3/4
f 30/4/6 29/2/5 20/3/5
f 31/4/7 30/2/6 22/3/6
f 32/4/8 31/2/7 24/3/7
f 33/4/9 32/2/8 23/3/8
f 34/4/10 33/2/9 21/3/9
f 17/1/11 35/4/11 34/2/10
f 15/1/12 36/4/12 35/2/11
f 13/1/13 37/4/13 36/2/12
f 11/1/14 38/4/14 37/2/13
f 9/1/15 39/4/15 38/2/14
f 7/1/16 40/4/16 39/2/15
f 7/22/16 5/23/17 41/24/17
f 5/3/17 3/25/18 42/26/18
f 3/3/18 2/27/19 43/28/19
f 2/3/19 1/1/20 44/29/20
f 1/3/20 4/30/21 45/31/21
f 4/3/21 6/32/22 46/33/22
f 8/34/23 47/35/23 46/36/22
f 10/37/24 48/4/24 47/2/23
f 12/1/2 26/4/2 48/2/24
