# Blender 4.0.2
# www.blender.org
mtllib Skybox2.mtl
o uploads_files_3767630_skybox
v 3.246603 -20.525553 -1.054877
v 2.761726 -20.525553 -2.006503
v 2.006512 -20.525553 -2.761717
v 1.054887 -20.525553 -3.246593
v 0.000002 -20.525553 -3.413670
v -1.054882 -20.525553 -3.246593
v -2.006506 -20.525553 -2.761717
v -2.761720 -20.525553 -2.006503
v -3.246596 -20.525553 -1.054876
v -3.413674 -20.525553 0.000008
v -3.246596 -20.525553 1.054892
v -2.761720 -20.525553 2.006515
v -2.006506 -20.525553 2.761727
v -1.054881 -20.525553 3.246604
v 0.000002 -20.525553 3.413682
v 1.054886 -20.525553 3.246604
v 2.006510 -20.525553 2.761727
v 2.761724 -20.525553 2.006515
v 3.246601 -20.525553 1.054891
v 3.413678 -20.525553 0.000008
v 6.413261 -19.726183 -2.083788
v 5.455446 -19.726183 -3.963605
v 3.963614 -19.726183 -5.455437
v 2.083796 -19.726183 -6.413250
v 0.000002 -19.726183 -6.743290
v -2.083791 -19.726183 -6.413249
v -3.963608 -19.726183 -5.455436
v -5.455439 -19.726183 -3.963603
v -6.413253 -19.726183 -2.083786
v -6.743293 -19.726183 0.000006
v -6.413253 -19.726183 2.083799
v -5.455438 -19.726183 3.963616
v -3.963607 -19.726183 5.455446
v -2.083791 -19.726183 6.413261
v 0.000002 -19.726183 6.743301
v 2.083795 -19.726183 6.413261
v 3.963611 -19.726183 5.455446
v 5.455442 -19.726183 3.963615
v 6.413257 -19.726183 2.083798
v 6.743297 -19.726183 0.000006
v 9.422004 -18.415785 -3.061387
v 8.014835 -18.415785 -5.823111
v 5.823119 -18.415785 -8.014827
v 3.061396 -18.415785 -9.421994
v 0.000002 -18.415785 -9.906871
v -3.061391 -18.415785 -9.421993
v -5.823113 -18.415785 -8.014824
v -8.014827 -18.415785 -5.823109
v -9.421994 -18.415785 -3.061386
v -9.906872 -18.415785 0.000006
v -9.421994 -18.415785 3.061399
v -8.014826 -18.415785 5.823122
v -5.823112 -18.415785 8.014832
v -3.061390 -18.415785 9.422002
v 0.000002 -18.415785 9.906879
v 3.061394 -18.415785 9.422001
v 5.823115 -18.415785 8.014832
v 8.014830 -18.415785 5.823120
v 9.421997 -18.415785 3.061397
v 9.906875 -18.415785 0.000006
v 12.198744 -16.626629 -3.963605
v 10.376872 -16.626629 -7.539230
v 7.539239 -16.626629 -10.376863
v 3.963613 -16.626629 -12.198734
v 0.000002 -16.626633 -12.826509
v -3.963608 -16.626629 -12.198733
v -7.539233 -16.626629 -10.376861
v -10.376863 -16.626629 -7.539227
v -12.198734 -16.626629 -3.963604
v -12.826508 -16.626629 0.000006
v -12.198734 -16.626629 3.963615
v -10.376863 -16.626629 7.539239
v -7.539231 -16.626629 10.376870
v -3.963607 -16.626629 12.198741
v 0.000002 -16.626625 12.826515
v 3.963611 -16.626629 12.198741
v 7.539234 -16.626629 10.376869
v 10.376866 -16.626629 7.539238
v 12.198736 -16.626629 3.963615
v 12.826509 -16.626629 0.000006
v 14.675112 -14.402768 -4.768226
v 12.483397 -14.402770 -9.069711
v 9.069718 -14.402770 -12.483387
v 4.768234 -14.402770 -14.675102
v 0.000002 -14.402770 -15.430316
v -4.768229 -14.402770 -14.675101
v -9.069712 -14.402770 -12.483384
v -12.483386 -14.402770 -9.069708
v -14.675101 -14.402768 -4.768224
v -15.430314 -14.402768 0.000006
v -14.675101 -14.402768 4.768236
v -12.483386 -14.402766 9.069715
v -9.069710 -14.402766 12.483393
v -4.768228 -14.402766 14.675107
v 0.000002 -14.402766 15.430320
v 4.768231 -14.402766 14.675107
v 9.069712 -14.402766 12.483392
v 12.483389 -14.402766 9.069715
v 14.675103 -14.402768 4.768235
v 15.430315 -14.402768 0.000006
v 16.790129 -11.798964 -5.455437
v 14.282538 -11.798966 -10.376863
v 10.376871 -11.798966 -14.282529
v 5.455444 -11.798966 -16.790121
v 0.000002 -11.798966 -17.654177
v -5.455440 -11.798966 -16.790119
v -10.376864 -11.798966 -14.282526
v -14.282528 -11.798966 -10.376861
v -16.790119 -11.798964 -5.455435
v -17.654175 -11.798964 0.000006
v -16.790119 -11.798964 5.455446
v -14.282527 -11.798962 10.376871
v -10.376863 -11.798962 14.282534
v -5.455438 -11.798962 16.790123
v 0.000002 -11.798962 17.654181
v 5.455442 -11.798962 16.790123
v 10.376866 -11.798962 14.282533
v 14.282530 -11.798962 10.376869
v 16.790119 -11.798964 5.455445
v 17.654177 -11.798964 0.000006
v 18.491720 -8.879328 -6.008317
v 15.729997 -8.879330 -11.428503
v 11.428512 -8.879330 -15.729987
v 6.008325 -8.879330 -18.491711
v 0.000002 -8.879332 -19.443335
v -6.008319 -8.879330 -18.491711
v -11.428504 -8.879330 -15.729983
v -15.729985 -8.879330 -11.428499
v -18.491707 -8.879328 -6.008317
v -19.443331 -8.879328 0.000006
v -18.491707 -8.879328 6.008326
v -15.729985 -8.879326 11.428511
v -11.428502 -8.879326 15.729992
v -6.008318 -8.879326 18.491711
v 0.000002 -8.879324 19.443335
v 6.008321 -8.879326 18.491709
v 11.428505 -8.879326 15.729991
v 15.729986 -8.879326 11.428510
v 18.491707 -8.879328 6.008325
v 19.443331 -8.879328 0.000006
v 19.737982 -5.715749 -6.413252
v 16.790129 -5.715751 -12.198738
v 12.198744 -5.715752 -16.790123
v 6.413260 -5.715752 -19.737972
v 0.000002 -5.715752 -20.753733
v -6.413255 -5.715752 -19.737972
v -12.198736 -5.715752 -16.790119
v -16.790119 -5.715751 -12.198734
v -19.737968 -5.715749 -6.413250
v -20.753729 -5.715749 0.000004
v -19.737968 -5.715747 6.413260
v -16.790119 -5.715747 12.198740
v -12.198734 -5.715745 16.790123
v -6.413253 -5.715745 19.737972
v 0.000002 -5.715745 20.753733
v 6.413257 -5.715745 19.737972
v 12.198736 -5.715745 16.790123
v 16.790119 -5.715747 12.198739
v 19.737968 -5.715747 6.413260
v 20.753729 -5.715749 0.000004
v 20.498228 -2.386128 -6.660274
v 17.436834 -2.386130 -12.668596
v 12.668603 -2.386130 -17.436827
v 6.660279 -2.386130 -20.498220
v 0.000002 -2.386132 -21.553102
v -6.660274 -2.386130 -20.498219
v -12.668595 -2.386130 -17.436825
v -17.436825 -2.386130 -12.668592
v -20.498217 -2.386128 -6.660271
v -21.553099 -2.386128 0.000004
v -20.498217 -2.386127 6.660278
v -17.436823 -2.386126 12.668598
v -12.668592 -2.386126 17.436827
v -6.660272 -2.386126 20.498220
v 0.000002 -2.386124 21.553102
v 6.660275 -2.386126 20.498220
v 12.668594 -2.386126 17.436827
v 17.436825 -2.386126 12.668597
v 20.498217 -2.386127 6.660277
v 21.553099 -2.386128 0.000004
v 20.753742 1.027544 -6.743295
v 17.654188 1.027542 -12.826511
v 12.826518 1.027542 -17.654181
v 6.743300 1.027540 -20.753733
v 0.000002 1.027540 -21.821764
v -6.743295 1.027540 -20.753733
v -12.826510 1.027542 -17.654177
v -17.654177 1.027542 -12.826508
v -20.753729 1.027544 -6.743292
v -21.821760 1.027544 0.000004
v -20.753729 1.027544 6.743299
v -17.654175 1.027546 12.826514
v -12.826508 1.027546 17.654181
v -6.743293 1.027548 20.753733
v 0.000002 1.027548 21.821764
v 6.743296 1.027548 20.753733
v 12.826509 1.027546 17.654179
v 17.654177 1.027546 12.826513
v 20.753729 1.027544 6.743298
v 21.821760 1.027544 0.000004
v 20.498228 4.441217 -6.660275
v 17.436834 4.441217 -12.668596
v 12.668603 4.441216 -17.436827
v 6.660279 4.441216 -20.498220
v 0.000002 4.441216 -21.553102
v -6.660274 4.441216 -20.498219
v -12.668595 4.441216 -17.436825
v -17.436825 4.441217 -12.668592
v -20.498217 4.441217 -6.660273
v -21.553099 4.441219 0.000004
v -20.498217 4.441219 6.660276
v -17.436823 4.441221 12.668598
v -12.668592 4.441221 17.436827
v -6.660272 4.441221 20.498220
v 0.000002 4.441221 21.553102
v 6.660275 4.441221 20.498220
v 12.668594 4.441221 17.436827
v 17.436825 4.441221 12.668597
v 20.498217 4.441219 6.660275
v 21.553099 4.441219 0.000004
v 19.737982 7.770836 -6.413254
v 16.790129 7.770836 -12.198740
v 12.198744 7.770834 -16.790123
v 6.413260 7.770834 -19.737972
v 0.000002 7.770834 -20.753733
v -6.413255 7.770834 -19.737972
v -12.198736 7.770834 -16.790119
v -16.790119 7.770836 -12.198736
v -19.737968 7.770836 -6.413252
v -20.753729 7.770838 0.000002
v -19.737968 7.770838 6.413260
v -16.790119 7.770840 12.198738
v -12.198734 7.770841 16.790123
v -6.413253 7.770841 19.737972
v 0.000002 7.770841 20.753733
v 6.413257 7.770841 19.737972
v 12.198736 7.770841 16.790123
v 16.790119 7.770840 12.198737
v 19.737968 7.770838 6.413259
v 20.753729 7.770838 0.000002
v 18.491720 10.934416 -6.008321
v 15.729997 10.934414 -11.428507
v 11.428512 10.934414 -15.729991
v 6.008325 10.934414 -18.491711
v 0.000002 10.934412 -19.443335
v -6.008319 10.934414 -18.491711
v -11.428504 10.934414 -15.729987
v -15.729985 10.934414 -11.428503
v -18.491707 10.934416 -6.008319
v -19.443331 10.934416 0.000002
v -18.491707 10.934416 6.008322
v -15.729985 10.934418 11.428507
v -11.428502 10.934418 15.729988
v -6.008318 10.934418 18.491711
v 0.000002 10.934420 19.443335
v 6.008321 10.934418 18.491709
v 11.428505 10.934418 15.729987
v 15.729986 10.934418 11.428506
v 18.491707 10.934416 6.008321
v 19.443331 10.934416 0.000002
v 16.790129 13.854053 -5.455441
v 14.282538 13.854051 -10.376867
v 10.376871 13.854051 -14.282533
v 5.455444 13.854051 -16.790125
v 0.000002 13.854051 -17.654181
v -5.455440 13.854051 -16.790123
v -10.376864 13.854051 -14.282530
v -14.282528 13.854051 -10.376863
v -16.790119 13.854053 -5.455439
v -17.654175 13.854053 0.000002
v -16.790119 13.854053 5.455442
v -14.282527 13.854053 10.376867
v -10.376863 13.854053 14.282530
v -5.455438 13.854053 16.790119
v 0.000002 13.854053 17.654177
v 5.455442 13.854053 16.790119
v 10.376866 13.854053 14.282529
v 14.282530 13.854053 10.376865
v 16.790119 13.854053 5.455441
v 17.654177 13.854053 0.000002
v 14.675112 16.457859 -4.768230
v 12.483397 16.457859 -9.069715
v 9.069718 16.457859 -12.483391
v 4.768234 16.457855 -14.675106
v 0.000002 16.457855 -15.430320
v -4.768229 16.457855 -14.675105
v -9.069712 16.457859 -12.483388
v -12.483386 16.457859 -9.069712
v -14.675101 16.457859 -4.768229
v -15.430314 16.457859 0.000002
v -14.675101 16.457859 4.768230
v -12.483386 16.457859 9.069713
v -9.069710 16.457859 12.483389
v -4.768228 16.457863 14.675103
v 0.000002 16.457863 15.430316
v 4.768231 16.457863 14.675103
v 9.069712 16.457859 12.483388
v 12.483389 16.457859 9.069713
v 14.675103 16.457859 4.768229
v 15.430315 16.457859 0.000002
v 12.198744 18.681717 -3.963610
v 10.376872 18.681717 -7.539237
v 7.539239 18.681717 -10.376867
v 3.963613 18.681717 -12.198738
v 0.000002 18.681713 -12.826512
v -3.963608 18.681717 -12.198737
v -7.539233 18.681717 -10.376863
v -10.376863 18.681717 -7.539232
v -12.198734 18.681717 -3.963609
v -12.826508 18.681717 0.000002
v -12.198734 18.681717 3.963611
v -10.376863 18.681717 7.539235
v -7.539231 18.681717 10.376866
v -3.963607 18.681717 12.198737
v 0.000002 18.681721 12.826511
v 3.963611 18.681717 12.198737
v 7.539234 18.681717 10.376865
v 10.376866 18.681717 7.539234
v 12.198736 18.681717 3.963611
v 12.826509 18.681717 0.000002
v 9.422004 20.470871 -3.061393
v 8.014835 20.470871 -5.823115
v 5.823119 20.470871 -8.014832
v 3.061396 20.470871 -9.422000
v 0.000002 20.470871 -9.906877
v -3.061391 20.470871 -9.421999
v -5.823113 20.470871 -8.014830
v -8.014827 20.470871 -5.823113
v -9.421994 20.470871 -3.061390
v -9.906872 20.470871 0.000000
v -9.421994 20.470871 3.061393
v -8.014826 20.470871 5.823115
v -5.823112 20.470871 8.014828
v -3.061390 20.470871 9.421996
v 0.000002 20.470871 9.906873
v 3.061394 20.470871 9.421995
v 5.823115 20.470871 8.014828
v 8.014830 20.470871 5.823113
v 9.421997 20.470871 3.061392
v 9.906875 20.470871 0.000000
v 6.413261 21.781269 -2.083794
v 5.455446 21.781269 -3.963611
v 3.963614 21.781269 -5.455442
v 2.083796 21.781269 -6.413257
v 0.000002 21.781269 -6.743297
v -2.083791 21.781269 -6.413255
v -3.963608 21.781269 -5.455441
v -5.455439 21.781269 -3.963610
v -6.413253 21.781269 -2.083793
v -6.743293 21.781269 0.000000
v -6.413253 21.781269 2.083793
v -5.455438 21.781269 3.963610
v -3.963607 21.781269 5.455441
v -2.083791 21.781269 6.413257
v 0.000002 21.781269 6.743297
v 2.083795 21.781269 6.413257
v 3.963611 21.781269 5.455441
v 5.455442 21.781269 3.963609
v 6.413257 21.781269 2.083792
v 6.743297 21.781269 0.000000
v 3.246603 22.580639 -1.054885
v 2.761726 22.580639 -2.006509
v 2.006512 22.580639 -2.761723
v 1.054887 22.580639 -3.246600
v 0.000002 22.580639 -3.413677
v -1.054882 22.580639 -3.246600
v -2.006506 22.580639 -2.761723
v -2.761720 22.580639 -2.006509
v -3.246596 22.580639 -1.054884
v -3.413674 22.580639 0.000000
v -3.246596 22.580639 1.054884
v -2.761720 22.580639 2.006508
v -2.006506 22.580639 2.761721
v -1.054881 22.580639 3.246598
v 0.000002 22.580639 3.413675
v 1.054886 22.580639 3.246598
v 2.006510 22.580639 2.761721
v 2.761724 22.580639 2.006508
v 3.246601 22.580639 1.054883
v 3.413678 22.580639 0.000000
v 0.000002 -20.794214 0.000008
v 0.000002 22.849302 0.000000
vn -0.1737 0.9847 0.0155
vn -0.2650 0.9495 0.1680
vn -0.1146 0.9847 0.1314
vn -0.0684 0.9847 0.1604
vn -0.1156 0.9495 0.2917
vn -0.0155 0.9847 0.1737
vn -0.0198 0.9495 0.3132
vn 0.0390 0.9847 0.1700
vn 0.0896 0.9847 0.1496
vn 0.0779 0.9495 0.3040
vn 0.1314 0.9847 0.1146
vn 0.1680 0.9495 0.2650
vn 0.1604 0.9847 0.0684
vn 0.2917 0.9495 0.1156
vn 0.1737 0.9847 0.0155
vn 0.1700 0.9847 -0.0390
vn 0.3040 0.9495 -0.0779
vn 0.1496 0.9847 -0.0896
vn 0.1146 0.9847 -0.1314
vn 0.2001 0.9495 -0.2417
vn 0.0684 0.9847 -0.1604
vn 0.0155 0.9847 -0.1737
vn 0.1157 0.9495 -0.2917
vn -0.0390 0.9847 -0.1700
vn 0.0198 0.9495 -0.3132
vn -0.0896 0.9847 -0.1496
vn -0.1680 0.9495 -0.2650
vn -0.1314 0.9847 -0.1146
vn -0.1604 0.9847 -0.0684
vn -0.2417 0.9495 -0.2001
vn -0.1737 0.9847 -0.0155
vn -0.2917 0.9495 -0.1156
vn -0.1700 0.9847 0.0390
vn -0.3132 0.9495 -0.0199
vn -0.2917 0.9495 0.1157
vn -0.3786 0.8886 0.2590
vn -0.2800 0.8886 0.3633
vn -0.2002 0.9495 0.2417
vn -0.0130 0.8886 0.4585
vn 0.1293 0.8886 0.4401
vn 0.3633 0.8886 0.2800
vn 0.2417 0.9495 0.2001
vn 0.4320 0.8886 0.1541
vn 0.3132 0.9495 0.0199
vn 0.4585 0.8886 0.0130
vn 0.4401 0.8886 -0.1293
vn 0.2650 0.9495 -0.1680
vn 0.2800 0.8886 -0.3633
vn 0.1541 0.8886 -0.4320
vn -0.1293 0.8886 -0.4401
vn -0.0779 0.9495 -0.3040
vn -0.2590 0.8886 -0.3786
vn -0.4320 0.8886 -0.1541
vn -0.4585 0.8886 -0.0130
vn -0.4320 0.8886 0.1541
vn -0.4843 0.8060 0.3403
vn -0.3554 0.8060 0.4734
vn -0.1541 0.8886 0.4320
vn -0.1918 0.8060 0.5600
vn 0.1741 0.8060 0.5658
vn 0.2590 0.8886 0.3786
vn 0.3403 0.8060 0.4843
vn 0.4733 0.8060 0.3555
vn 0.5600 0.8060 0.1918
vn 0.5658 0.8060 -0.1740
vn 0.4844 0.8060 -0.3403
vn 0.3786 0.8886 -0.2590
vn 0.3555 0.8060 -0.4733
vn 0.1918 0.8060 -0.5600
vn 0.0130 0.8886 -0.4585
vn -0.1740 0.8060 -0.5658
vn -0.3403 0.8060 -0.4843
vn -0.3633 0.8886 -0.2800
vn -0.4733 0.8060 -0.3555
vn -0.5600 0.8060 -0.1918
vn -0.5919 0.8060 -0.0094
vn -0.5600 0.8060 0.1917
vn -0.5788 0.7037 0.4119
vn -0.4232 0.7037 0.5707
vn -0.2261 0.7037 0.6735
vn -0.0093 0.8060 0.5919
vn -0.0070 0.7037 0.7104
vn 0.2129 0.7037 0.6778
vn 0.5706 0.7037 0.4232
vn 0.6735 0.7037 0.2262
vn 0.5919 0.8060 0.0094
vn 0.7104 0.7037 0.0070
vn 0.5788 0.7037 -0.4119
vn 0.4232 0.7037 -0.5706
vn 0.2262 0.7037 -0.6735
vn 0.0094 0.8060 -0.5919
vn -0.2130 0.7037 -0.6778
vn -0.4119 0.7037 -0.5788
vn -0.5706 0.7037 -0.4232
vn -0.6735 0.7037 -0.2262
vn -0.7104 0.7037 -0.0070
vn -0.7701 0.5845 0.2556
vn -0.6735 0.7038 0.2262
vn -0.6595 0.5845 0.4727
vn -0.4811 0.5845 0.6534
vn -0.2556 0.5845 0.7701
vn -0.0051 0.5845 0.8114
vn 0.4728 0.5845 0.6595
vn 0.4119 0.7037 0.5788
vn 0.6534 0.5845 0.4810
vn 0.7701 0.5845 0.2556
vn 0.8114 0.5845 0.0051
vn 0.6778 0.7037 -0.2129
vn 0.7733 0.5845 -0.2458
vn 0.6595 0.5845 -0.4727
vn 0.4811 0.5845 -0.6534
vn 0.2557 0.5845 -0.7701
vn 0.0070 0.7037 -0.7104
vn 0.0052 0.5845 -0.8114
vn -0.2459 0.5845 -0.7733
vn -0.4727 0.5845 -0.6595
vn -0.6534 0.5845 -0.4811
vn -0.8114 0.5845 -0.0051
vn -0.8477 0.4511 0.2793
vn -0.5276 0.4511 0.7199
vn -0.2791 0.4511 0.8477
vn -0.0037 0.4511 0.8925
vn 0.2459 0.5845 0.7733
vn 0.5216 0.4511 0.7242
vn 0.7199 0.4511 0.5275
vn 0.8925 0.4511 0.0036
vn 0.8499 0.4511 -0.2725
vn 0.5274 0.4511 -0.7200
vn 0.0035 0.4511 -0.8925
vn -0.2724 0.4511 -0.8499
vn -0.7198 0.4511 -0.5276
vn -0.8477 0.4511 -0.2792
vn -0.7701 0.5845 -0.2557
vn -0.8925 0.4511 -0.0036
vn -0.9044 0.3069 0.2965
vn -0.7241 0.4511 0.5217
vn -0.7713 0.3068 0.5577
vn -0.5613 0.3069 0.7686
vn -0.2963 0.3069 0.9045
vn -0.0023 0.3068 0.9518
vn 0.2723 0.4511 0.8499
vn 0.2919 0.3069 0.9059
vn 0.7685 0.3069 0.5614
vn 0.9044 0.3069 0.2965
vn 0.8477 0.4511 0.2792
vn 0.9518 0.3068 0.0022
vn 0.7714 0.3069 -0.5575
vn 0.7242 0.4511 -0.5216
vn 0.5613 0.3068 -0.7687
vn 0.2962 0.3068 -0.9045
vn 0.2791 0.4511 -0.8477
vn 0.0023 0.3068 -0.9518
vn -0.2919 0.3069 -0.9059
vn -0.5217 0.4511 -0.7241
vn -0.7687 0.3069 -0.5612
vn -0.9045 0.3068 -0.2962
vn -0.9518 0.3068 -0.0022
vn -0.7998 0.1553 0.5799
vn -0.5815 0.1553 0.7986
vn -0.3061 0.1553 0.9393
vn -0.0007 0.1553 0.9879
vn 0.3042 0.1553 0.9399
vn 0.5576 0.3069 0.7713
vn 0.5795 0.1553 0.8000
vn 0.7986 0.1553 0.5815
vn 0.9392 0.1553 0.3063
vn 0.9399 0.1553 -0.3041
vn 0.9059 0.3069 -0.2919
vn 0.7999 0.1553 -0.5796
vn 0.5814 0.1553 -0.7986
vn 0.3063 0.1553 -0.9392
vn -0.3043 0.1553 -0.9398
vn -0.5798 0.1553 -0.7998
vn -0.5576 0.3068 -0.7713
vn -0.7984 0.1553 -0.5817
vn -0.9392 0.1553 -0.3063
vn -0.9879 0.1553 -0.0010
vn -0.9394 0.1553 0.3057
vn -0.8090 -0.0000 0.5878
vn -0.5878 -0.0000 0.8090
vn -0.0000 -0.0000 1.0000
vn 0.5878 -0.0000 0.8090
vn 0.8090 -0.0000 0.5878
vn 0.9511 -0.0000 0.3090
vn 0.9879 0.1553 0.0013
vn 1.0000 -0.0000 -0.0000
vn 0.9511 -0.0000 -0.3090
vn 0.8090 -0.0000 -0.5878
vn 0.5878 -0.0000 -0.8090
vn 0.3090 -0.0000 -0.9511
vn 0.0010 0.1553 -0.9879
vn -0.0000 -0.0000 -1.0000
vn -0.3090 -0.0000 -0.9511
vn -0.5878 -0.0000 -0.8090
vn -0.9511 -0.0000 -0.3090
vn -1.0000 -0.0000 -0.0000
vn -0.9398 -0.1552 0.3044
vn -0.9511 -0.0000 0.3090
vn -0.7985 -0.1552 0.5816
vn -0.3042 -0.1552 0.9399
vn -0.3090 -0.0000 0.9511
vn 0.0007 -0.1552 0.9879
vn 0.3090 -0.0000 0.9511
vn 0.3062 -0.1552 0.9392
vn 0.5818 -0.1552 0.7984
vn 0.9399 -0.1552 0.3042
vn 0.9879 -0.1552 -0.0007
vn 0.9392 -0.1552 -0.3063
vn 0.7986 -0.1552 -0.5815
vn 0.5798 -0.1552 -0.7998
vn 0.3042 -0.1552 -0.9399
vn -0.0007 -0.1552 -0.9879
vn -0.5814 -0.1552 -0.7987
vn -0.8090 -0.0000 -0.5878
vn -0.7999 -0.1552 -0.5798
vn -0.9398 -0.1552 -0.3045
vn -0.9059 -0.3066 0.2921
vn -0.7687 -0.3066 0.5613
vn -0.5798 -0.1552 0.7999
vn -0.2920 -0.3066 0.9059
vn 0.0023 -0.3066 0.9518
vn 0.2964 -0.3066 0.9045
vn 0.5614 -0.3066 0.7687
vn 0.8001 -0.1552 0.5795
vn 0.7714 -0.3066 0.5576
vn 0.9060 -0.3066 0.2919
vn 0.9518 -0.3066 -0.0022
vn 0.9045 -0.3066 -0.2964
vn 0.7687 -0.3066 -0.5613
vn 0.2920 -0.3066 -0.9060
vn -0.0023 -0.3066 -0.9518
vn -0.3063 -0.1552 -0.9392
vn -0.2965 -0.3066 -0.9045
vn -0.7713 -0.3066 -0.5578
vn -0.9060 -0.3066 -0.2920
vn -0.9879 -0.1552 0.0011
vn -0.8501 -0.4506 0.2724
vn -0.5218 -0.4506 0.7243
vn -0.5576 -0.3066 0.7714
vn -0.2725 -0.4506 0.8501
vn 0.0036 -0.4506 0.8927
vn 0.5277 -0.4506 0.7201
vn 0.7244 -0.4506 0.5218
vn 0.8501 -0.4506 0.2724
vn 0.8479 -0.4506 -0.2793
vn 0.5219 -0.4506 -0.7243
vn 0.5575 -0.3066 -0.7715
vn 0.2724 -0.4506 -0.8501
vn -0.2793 -0.4506 -0.8479
vn -0.5613 -0.3066 -0.7688
vn -0.5276 -0.4506 -0.7201
vn -0.7243 -0.4506 -0.5219
vn -0.8501 -0.4506 -0.2725
vn -0.9518 -0.3066 0.0022
vn -0.7738 -0.5837 0.2460
vn -0.7201 -0.4506 0.5276
vn -0.6538 -0.5837 0.4814
vn -0.4731 -0.5837 0.6599
vn -0.2460 -0.5837 0.7738
vn 0.0050 -0.5837 0.8119
vn 0.2794 -0.4506 0.8479
vn 0.2558 -0.5837 0.7706
vn 0.4814 -0.5837 0.6538
vn 0.6599 -0.5837 0.4731
vn 0.7738 -0.5837 0.2460
vn 0.8927 -0.4506 -0.0035
vn 0.7706 -0.5837 -0.2557
vn 0.6539 -0.5837 -0.4813
vn 0.7200 -0.4506 -0.5277
vn 0.4731 -0.5837 -0.6599
vn 0.2460 -0.5837 -0.7738
vn -0.0036 -0.4506 -0.8927
vn -0.0051 -0.5837 -0.8120
vn -0.2559 -0.5837 -0.7706
vn -0.4814 -0.5837 -0.6539
vn -0.6600 -0.5837 -0.4730
vn -0.7738 -0.5837 -0.2460
vn -0.8927 -0.4506 0.0036
vn -0.6788 -0.7026 0.2132
vn -0.5715 -0.7026 0.4239
vn -0.2132 -0.7026 0.6789
vn 0.0070 -0.7026 0.7115
vn 0.2265 -0.7026 0.6745
vn 0.4239 -0.7026 0.5715
vn 0.6788 -0.7027 0.2133
vn 0.8119 -0.5837 -0.0050
vn 0.6745 -0.7026 -0.2265
vn 0.5715 -0.7026 -0.4239
vn 0.4126 -0.7026 -0.5797
vn 0.2132 -0.7026 -0.6788
vn -0.0070 -0.7026 -0.7115
vn -0.4239 -0.7026 -0.5715
vn -0.5797 -0.7026 -0.4126
vn -0.6788 -0.7026 -0.2132
vn -0.8120 -0.5837 0.0051
vn -0.5676 -0.8046 0.1746
vn -0.4749 -0.8046 0.3566
vn -0.4126 -0.7026 0.5797
vn -0.3415 -0.8046 0.4859
vn 0.0094 -0.8046 0.5938
vn 0.1924 -0.8046 0.5618
vn 0.3566 -0.8046 0.4749
vn 0.5797 -0.7026 0.4126
vn 0.4859 -0.8046 0.3415
vn 0.5676 -0.8046 0.1746
vn 0.7115 -0.7026 -0.0070
vn 0.5619 -0.8046 -0.1923
vn 0.4749 -0.8046 -0.3566
vn 0.3414 -0.8046 -0.4859
vn 0.1746 -0.8046 -0.5676
vn -0.0093 -0.8046 -0.5938
vn -0.2265 -0.7026 -0.6745
vn -0.1924 -0.8046 -0.5618
vn -0.3566 -0.8046 -0.4749
vn -0.4859 -0.8046 -0.3415
vn -0.5676 -0.8046 -0.1746
vn -0.7115 -0.7026 0.0070
vn -0.4432 -0.8869 0.1303
vn -0.3659 -0.8869 0.2819
vn -0.2609 -0.8869 0.3812
vn -0.1746 -0.8046 0.5676
vn -0.1303 -0.8869 0.4432
vn 0.0130 -0.8869 0.4618
vn 0.1551 -0.8869 0.4351
vn 0.2819 -0.8869 0.3659
vn 0.3812 -0.8869 0.2609
vn 0.4432 -0.8869 0.1303
vn 0.5938 -0.8046 -0.0094
vn 0.4618 -0.8869 -0.0130
vn 0.4351 -0.8869 -0.1551
vn 0.3659 -0.8869 -0.2819
vn 0.1303 -0.8869 -0.4432
vn -0.0130 -0.8869 -0.4618
vn -0.1551 -0.8869 -0.4351
vn -0.2819 -0.8869 -0.3659
vn -0.3812 -0.8869 -0.2609
vn -0.4432 -0.8869 -0.1303
vn -0.5938 -0.8046 0.0093
vn -0.3094 -0.9476 0.0797
vn -0.2463 -0.9476 0.2035
vn -0.1713 -0.9476 0.2696
vn -0.0796 -0.9476 0.3094
vn 0.0199 -0.9476 0.3188
vn 0.2035 -0.9476 0.2463
vn 0.2696 -0.9476 0.1714
vn 0.3094 -0.9476 0.0796
vn 0.3188 -0.9476 -0.0199
vn 0.2971 -0.9476 -0.1174
vn 0.2463 -0.9476 -0.2034
vn 0.2609 -0.8869 -0.3812
vn 0.0796 -0.9476 -0.3094
vn -0.1174 -0.9476 -0.2971
vn -0.2034 -0.9476 -0.2463
vn -0.3094 -0.9476 -0.0797
vn -0.3188 -0.9476 0.0198
vn -0.4618 -0.8869 0.0130
vn -0.1737 -0.9847 0.0155
vn -0.1146 -0.9847 0.1314
vn -0.0684 -0.9847 0.1604
vn -0.0155 -0.9847 0.1737
vn 0.0390 -0.9847 0.1699
vn 0.1174 -0.9476 0.2971
vn 0.0896 -0.9847 0.1496
vn 0.1604 -0.9847 0.0684
vn 0.1699 -0.9847 -0.0390
vn 0.1146 -0.9847 -0.1314
vn 0.1714 -0.9476 -0.2696
vn 0.0684 -0.9847 -0.1604
vn 0.0155 -0.9847 -0.1737
vn -0.0198 -0.9476 -0.3188
vn -0.0390 -0.9847 -0.1699
vn -0.0896 -0.9847 -0.1496
vn -0.1604 -0.9847 -0.0684
vn -0.2696 -0.9476 -0.1714
vn -0.1737 -0.9847 -0.0155
vn -0.0000 1.0000 -0.0000
vn -0.0000 -1.0000 -0.0000
vn 0.1314 -0.9847 0.1146
vn 0.1737 -0.9847 0.0155
vn 0.1496 -0.9847 -0.0896
vn -0.1314 -0.9847 -0.1146
vn -0.1700 -0.9847 0.0390
vt 0.000000 0.050000
vt 0.050000 0.100000
vt 0.050000 0.050000
vt 0.100000 0.050000
vt 0.150000 0.100000
vt 0.150000 0.050000
vt 0.200000 0.100000
vt 0.200000 0.050000
vt 0.250000 0.050000
vt 0.250000 0.100000
vt 0.300000 0.050000
vt 0.300000 0.100000
vt 0.350000 0.050000
vt 0.400000 0.100000
vt 0.400000 0.050000
vt 0.450000 0.050000
vt 0.500000 0.100000
vt 0.500000 0.050000
vt 0.550000 0.050000
vt 0.600000 0.100000
vt 0.600000 0.050000
vt 0.650000 0.050000
vt 0.650000 0.100000
vt 0.700000 0.050000
vt 0.700000 0.100000
vt 0.750000 0.050000
vt 0.800000 0.100000
vt 0.800000 0.050000
vt 0.850000 0.050000
vt 0.850000 0.100000
vt 0.900000 0.050000
vt 0.900000 0.100000
vt 0.950000 0.050000
vt 0.950000 0.100000
vt 1.000000 0.050000
vt 0.000000 0.100000
vt 0.050000 0.150000
vt 0.100000 0.150000
vt 0.100000 0.100000
vt 0.200000 0.150000
vt 0.250000 0.150000
vt 0.350000 0.150000
vt 0.350000 0.100000
vt 0.400000 0.150000
vt 0.450000 0.100000
vt 0.450000 0.150000
vt 0.500000 0.150000
vt 0.550000 0.100000
vt 0.600000 0.150000
vt 0.650000 0.150000
vt 0.750000 0.150000
vt 0.750000 0.100000
vt 0.800000 0.150000
vt 0.900000 0.150000
vt 0.950000 0.150000
vt 1.000000 0.100000
vt 0.000000 0.150000
vt 0.050000 0.200000
vt 0.100000 0.200000
vt 0.150000 0.150000
vt 0.150000 0.200000
vt 0.250000 0.200000
vt 0.300000 0.150000
vt 0.300000 0.200000
vt 0.350000 0.200000
vt 0.400000 0.200000
vt 0.500000 0.200000
vt 0.550000 0.200000
vt 0.550000 0.150000
vt 0.600000 0.200000
vt 0.650000 0.200000
vt 0.700000 0.150000
vt 0.750000 0.200000
vt 0.800000 0.200000
vt 0.850000 0.150000
vt 0.850000 0.200000
vt 0.900000 0.200000
vt 0.950000 0.200000
vt 1.000000 0.150000
vt 0.000000 0.200000
vt 0.050000 0.250000
vt 0.100000 0.250000
vt 0.150000 0.250000
vt 0.200000 0.200000
vt 0.200000 0.250000
vt 0.250000 0.250000
vt 0.350000 0.250000
vt 0.400000 0.250000
vt 0.450000 0.200000
vt 0.450000 0.250000
vt 0.550000 0.250000
vt 0.600000 0.250000
vt 0.650000 0.250000
vt 0.700000 0.200000
vt 0.750000 0.250000
vt 0.800000 0.250000
vt 0.850000 0.250000
vt 0.900000 0.250000
vt 0.950000 0.250000
vt 1.000000 0.200000
vt 0.000000 0.300000
vt 0.000000 0.250000
vt 0.050000 0.300000
vt 0.100000 0.300000
vt 0.150000 0.300000
vt 0.200000 0.300000
vt 0.300000 0.300000
vt 0.300000 0.250000
vt 0.350000 0.300000
vt 0.400000 0.300000
vt 0.450000 0.300000
vt 0.500000 0.250000
vt 0.500000 0.300000
vt 0.550000 0.300000
vt 0.600000 0.300000
vt 0.650000 0.300000
vt 0.700000 0.250000
vt 0.700000 0.300000
vt 0.750000 0.300000
vt 0.800000 0.300000
vt 0.850000 0.300000
vt 0.950000 0.300000
vt 1.000000 0.250000
vt 0.000000 0.350000
vt 0.100000 0.350000
vt 0.150000 0.350000
vt 0.200000 0.350000
vt 0.250000 0.300000
vt 0.300000 0.350000
vt 0.350000 0.350000
vt 0.450000 0.350000
vt 0.500000 0.350000
vt 0.600000 0.350000
vt 0.700000 0.350000
vt 0.750000 0.350000
vt 0.850000 0.350000
vt 0.900000 0.350000
vt 0.900000 0.300000
vt 0.950000 0.350000
vt 1.000000 0.300000
vt 0.000000 0.400000
vt 0.050000 0.350000
vt 0.050000 0.400000
vt 0.100000 0.400000
vt 0.150000 0.400000
vt 0.200000 0.400000
vt 0.250000 0.350000
vt 0.250000 0.400000
vt 0.350000 0.400000
vt 0.400000 0.400000
vt 0.400000 0.350000
vt 0.450000 0.400000
vt 0.550000 0.400000
vt 0.550000 0.350000
vt 0.600000 0.400000
vt 0.650000 0.400000
vt 0.650000 0.350000
vt 0.700000 0.400000
vt 0.750000 0.400000
vt 0.800000 0.350000
vt 0.850000 0.400000
vt 0.900000 0.400000
vt 0.950000 0.400000
vt 1.000000 0.350000
vt 0.050000 0.450000
vt 0.100000 0.450000
vt 0.150000 0.450000
vt 0.200000 0.450000
vt 0.250000 0.450000
vt 0.300000 0.400000
vt 0.300000 0.450000
vt 0.350000 0.450000
vt 0.400000 0.450000
vt 0.500000 0.450000
vt 0.500000 0.400000
vt 0.550000 0.450000
vt 0.600000 0.450000
vt 0.650000 0.450000
vt 0.750000 0.450000
vt 0.800000 0.450000
vt 0.800000 0.400000
vt 0.850000 0.450000
vt 0.900000 0.450000
vt 0.950000 0.450000
vt 1.000000 0.400000
vt 0.000000 0.450000
vt 0.050000 0.500000
vt 0.100000 0.500000
vt 0.200000 0.500000
vt 0.300000 0.500000
vt 0.350000 0.500000
vt 0.400000 0.500000
vt 0.450000 0.450000
vt 0.450000 0.500000
vt 0.500000 0.500000
vt 0.550000 0.500000
vt 0.600000 0.500000
vt 0.650000 0.500000
vt 0.700000 0.450000
vt 0.700000 0.500000
vt 0.750000 0.500000
vt 0.800000 0.500000
vt 0.900000 0.500000
vt 0.950000 0.500000
vt 1.000000 0.450000
vt 0.000000 0.550000
vt 0.000000 0.500000
vt 0.050000 0.550000
vt 0.150000 0.550000
vt 0.150000 0.500000
vt 0.200000 0.550000
vt 0.250000 0.500000
vt 0.250000 0.550000
vt 0.300000 0.550000
vt 0.400000 0.550000
vt 0.450000 0.550000
vt 0.500000 0.550000
vt 0.550000 0.550000
vt 0.600000 0.550000
vt 0.650000 0.550000
vt 0.700000 0.550000
vt 0.800000 0.550000
vt 0.850000 0.500000
vt 0.850000 0.550000
vt 0.900000 0.550000
vt 1.000000 0.550000
vt 1.000000 0.500000
vt 0.000000 0.600000
vt 0.050000 0.600000
vt 0.100000 0.550000
vt 0.150000 0.600000
vt 0.200000 0.600000
vt 0.250000 0.600000
vt 0.300000 0.600000
vt 0.350000 0.550000
vt 0.350000 0.600000
vt 0.400000 0.600000
vt 0.450000 0.600000
vt 0.500000 0.600000
vt 0.550000 0.600000
vt 0.650000 0.600000
vt 0.700000 0.600000
vt 0.750000 0.550000
vt 0.750000 0.600000
vt 0.850000 0.600000
vt 0.900000 0.600000
vt 0.950000 0.550000
vt 1.000000 0.600000
vt 0.000000 0.650000
vt 0.100000 0.650000
vt 0.100000 0.600000
vt 0.150000 0.650000
vt 0.200000 0.650000
vt 0.300000 0.650000
vt 0.350000 0.650000
vt 0.400000 0.650000
vt 0.500000 0.650000
vt 0.600000 0.650000
vt 0.600000 0.600000
vt 0.650000 0.650000
vt 0.750000 0.650000
vt 0.800000 0.600000
vt 0.800000 0.650000
vt 0.850000 0.650000
vt 0.900000 0.650000
vt 0.950000 0.600000
vt 1.000000 0.650000
vt 0.000000 0.700000
vt 0.050000 0.650000
vt 0.050000 0.700000
vt 0.100000 0.700000
vt 0.150000 0.700000
vt 0.200000 0.700000
vt 0.250000 0.650000
vt 0.250000 0.700000
vt 0.300000 0.700000
vt 0.350000 0.700000
vt 0.400000 0.700000
vt 0.450000 0.650000
vt 0.500000 0.700000
vt 0.550000 0.700000
vt 0.550000 0.650000
vt 0.600000 0.700000
vt 0.650000 0.700000
vt 0.700000 0.650000
vt 0.700000 0.700000
vt 0.750000 0.700000
vt 0.800000 0.700000
vt 0.850000 0.700000
vt 0.900000 0.700000
vt 0.950000 0.650000
vt 1.000000 0.700000
vt 0.000000 0.750000
vt 0.050000 0.750000
vt 0.150000 0.750000
vt 0.200000 0.750000
vt 0.250000 0.750000
vt 0.300000 0.750000
vt 0.400000 0.750000
vt 0.450000 0.700000
vt 0.500000 0.750000
vt 0.550000 0.750000
vt 0.600000 0.750000
vt 0.650000 0.750000
vt 0.700000 0.750000
vt 0.800000 0.750000
vt 0.850000 0.750000
vt 0.900000 0.750000
vt 0.950000 0.700000
vt 1.000000 0.750000
vt 0.000000 0.800000
vt 0.050000 0.800000
vt 0.100000 0.750000
vt 0.100000 0.800000
vt 0.200000 0.800000
vt 0.250000 0.800000
vt 0.300000 0.800000
vt 0.350000 0.750000
vt 0.350000 0.800000
vt 0.400000 0.800000
vt 0.450000 0.750000
vt 0.500000 0.800000
vt 0.550000 0.800000
vt 0.600000 0.800000
vt 0.650000 0.800000
vt 0.700000 0.800000
vt 0.750000 0.750000
vt 0.750000 0.800000
vt 0.800000 0.800000
vt 0.850000 0.800000
vt 0.900000 0.800000
vt 0.950000 0.750000
vt 1.000000 0.800000
vt 0.000000 0.850000
vt 0.050000 0.850000
vt 0.100000 0.850000
vt 0.150000 0.800000
vt 0.150000 0.850000
vt 0.200000 0.850000
vt 0.250000 0.850000
vt 0.300000 0.850000
vt 0.350000 0.850000
vt 0.400000 0.850000
vt 0.450000 0.800000
vt 0.450000 0.850000
vt 0.500000 0.850000
vt 0.550000 0.850000
vt 0.650000 0.850000
vt 0.700000 0.850000
vt 0.750000 0.850000
vt 0.800000 0.850000
vt 0.850000 0.850000
vt 0.900000 0.850000
vt 0.950000 0.800000
vt 1.000000 0.850000
vt 0.000000 0.900000
vt 0.050000 0.900000
vt 0.100000 0.900000
vt 0.150000 0.900000
vt 0.200000 0.900000
vt 0.300000 0.900000
vt 0.350000 0.900000
vt 0.400000 0.900000
vt 0.450000 0.900000
vt 0.500000 0.900000
vt 0.550000 0.900000
vt 0.600000 0.850000
vt 0.650000 0.900000
vt 0.750000 0.900000
vt 0.800000 0.900000
vt 0.900000 0.900000
vt 0.950000 0.900000
vt 0.950000 0.850000
vt 1.000000 0.900000
vt 0.000000 0.950000
vt 0.050000 0.950000
vt 0.100000 0.950000
vt 0.150000 0.950000
vt 0.200000 0.950000
vt 0.250000 0.900000
vt 0.250000 0.950000
vt 0.350000 0.950000
vt 0.450000 0.950000
vt 0.550000 0.950000
vt 0.600000 0.900000
vt 0.600000 0.950000
vt 0.650000 0.950000
vt 0.700000 0.900000
vt 0.700000 0.950000
vt 0.750000 0.950000
vt 0.850000 0.950000
vt 0.850000 0.900000
vt 0.900000 0.950000
vt 1.000000 0.950000
vt 0.025000 0.000000
vt 0.075000 0.000000
vt 0.125000 0.000000
vt 0.175000 0.000000
vt 0.225000 0.000000
vt 0.275000 0.000000
vt 0.325000 0.000000
vt 0.375000 0.000000
vt 0.425000 0.000000
vt 0.475000 0.000000
vt 0.525000 0.000000
vt 0.575000 0.000000
vt 0.625000 0.000000
vt 0.675000 0.000000
vt 0.725000 0.000000
vt 0.775000 0.000000
vt 0.825000 0.000000
vt 0.875000 0.000000
vt 0.925000 0.000000
vt 0.975000 0.000000
vt 0.025000 1.000000
vt 0.075000 1.000000
vt 0.125000 1.000000
vt 0.175000 1.000000
vt 0.225000 1.000000
vt 0.275000 1.000000
vt 0.300000 0.950000
vt 0.325000 1.000000
vt 0.375000 1.000000
vt 0.400000 0.950000
vt 0.425000 1.000000
vt 0.475000 1.000000
vt 0.500000 0.950000
vt 0.525000 1.000000
vt 0.575000 1.000000
vt 0.625000 1.000000
vt 0.675000 1.000000
vt 0.725000 1.000000
vt 0.775000 1.000000
vt 0.800000 0.950000
vt 0.825000 1.000000
vt 0.875000 1.000000
vt 0.925000 1.000000
vt 0.950000 0.950000
vt 0.975000 1.000000
s 1
usemtl surfaceShader1SG
f 1/1/1 22/2/2 2/3/3
f 22/2/2 3/4/4 2/3/3
f 3/4/4 24/5/5 4/6/6
f 4/6/6 25/7/7 5/8/8
f 25/7/7 6/9/9 5/8/8
f 26/10/10 7/11/11 6/9/9
f 27/12/12 8/13/13 7/11/11
f 8/13/13 29/14/14 9/15/15
f 29/14/14 10/16/16 9/15/15
f 10/16/16 31/17/17 11/18/18
f 31/17/17 12/19/19 11/18/18
f 12/19/19 33/20/20 13/21/21
f 33/20/20 14/22/22 13/21/21
f 34/23/23 15/24/24 14/22/22
f 35/25/25 16/26/26 15/24/24
f 16/26/26 37/27/27 17/28/28
f 37/27/27 18/29/29 17/28/28
f 38/30/30 19/31/31 18/29/29
f 39/32/32 20/33/33 19/31/31
f 40/34/34 1/35/1 20/33/33
f 21/36/35 42/37/36 22/2/2
f 22/2/2 43/38/37 23/39/38
f 43/38/37 24/5/5 23/39/38
f 24/5/5 45/40/39 25/7/7
f 25/7/7 46/41/40 26/10/10
f 46/41/40 27/12/12 26/10/10
f 27/12/12 48/42/41 28/43/42
f 28/43/42 49/44/43 29/14/14
f 49/44/43 30/45/44 29/14/14
f 50/46/45 31/17/17 30/45/44
f 51/47/46 32/48/47 31/17/17
f 32/48/47 53/49/48 33/20/20
f 53/49/48 34/23/23 33/20/20
f 54/50/49 35/25/25 34/23/23
f 35/25/25 56/51/50 36/52/51
f 36/52/51 57/53/52 37/27/27
f 57/53/52 38/30/30 37/27/27
f 38/30/30 59/54/53 39/32/32
f 59/54/53 40/34/34 39/32/32
f 60/55/54 21/56/35 40/34/34
f 41/57/55 62/58/56 42/37/36
f 42/37/36 63/59/57 43/38/37
f 63/59/57 44/60/58 43/38/37
f 64/61/59 45/40/39 44/60/58
f 45/40/39 66/62/60 46/41/40
f 66/62/60 47/63/61 46/41/40
f 67/64/62 48/42/41 47/63/61
f 68/65/63 49/44/43 48/42/41
f 69/66/64 50/46/45 49/44/43
f 50/46/45 71/67/65 51/47/46
f 51/47/46 72/68/66 52/69/67
f 52/69/67 73/70/68 53/49/48
f 73/70/68 54/50/49 53/49/48
f 74/71/69 55/72/70 54/50/49
f 55/72/70 76/73/71 56/51/50
f 56/51/50 77/74/72 57/53/52
f 77/74/72 58/75/73 57/53/52
f 78/76/74 59/54/53 58/75/73
f 79/77/75 60/55/54 59/54/53
f 80/78/76 41/79/55 60/55/54
f 61/80/77 82/81/78 62/58/56
f 62/58/56 83/82/79 63/59/57
f 63/59/57 84/83/80 64/61/59
f 84/83/80 65/84/81 64/61/59
f 85/85/82 66/62/60 65/84/81
f 86/86/83 67/64/62 66/62/60
f 67/64/62 88/87/84 68/65/63
f 88/87/84 69/66/64 68/65/63
f 89/88/85 70/89/86 69/66/64
f 90/90/87 71/67/65 70/89/86
f 71/67/65 92/91/88 72/68/66
f 72/68/66 93/92/89 73/70/68
f 93/92/89 74/71/69 73/70/68
f 94/93/90 75/94/91 74/71/69
f 75/94/91 96/95/92 76/73/71
f 96/95/92 77/74/72 76/73/71
f 97/96/93 78/76/74 77/74/72
f 98/97/94 79/77/75 78/76/74
f 99/98/95 80/78/76 79/77/75
f 100/99/96 61/100/77 80/78/76
f 101/101/97 82/81/78 81/102/98
f 102/103/99 83/82/79 82/81/78
f 103/104/100 84/83/80 83/82/79
f 104/105/101 85/85/82 84/83/80
f 105/106/102 86/86/83 85/85/82
f 86/86/83 107/107/103 87/108/104
f 87/108/104 108/109/105 88/87/84
f 108/109/105 89/88/85 88/87/84
f 109/110/106 90/90/87 89/88/85
f 110/111/107 91/112/108 90/90/87
f 111/113/109 92/91/88 91/112/108
f 112/114/110 93/92/89 92/91/88
f 113/115/111 94/93/90 93/92/89
f 114/116/112 95/117/113 94/93/90
f 115/118/114 96/95/92 95/117/113
f 116/119/115 97/96/93 96/95/92
f 117/120/116 98/97/94 97/96/93
f 118/121/117 99/98/95 98/97/94
f 99/98/95 120/122/118 100/99/96
f 120/122/118 81/123/98 100/99/96
f 121/124/119 102/103/99 101/101/97
f 102/103/99 123/125/120 103/104/100
f 103/104/100 124/126/121 104/105/101
f 104/105/101 125/127/122 105/106/102
f 125/127/122 106/128/123 105/106/102
f 106/128/123 127/129/124 107/107/103
f 127/129/124 108/109/105 107/107/103
f 128/130/125 109/110/106 108/109/105
f 109/110/106 130/131/126 110/111/107
f 130/131/126 111/113/109 110/111/107
f 131/132/127 112/114/110 111/113/109
f 112/114/110 133/133/128 113/115/111
f 133/133/128 114/116/112 113/115/111
f 114/116/112 135/134/129 115/118/114
f 135/134/129 116/119/115 115/118/114
f 136/135/130 117/120/116 116/119/115
f 117/120/116 138/136/131 118/121/117
f 118/121/117 139/137/132 119/138/133
f 119/138/133 140/139/134 120/122/118
f 140/139/134 101/140/97 120/122/118
f 141/141/135 122/142/136 121/124/119
f 142/143/137 123/125/120 122/142/136
f 143/144/138 124/126/121 123/125/120
f 144/145/139 125/127/122 124/126/121
f 145/146/140 126/147/141 125/127/122
f 146/148/142 127/129/124 126/147/141
f 127/129/124 148/149/143 128/130/125
f 128/130/125 149/150/144 129/151/145
f 149/150/144 130/131/126 129/151/145
f 150/152/146 131/132/127 130/131/126
f 131/132/127 152/153/147 132/154/148
f 132/154/148 153/155/149 133/133/128
f 133/133/128 154/156/150 134/157/151
f 154/156/150 135/134/129 134/157/151
f 155/158/152 136/135/130 135/134/129
f 156/159/153 137/160/154 136/135/130
f 137/160/154 158/161/155 138/136/131
f 158/161/155 139/137/132 138/136/131
f 159/162/156 140/139/134 139/137/132
f 160/163/157 121/164/119 140/139/134
f 141/141/135 162/165/158 142/143/137
f 162/165/158 143/144/138 142/143/137
f 163/166/159 144/145/139 143/144/138
f 164/167/160 145/146/140 144/145/139
f 165/168/161 146/148/142 145/146/140
f 166/169/162 147/170/163 146/148/142
f 167/171/164 148/149/143 147/170/163
f 168/172/165 149/150/144 148/149/143
f 169/173/166 150/152/146 149/150/144
f 150/152/146 171/174/167 151/175/168
f 171/174/167 152/153/147 151/175/168
f 172/176/169 153/155/149 152/153/147
f 173/177/170 154/156/150 153/155/149
f 174/178/171 155/158/152 154/156/150
f 155/158/152 176/179/172 156/159/153
f 156/159/153 177/180/173 157/181/174
f 157/181/174 178/182/175 158/161/155
f 178/182/175 159/162/156 158/161/155
f 179/183/176 160/163/157 159/162/156
f 180/184/177 141/185/135 160/163/157
f 161/186/178 182/187/179 162/165/158
f 182/187/179 163/166/159 162/165/158
f 183/188/180 164/167/160 163/166/159
f 164/167/160 185/189/181 165/168/161
f 185/189/181 166/169/162 165/168/161
f 166/169/162 187/190/182 167/171/164
f 187/190/182 168/172/165 167/171/164
f 188/191/183 169/173/166 168/172/165
f 189/192/184 170/193/185 169/173/166
f 190/194/186 171/174/167 170/193/185
f 191/195/187 172/176/169 171/174/167
f 192/196/188 173/177/170 172/176/169
f 193/197/189 174/178/171 173/177/170
f 194/198/190 175/199/191 174/178/171
f 195/200/192 176/179/172 175/199/191
f 196/201/193 177/180/173 176/179/172
f 197/202/194 178/182/175 177/180/173
f 178/182/175 199/203/195 179/183/176
f 179/183/176 200/204/196 180/184/177
f 200/204/196 161/205/178 180/184/177
f 201/206/197 182/187/179 181/207/198
f 202/208/199 183/188/180 182/187/179
f 183/188/180 204/209/200 184/210/201
f 204/209/200 185/189/181 184/210/201
f 205/211/202 186/212/203 185/189/181
f 206/213/204 187/190/182 186/212/203
f 207/214/205 188/191/183 187/190/182
f 188/191/183 209/215/206 189/192/184
f 189/192/184 210/216/207 190/194/186
f 190/194/186 211/217/208 191/195/187
f 191/195/187 212/218/209 192/196/188
f 192/196/188 213/219/210 193/197/189
f 193/197/189 214/220/211 194/198/190
f 214/220/211 195/200/192 194/198/190
f 215/221/212 196/201/193 195/200/192
f 196/201/193 217/222/213 197/202/194
f 217/222/213 198/223/214 197/202/194
f 218/224/215 199/203/195 198/223/214
f 219/225/216 200/204/196 199/203/195
f 200/204/196 201/226/197 181/227/198
f 221/228/217 202/208/199 201/206/197
f 222/229/218 203/230/219 202/208/199
f 203/230/219 224/231/220 204/209/200
f 224/231/220 205/211/202 204/209/200
f 225/232/221 206/213/204 205/211/202
f 226/233/222 207/214/205 206/213/204
f 227/234/223 208/235/224 207/214/205
f 228/236/225 209/215/206 208/235/224
f 229/237/226 210/216/207 209/215/206
f 230/238/227 211/217/208 210/216/207
f 231/239/228 212/218/209 211/217/208
f 232/240/229 213/219/210 212/218/209
f 213/219/210 234/241/230 214/220/211
f 234/241/230 215/221/212 214/220/211
f 235/242/231 216/243/232 215/221/212
f 236/244/233 217/222/213 216/243/232
f 217/222/213 238/245/234 218/224/215
f 218/224/215 239/246/235 219/225/216
f 239/246/235 220/247/236 219/225/216
f 220/247/236 221/248/217 201/226/197
f 241/249/237 222/229/218 221/228/217
f 222/229/218 243/250/238 223/251/239
f 243/250/238 224/231/220 223/251/239
f 244/252/240 225/232/221 224/231/220
f 245/253/241 226/233/222 225/232/221
f 226/233/222 247/254/242 227/234/223
f 247/254/242 228/236/225 227/234/223
f 248/255/243 229/237/226 228/236/225
f 249/256/244 230/238/227 229/237/226
f 230/238/227 251/257/245 231/239/228
f 251/257/245 232/240/229 231/239/228
f 232/240/229 253/258/246 233/259/247
f 253/258/246 234/241/230 233/259/247
f 254/260/248 235/242/231 234/241/230
f 235/242/231 256/261/249 236/244/233
f 256/261/249 237/262/250 236/244/233
f 257/263/251 238/245/234 237/262/250
f 258/264/252 239/246/235 238/245/234
f 259/265/253 240/266/254 239/246/235
f 240/266/254 241/267/237 221/248/217
f 261/268/255 242/269/256 241/249/237
f 262/270/257 243/250/238 242/269/256
f 263/271/258 244/252/240 243/250/238
f 264/272/259 245/253/241 244/252/240
f 265/273/260 246/274/261 245/253/241
f 266/275/262 247/254/242 246/274/261
f 267/276/263 248/255/243 247/254/242
f 268/277/264 249/256/244 248/255/243
f 269/278/265 250/279/266 249/256/244
f 250/279/266 271/280/267 251/257/245
f 251/257/245 272/281/268 252/282/269
f 272/281/268 253/258/246 252/282/269
f 273/283/270 254/260/248 253/258/246
f 274/284/271 255/285/272 254/260/248
f 275/286/273 256/261/249 255/285/272
f 276/287/274 257/263/251 256/261/249
f 277/288/275 258/264/252 257/263/251
f 278/289/276 259/265/253 258/264/252
f 279/290/277 260/291/278 259/265/253
f 260/291/278 261/292/255 241/267/237
f 281/293/279 262/270/257 261/268/255
f 282/294/280 263/271/258 262/270/257
f 263/271/258 284/295/281 264/272/259
f 284/295/281 265/273/260 264/272/259
f 285/296/282 266/275/262 265/273/260
f 286/297/283 267/276/263 266/275/262
f 287/298/284 268/277/264 267/276/263
f 268/277/264 289/299/285 269/278/265
f 289/299/285 270/300/286 269/278/265
f 270/300/286 291/301/287 271/280/267
f 271/280/267 292/302/288 272/281/268
f 272/281/268 293/303/289 273/283/270
f 293/303/289 274/284/271 273/283/270
f 294/304/290 275/286/273 274/284/271
f 295/305/291 276/287/274 275/286/273
f 276/287/274 297/306/292 277/288/275
f 277/288/275 298/307/293 278/289/276
f 298/307/293 279/290/277 278/289/276
f 299/308/294 280/309/295 279/290/277
f 280/309/295 281/310/279 261/292/255
f 301/311/296 282/294/280 281/293/279
f 302/312/297 283/313/298 282/294/280
f 303/314/299 284/295/281 283/313/298
f 284/295/281 305/315/300 285/296/282
f 305/315/300 286/297/283 285/296/282
f 306/316/301 287/298/284 286/297/283
f 307/317/302 288/318/303 287/298/284
f 308/319/304 289/299/285 288/318/303
f 309/320/305 290/321/306 289/299/285
f 290/321/306 311/322/307 291/301/287
f 311/322/307 292/302/288 291/301/287
f 312/323/308 293/303/289 292/302/288
f 313/324/309 294/304/290 293/303/289
f 314/325/310 295/305/291 294/304/290
f 315/326/311 296/327/312 295/305/291
f 316/328/313 297/306/292 296/327/312
f 317/329/314 298/307/293 297/306/292
f 318/330/315 299/308/294 298/307/293
f 319/331/316 300/332/317 299/308/294
f 300/332/317 301/333/296 281/310/279
f 321/334/318 302/312/297 301/311/296
f 322/335/319 303/314/299 302/312/297
f 323/336/320 304/337/321 303/314/299
f 324/338/322 305/315/300 304/337/321
f 325/339/323 306/316/301 305/315/300
f 326/340/324 307/317/302 306/316/301
f 327/341/325 308/319/304 307/317/302
f 328/342/326 309/320/305 308/319/304
f 329/343/327 310/344/328 309/320/305
f 330/345/329 311/322/307 310/344/328
f 331/346/330 312/323/308 311/322/307
f 332/347/331 313/324/309 312/323/308
f 313/324/309 334/348/332 314/325/310
f 334/348/332 315/326/311 314/325/310
f 335/349/333 316/328/313 315/326/311
f 336/350/334 317/329/314 316/328/313
f 337/351/335 318/330/315 317/329/314
f 338/352/336 319/331/316 318/330/315
f 339/353/337 320/354/338 319/331/316
f 320/354/338 321/355/318 301/333/296
f 341/356/339 322/335/319 321/334/318
f 342/357/340 323/336/320 322/335/319
f 343/358/341 324/338/322 323/336/320
f 344/359/342 325/339/323 324/338/322
f 345/360/343 326/340/324 325/339/323
f 326/340/324 347/361/344 327/341/325
f 347/361/344 328/342/326 327/341/325
f 348/362/345 329/343/327 328/342/326
f 349/363/346 330/345/329 329/343/327
f 350/364/347 331/346/330 330/345/329
f 351/365/348 332/347/331 331/346/330
f 352/366/349 333/367/350 332/347/331
f 333/367/350 354/368/351 334/348/332
f 354/368/351 335/349/333 334/348/332
f 335/349/333 356/369/352 336/350/334
f 356/369/352 337/351/335 336/350/334
f 357/370/353 338/352/336 337/351/335
f 338/352/336 359/371/354 339/353/337
f 339/353/337 360/372/355 340/373/356
f 340/373/356 341/374/339 321/355/318
f 361/375/357 342/357/340 341/356/339
f 362/376/358 343/358/341 342/357/340
f 363/377/359 344/359/342 343/358/341
f 364/378/360 345/360/343 344/359/342
f 365/379/361 346/380/362 345/360/343
f 366/381/363 347/361/344 346/380/362
f 347/361/344 368/382/364 348/362/345
f 368/382/364 349/363/346 348/362/345
f 349/363/346 370/383/365 350/364/347
f 370/383/365 351/365/348 350/364/347
f 351/365/348 372/384/366 352/366/349
f 372/384/366 353/385/367 352/366/349
f 373/386/368 354/368/351 353/385/367
f 374/387/369 355/388/370 354/368/351
f 375/389/371 356/369/352 355/388/370
f 376/390/372 357/370/353 356/369/352
f 357/370/353 378/391/373 358/392/374
f 358/392/374 379/393/375 359/371/354
f 379/393/375 360/372/355 359/371/354
f 360/372/355 361/394/357 341/374/339
f 2/3/3 381/395/376 1/1/1
f 3/4/4 381/396/376 2/3/3
f 4/6/6 381/397/376 3/4/4
f 5/8/8 381/398/376 4/6/6
f 6/9/9 381/399/376 5/8/8
f 7/11/11 381/400/376 6/9/9
f 8/13/13 381/401/376 7/11/11
f 9/15/15 381/402/376 8/13/13
f 10/16/16 381/403/376 9/15/15
f 11/18/18 381/404/376 10/16/16
f 12/19/19 381/405/376 11/18/18
f 13/21/21 381/406/376 12/19/19
f 14/22/22 381/407/376 13/21/21
f 15/24/24 381/408/376 14/22/22
f 16/26/26 381/409/376 15/24/24
f 17/28/28 381/410/376 16/26/26
f 18/29/29 381/411/376 17/28/28
f 19/31/31 381/412/376 18/29/29
f 20/33/33 381/413/376 19/31/31
f 1/35/1 381/414/376 20/33/33
f 361/375/357 382/415/377 362/376/358
f 362/376/358 382/416/377 363/377/359
f 363/377/359 382/417/377 364/378/360
f 364/378/360 382/418/377 365/379/361
f 365/379/361 382/419/377 366/381/363
f 366/381/363 382/420/377 367/421/378
f 367/421/378 382/422/377 368/382/364
f 368/382/364 382/423/377 369/424/379
f 369/424/379 382/425/377 370/383/365
f 370/383/365 382/426/377 371/427/380
f 371/427/380 382/428/377 372/384/366
f 372/384/366 382/429/377 373/386/368
f 373/386/368 382/430/377 374/387/369
f 374/387/369 382/431/377 375/389/371
f 375/389/371 382/432/377 376/390/372
f 376/390/372 382/433/377 377/434/381
f 377/434/381 382/435/377 378/391/373
f 378/391/373 382/436/377 379/393/375
f 379/393/375 382/437/377 380/438/382
f 380/438/382 382/439/377 361/394/357
f 1/1/1 21/36/35 22/2/2
f 22/2/2 23/39/38 3/4/4
f 3/4/4 23/39/38 24/5/5
f 4/6/6 24/5/5 25/7/7
f 25/7/7 26/10/10 6/9/9
f 26/10/10 27/12/12 7/11/11
f 27/12/12 28/43/42 8/13/13
f 8/13/13 28/43/42 29/14/14
f 29/14/14 30/45/44 10/16/16
f 10/16/16 30/45/44 31/17/17
f 31/17/17 32/48/47 12/19/19
f 12/19/19 32/48/47 33/20/20
f 33/20/20 34/23/23 14/22/22
f 34/23/23 35/25/25 15/24/24
f 35/25/25 36/52/51 16/26/26
f 16/26/26 36/52/51 37/27/27
f 37/27/27 38/30/30 18/29/29
f 38/30/30 39/32/32 19/31/31
f 39/32/32 40/34/34 20/33/33
f 40/34/34 21/56/35 1/35/1
f 21/36/35 41/57/55 42/37/36
f 22/2/2 42/37/36 43/38/37
f 43/38/37 44/60/58 24/5/5
f 24/5/5 44/60/58 45/40/39
f 25/7/7 45/40/39 46/41/40
f 46/41/40 47/63/61 27/12/12
f 27/12/12 47/63/61 48/42/41
f 28/43/42 48/42/41 49/44/43
f 49/44/43 50/46/45 30/45/44
f 50/46/45 51/47/46 31/17/17
f 51/47/46 52/69/67 32/48/47
f 32/48/47 52/69/67 53/49/48
f 53/49/48 54/50/49 34/23/23
f 54/50/49 55/72/70 35/25/25
f 35/25/25 55/72/70 56/51/50
f 36/52/51 56/51/50 57/53/52
f 57/53/52 58/75/73 38/30/30
f 38/30/30 58/75/73 59/54/53
f 59/54/53 60/55/54 40/34/34
f 60/55/54 41/79/55 21/56/35
f 41/57/55 61/80/77 62/58/56
f 42/37/36 62/58/56 63/59/57
f 63/59/57 64/61/59 44/60/58
f 64/61/59 65/84/81 45/40/39
f 45/40/39 65/84/81 66/62/60
f 66/62/60 67/64/62 47/63/61
f 67/64/62 68/65/63 48/42/41
f 68/65/63 69/66/64 49/44/43
f 69/66/64 70/89/86 50/46/45
f 50/46/45 70/89/86 71/67/65
f 51/47/46 71/67/65 72/68/66
f 52/69/67 72/68/66 73/70/68
f 73/70/68 74/71/69 54/50/49
f 74/71/69 75/94/91 55/72/70
f 55/72/70 75/94/91 76/73/71
f 56/51/50 76/73/71 77/74/72
f 77/74/72 78/76/74 58/75/73
f 78/76/74 79/77/75 59/54/53
f 79/77/75 80/78/76 60/55/54
f 80/78/76 61/100/77 41/79/55
f 61/80/77 81/102/98 82/81/78
f 62/58/56 82/81/78 83/82/79
f 63/59/57 83/82/79 84/83/80
f 84/83/80 85/85/82 65/84/81
f 85/85/82 86/86/83 66/62/60
f 86/86/83 87/108/104 67/64/62
f 67/64/62 87/108/104 88/87/84
f 88/87/84 89/88/85 69/66/64
f 89/88/85 90/90/87 70/89/86
f 90/90/87 91/112/108 71/67/65
f 71/67/65 91/112/108 92/91/88
f 72/68/66 92/91/88 93/92/89
f 93/92/89 94/93/90 74/71/69
f 94/93/90 95/117/113 75/94/91
f 75/94/91 95/117/113 96/95/92
f 96/95/92 97/96/93 77/74/72
f 97/96/93 98/97/94 78/76/74
f 98/97/94 99/98/95 79/77/75
f 99/98/95 100/99/96 80/78/76
f 100/99/96 81/123/98 61/100/77
f 101/101/97 102/103/99 82/81/78
f 102/103/99 103/104/100 83/82/79
f 103/104/100 104/105/101 84/83/80
f 104/105/101 105/106/102 85/85/82
f 105/106/102 106/128/123 86/86/83
f 86/86/83 106/128/123 107/107/103
f 87/108/104 107/107/103 108/109/105
f 108/109/105 109/110/106 89/88/85
f 109/110/106 110/111/107 90/90/87
f 110/111/107 111/113/109 91/112/108
f 111/113/109 112/114/110 92/91/88
f 112/114/110 113/115/111 93/92/89
f 113/115/111 114/116/112 94/93/90
f 114/116/112 115/118/114 95/117/113
f 115/118/114 116/119/115 96/95/92
f 116/119/115 117/120/116 97/96/93
f 117/120/116 118/121/117 98/97/94
f 118/121/117 119/138/133 99/98/95
f 99/98/95 119/138/133 120/122/118
f 120/122/118 101/140/97 81/123/98
f 121/124/119 122/142/136 102/103/99
f 102/103/99 122/142/136 123/125/120
f 103/104/100 123/125/120 124/126/121
f 104/105/101 124/126/121 125/127/122
f 125/127/122 126/147/141 106/128/123
f 106/128/123 126/147/141 127/129/124
f 127/129/124 128/130/125 108/109/105
f 128/130/125 129/151/145 109/110/106
f 109/110/106 129/151/145 130/131/126
f 130/131/126 131/132/127 111/113/109
f 131/132/127 132/154/148 112/114/110
f 112/114/110 132/154/148 133/133/128
f 133/133/128 134/157/151 114/116/112
f 114/116/112 134/157/151 135/134/129
f 135/134/129 136/135/130 116/119/115
f 136/135/130 137/160/154 117/120/116
f 117/120/116 137/160/154 138/136/131
f 118/121/117 138/136/131 139/137/132
f 119/138/133 139/137/132 140/139/134
f 140/139/134 121/164/119 101/140/97
f 141/141/135 142/143/137 122/142/136
f 142/143/137 143/144/138 123/125/120
f 143/144/138 144/145/139 124/126/121
f 144/145/139 145/146/140 125/127/122
f 145/146/140 146/148/142 126/147/141
f 146/148/142 147/170/163 127/129/124
f 127/129/124 147/170/163 148/149/143
f 128/130/125 148/149/143 149/150/144
f 149/150/144 150/152/146 130/131/126
f 150/152/146 151/175/168 131/132/127
f 131/132/127 151/175/168 152/153/147
f 132/154/148 152/153/147 153/155/149
f 133/133/128 153/155/149 154/156/150
f 154/156/150 155/158/152 135/134/129
f 155/158/152 156/159/153 136/135/130
f 156/159/153 157/181/174 137/160/154
f 137/160/154 157/181/174 158/161/155
f 158/161/155 159/162/156 139/137/132
f 159/162/156 160/163/157 140/139/134
f 160/163/157 141/185/135 121/164/119
f 141/141/135 161/186/178 162/165/158
f 162/165/158 163/166/159 143/144/138
f 163/166/159 164/167/160 144/145/139
f 164/167/160 165/168/161 145/146/140
f 165/168/161 166/169/162 146/148/142
f 166/169/162 167/171/164 147/170/163
f 167/171/164 168/172/165 148/149/143
f 168/172/165 169/173/166 149/150/144
f 169/173/166 170/193/185 150/152/146
f 150/152/146 170/193/185 171/174/167
f 171/174/167 172/176/169 152/153/147
f 172/176/169 173/177/170 153/155/149
f 173/177/170 174/178/171 154/156/150
f 174/178/171 175/199/191 155/158/152
f 155/158/152 175/199/191 176/179/172
f 156/159/153 176/179/172 177/180/173
f 157/181/174 177/180/173 178/182/175
f 178/182/175 179/183/176 159/162/156
f 179/183/176 180/184/177 160/163/157
f 180/184/177 161/205/178 141/185/135
f 161/186/178 181/207/198 182/187/179
f 182/187/179 183/188/180 163/166/159
f 183/188/180 184/210/201 164/167/160
f 164/167/160 184/210/201 185/189/181
f 185/189/181 186/212/203 166/169/162
f 166/169/162 186/212/203 187/190/182
f 187/190/182 188/191/183 168/172/165
f 188/191/183 189/192/184 169/173/166
f 189/192/184 190/194/186 170/193/185
f 190/194/186 191/195/187 171/174/167
f 191/195/187 192/196/188 172/176/169
f 192/196/188 193/197/189 173/177/170
f 193/197/189 194/198/190 174/178/171
f 194/198/190 195/200/192 175/199/191
f 195/200/192 196/201/193 176/179/172
f 196/201/193 197/202/194 177/180/173
f 197/202/194 198/223/214 178/182/175
f 178/182/175 198/223/214 199/203/195
f 179/183/176 199/203/195 200/204/196
f 200/204/196 181/227/198 161/205/178
f 201/206/197 202/208/199 182/187/179
f 202/208/199 203/230/219 183/188/180
f 183/188/180 203/230/219 204/209/200
f 204/209/200 205/211/202 185/189/181
f 205/211/202 206/213/204 186/212/203
f 206/213/204 207/214/205 187/190/182
f 207/214/205 208/235/224 188/191/183
f 188/191/183 208/235/224 209/215/206
f 189/192/184 209/215/206 210/216/207
f 190/194/186 210/216/207 211/217/208
f 191/195/187 211/217/208 212/218/209
f 192/196/188 212/218/209 213/219/210
f 193/197/189 213/219/210 214/220/211
f 214/220/211 215/221/212 195/200/192
f 215/221/212 216/243/232 196/201/193
f 196/201/193 216/243/232 217/222/213
f 217/222/213 218/224/215 198/223/214
f 218/224/215 219/225/216 199/203/195
f 219/225/216 220/247/236 200/204/196
f 200/204/196 220/247/236 201/226/197
f 221/228/217 222/229/218 202/208/199
f 222/229/218 223/251/239 203/230/219
f 203/230/219 223/251/239 224/231/220
f 224/231/220 225/232/221 205/211/202
f 225/232/221 226/233/222 206/213/204
f 226/233/222 227/234/223 207/214/205
f 227/234/223 228/236/225 208/235/224
f 228/236/225 229/237/226 209/215/206
f 229/237/226 230/238/227 210/216/207
f 230/238/227 231/239/228 211/217/208
f 231/239/228 232/240/229 212/218/209
f 232/240/229 233/259/247 213/219/210
f 213/219/210 233/259/247 234/241/230
f 234/241/230 235/242/231 215/221/212
f 235/242/231 236/244/233 216/243/232
f 236/244/233 237/262/250 217/222/213
f 217/222/213 237/262/250 238/245/234
f 218/224/215 238/245/234 239/246/235
f 239/246/235 240/266/254 220/247/236
f 220/247/236 240/266/254 221/248/217
f 241/249/237 242/269/256 222/229/218
f 222/229/218 242/269/256 243/250/238
f 243/250/238 244/252/240 224/231/220
f 244/252/240 245/253/241 225/232/221
f 245/253/241 246/274/261 226/233/222
f 226/233/222 246/274/261 247/254/242
f 247/254/242 248/255/243 228/236/225
f 248/255/243 249/256/244 229/237/226
f 249/256/244 250/279/266 230/238/227
f 230/238/227 250/279/266 251/257/245
f 251/257/245 252/282/269 232/240/229
f 232/240/229 252/282/269 253/258/246
f 253/258/246 254/260/248 234/241/230
f 254/260/248 255/285/272 235/242/231
f 235/242/231 255/285/272 256/261/249
f 256/261/249 257/263/251 237/262/250
f 257/263/251 258/264/252 238/245/234
f 258/264/252 259/265/253 239/246/235
f 259/265/253 260/291/278 240/266/254
f 240/266/254 260/291/278 241/267/237
f 261/268/255 262/270/257 242/269/256
f 262/270/257 263/271/258 243/250/238
f 263/271/258 264/272/259 244/252/240
f 264/272/259 265/273/260 245/253/241
f 265/273/260 266/275/262 246/274/261
f 266/275/262 267/276/263 247/254/242
f 267/276/263 268/277/264 248/255/243
f 268/277/264 269/278/265 249/256/244
f 269/278/265 270/300/286 250/279/266
f 250/279/266 270/300/286 271/280/267
f 251/257/245 271/280/267 272/281/268
f 272/281/268 273/283/270 253/258/246
f 273/283/270 274/284/271 254/260/248
f 274/284/271 275/286/273 255/285/272
f 275/286/273 276/287/274 256/261/249
f 276/287/274 277/288/275 257/263/251
f 277/288/275 278/289/276 258/264/252
f 278/289/276 279/290/277 259/265/253
f 279/290/277 280/309/295 260/291/278
f 260/291/278 280/309/295 261/292/255
f 281/293/279 282/294/280 262/270/257
f 282/294/280 283/313/298 263/271/258
f 263/271/258 283/313/298 284/295/281
f 284/295/281 285/296/282 265/273/260
f 285/296/282 286/297/283 266/275/262
f 286/297/283 287/298/284 267/276/263
f 287/298/284 288/318/303 268/277/264
f 268/277/264 288/318/303 289/299/285
f 289/299/285 290/321/306 270/300/286
f 270/300/286 290/321/306 291/301/287
f 271/280/267 291/301/287 292/302/288
f 272/281/268 292/302/288 293/303/289
f 293/303/289 294/304/290 274/284/271
f 294/304/290 295/305/291 275/286/273
f 295/305/291 296/327/312 276/287/274
f 276/287/274 296/327/312 297/306/292
f 277/288/275 297/306/292 298/307/293
f 298/307/293 299/308/294 279/290/277
f 299/308/294 300/332/317 280/309/295
f 280/309/295 300/332/317 281/310/279
f 301/311/296 302/312/297 282/294/280
f 302/312/297 303/314/299 283/313/298
f 303/314/299 304/337/321 284/295/281
f 284/295/281 304/337/321 305/315/300
f 305/315/300 306/316/301 286/297/283
f 306/316/301 307/317/302 287/298/284
f 307/317/302 308/319/304 288/318/303
f 308/319/304 309/320/305 289/299/285
f 309/320/305 310/344/328 290/321/306
f 290/321/306 310/344/328 311/322/307
f 311/322/307 312/323/308 292/302/288
f 312/323/308 313/324/309 293/303/289
f 313/324/309 314/325/310 294/304/290
f 314/325/310 315/326/311 295/305/291
f 315/326/311 316/328/313 296/327/312
f 316/328/313 317/329/314 297/306/292
f 317/329/314 318/330/315 298/307/293
f 318/330/315 319/331/316 299/308/294
f 319/331/316 320/354/338 300/332/317
f 300/332/317 320/354/338 301/333/296
f 321/334/318 322/335/319 302/312/297
f 322/335/319 323/336/320 303/314/299
f 323/336/320 324/338/322 304/337/321
f 324/338/322 325/339/323 305/315/300
f 325/339/323 326/340/324 306/316/301
f 326/340/324 327/341/325 307/317/302
f 327/341/325 328/342/326 308/319/304
f 328/342/326 329/343/327 309/320/305
f 329/343/327 330/345/329 310/344/328
f 330/345/329 331/346/330 311/322/307
f 331/346/330 332/347/331 312/323/308
f 332/347/331 333/367/350 313/324/309
f 313/324/309 333/367/350 334/348/332
f 334/348/332 335/349/333 315/326/311
f 335/349/333 336/350/334 316/328/313
f 336/350/334 337/351/335 317/329/314
f 337/351/335 338/352/336 318/330/315
f 338/352/336 339/353/337 319/331/316
f 339/353/337 340/373/356 320/354/338
f 320/354/338 340/373/356 321/355/318
f 341/356/339 342/357/340 322/335/319
f 342/357/340 343/358/341 323/336/320
f 343/358/341 344/359/342 324/338/322
f 344/359/342 345/360/343 325/339/323
f 345/360/343 346/380/362 326/340/324
f 326/340/324 346/380/362 347/361/344
f 347/361/344 348/362/345 328/342/326
f 348/362/345 349/363/346 329/343/327
f 349/363/346 350/364/347 330/345/329
f 350/364/347 351/365/348 331/346/330
f 351/365/348 352/366/349 332/347/331
f 352/366/349 353/385/367 333/367/350
f 333/367/350 353/385/367 354/368/351
f 354/368/351 355/388/370 335/349/333
f 335/349/333 355/388/370 356/369/352
f 356/369/352 357/370/353 337/351/335
f 357/370/353 358/392/374 338/352/336
f 338/352/336 358/392/374 359/371/354
f 339/353/337 359/371/354 360/372/355
f 340/373/356 360/372/355 341/374/339
f 361/375/357 362/376/358 342/357/340
f 362/376/358 363/377/359 343/358/341
f 363/377/359 364/378/360 344/359/342
f 364/378/360 365/379/361 345/360/343
f 365/379/361 366/381/363 346/380/362
f 366/381/363 367/421/378 347/361/344
f 347/361/344 367/421/378 368/382/364
f 368/382/364 369/424/379 349/363/346
f 349/363/346 369/424/379 370/383/365
f 370/383/365 371/427/380 351/365/348
f 351/365/348 371/427/380 372/384/366
f 372/384/366 373/386/368 353/385/367
f 373/386/368 374/387/369 354/368/351
f 374/387/369 375/389/371 355/388/370
f 375/389/371 376/390/372 356/369/352
f 376/390/372 377/434/381 357/370/353
f 357/370/353 377/434/381 378/391/373
f 358/392/374 378/391/373 379/393/375
f 379/393/375 380/438/382 360/372/355
f 360/372/355 380/438/382 361/394/357
