# Blender 4.0.2
# www.blender.org
mtllib arena.mtl
o Layer0_001
v 118.622864 -5.399997 -277.727600
v 42.699703 -5.399996 -298.966125
v 42.699703 102.168617 -298.966095
v 118.622864 102.168610 -277.727570
v -36.133381 -5.399996 -299.830566
v -36.133381 102.168617 -299.830536
v -112.504044 -5.399996 -280.262115
v -112.504044 102.168610 -280.262085
v -181.207718 -5.399997 -241.594193
v -181.207718 102.168625 -241.594193
v -237.562408 -5.399998 -186.462067
v -237.562408 102.168610 -186.462082
v -277.727600 -5.399999 -118.622864
v -277.727600 102.168617 -118.622871
v -298.966125 -5.400001 -42.699680
v -298.966125 102.168617 -42.699680
v -299.830597 -5.400000 36.133404
v -299.830597 102.168602 36.133404
v -280.262085 -5.400002 112.504066
v -280.262085 102.168610 112.504066
v -241.594223 -5.400002 181.207748
v -241.594223 102.168610 181.207718
v -186.462082 -5.400003 237.562408
v -186.462082 102.168610 237.562393
v -118.622864 -5.400003 277.727600
v -118.622864 102.168617 277.727631
v -42.699680 -5.400003 298.966125
v -42.699680 102.168617 298.966156
v 36.133404 -5.400003 299.830566
v 36.133404 102.168617 299.830597
v 112.504044 -5.400004 280.262115
v 112.504044 102.168617 280.262146
v 181.207718 -5.400003 241.594193
v 181.207718 102.168610 241.594193
v 237.562408 -5.400002 186.462082
v 237.562408 102.168610 186.462067
v 277.727600 -5.400002 118.622864
v 277.727600 102.168610 118.622864
v 298.966125 -5.400000 42.699703
v 298.966125 102.168602 42.699703
v 299.830597 -5.400000 -36.133381
v 299.830597 102.168617 -36.133381
v 280.262085 -5.400000 -112.504021
v 280.262085 102.168617 -112.504021
v 241.594223 -5.399998 -181.207718
v 241.594223 102.168610 -181.207733
v 186.462082 -5.399998 -237.562408
v 186.462082 102.168625 -237.562408
v 27.422260 0.050003 -191.999619
v 76.181023 0.050003 -178.359985
v 76.181023 47.985779 -178.359985
v 27.422260 47.985779 -191.999619
v -76.181023 0.049997 178.360001
v -119.748184 0.049999 152.565445
v -119.748184 47.985779 152.565445
v -76.181023 47.985779 178.360001
v -72.251442 0.050002 -179.987686
v -23.205299 0.050002 -192.554794
v -23.205299 47.985779 -192.554794
v -72.251442 47.985779 -179.987686
v -178.360001 47.985775 -76.181015
v -178.360001 0.050001 -76.181023
v -152.565414 0.050002 -119.748161
v -152.565414 47.985783 -119.748161
v 23.205299 0.049998 192.554794
v -27.422260 0.049997 191.999649
v -27.422260 47.985779 191.999649
v 23.205299 47.985779 192.554794
v -155.154709 47.985775 116.373802
v -155.154709 0.049999 116.373802
v -179.987686 0.049999 72.251457
v -179.987686 47.985775 72.251465
v -192.554794 47.985775 23.205299
v -192.554794 0.050000 23.205301
v -191.999649 0.050000 -27.422241
v -191.999649 47.985771 -27.422247
v -116.373779 0.050001 -155.154678
v -116.373779 47.985783 -155.154678
v 119.748184 0.050001 -152.565414
v 119.748184 47.985783 -152.565414
v 152.565414 0.049998 119.748207
v 152.565414 47.985775 119.748207
v 178.360001 47.985783 76.181053
v 178.360001 0.049999 76.181046
v 72.251442 0.049998 179.987701
v 72.251442 47.985779 179.987701
v 192.554794 0.050000 -23.205278
v 191.999649 0.050000 27.422260
v 191.999649 47.985783 27.422255
v 192.554794 47.985779 -23.205280
v 116.373779 0.049999 155.154724
v 116.373779 47.985779 155.154724
v 179.987686 0.050001 -72.251442
v 179.987686 47.985783 -72.251434
v 155.154709 47.985783 -116.373756
v 155.154709 0.050001 -116.373756
v -210.862411 102.168625 158.157318
v -210.862411 75.318626 158.157349
v -244.611572 75.318611 98.193062
v -244.611572 102.168610 98.193062
v -162.743332 102.168610 207.343460
v -162.743332 75.318611 207.343460
v -103.533546 75.318611 242.399460
v -103.533546 102.168610 242.399460
v -37.268101 75.318619 260.936371
v -37.268101 102.168617 260.936401
v 31.537079 75.318619 261.690887
v 31.537079 102.168617 261.690887
v 98.193062 75.318604 244.611572
v 98.193062 102.168602 244.611572
v 158.157333 75.318611 210.862411
v 158.157333 102.168610 210.862396
v 207.343460 75.318626 162.743332
v 207.343460 102.168625 162.743301
v 242.399460 102.168610 103.533546
v 242.399460 75.318611 103.533546
v 260.936371 102.168602 37.268124
v 260.936371 75.318611 37.268127
v 261.690887 102.168617 -31.537062
v 261.690887 75.318626 -31.537060
v 244.611572 102.168617 -98.193039
v 244.611572 75.318619 -98.193047
v 210.862411 102.168610 -158.157349
v 210.862411 75.318611 -158.157318
v 162.743332 102.168625 -207.343460
v 162.743332 75.318626 -207.343460
v 103.533546 75.318626 -242.399460
v 103.533546 102.168625 -242.399475
v 37.268124 75.318611 -260.936371
v 37.268124 102.168610 -260.936371
v -31.537062 75.318611 -261.690887
v -31.537062 102.168610 -261.690857
v -98.193047 75.318626 -244.611572
v -98.193047 102.168625 -244.611588
v -158.157333 75.318626 -210.862411
v -158.157333 102.168625 -210.862411
v -207.343460 75.318611 -162.743286
v -207.343460 102.168610 -162.743317
v -242.399460 102.168617 -103.533524
v -242.399460 75.318619 -103.533524
v -260.936371 102.168617 -37.268101
v -260.936371 75.318626 -37.268097
v -261.690887 102.168602 31.537079
v -261.690887 75.318611 31.537081
v -181.351410 0.050000 -25.901419
v -181.875763 0.050000 21.918341
v -170.005615 0.049999 68.244423
v -168.468231 0.050001 -71.956047
v -146.549866 0.049998 109.919739
v -144.104202 0.050001 -113.106987
v -113.106987 0.049998 144.104233
v -109.919716 0.050002 -146.549866
v -71.956047 0.049998 168.468231
v -68.244400 0.050002 -170.005615
v -25.901419 0.049998 181.351410
v -21.918341 0.050002 -181.875763
v 21.918341 0.049998 181.875778
v 25.901419 0.050002 -181.351379
v 68.244400 0.049998 170.005646
v 71.956047 0.050002 -168.468201
v 109.919716 0.049998 146.549881
v 113.106987 0.050002 -144.104172
v 144.104202 0.049999 113.106995
v 146.549881 0.050002 -109.919716
v 168.468231 0.049999 71.956062
v 170.005615 0.050001 -68.244400
v 181.351410 0.050000 25.901442
v 181.875763 0.050000 -21.918318
v -184.394104 0.050000 22.221842
v -172.359589 0.049999 69.189339
v -148.579071 0.049998 111.441727
v -114.673096 0.049998 146.099533
v -72.952385 0.049998 170.800903
v -26.260059 0.049998 183.862473
v 22.221821 0.049998 184.394104
v 69.189339 0.049998 172.359604
v 111.441727 0.049998 148.579071
v 146.099533 0.049999 114.673119
v 170.800888 0.050000 72.952385
v 183.862442 0.050000 26.260080
v 184.394104 0.050000 -22.221819
v 172.359589 0.050001 -69.189339
v 148.579071 0.050002 -111.441704
v 114.673096 0.050002 -146.099503
v 72.952385 0.050002 -170.800858
v 26.260059 0.050002 -183.862411
v -22.221821 0.050002 -184.394089
v -69.189339 0.050002 -172.359589
v -111.441727 0.050002 -148.579041
v -146.099533 0.050001 -114.673096
v -170.800888 0.050000 -72.952362
v -183.862442 0.050000 -26.260059
v 25.901419 28.738331 -181.351379
v -21.918341 28.738331 -181.875763
v 71.956047 28.738329 -168.468201
v 113.106987 28.738329 -144.104172
v 146.549881 28.738331 -109.919716
v 170.005615 28.738329 -68.244400
v 181.875763 28.738329 -21.918320
v 181.351410 28.738329 25.901440
v 168.468231 28.738329 71.956062
v 144.104202 28.738327 113.106995
v 109.919716 28.738329 146.549881
v 68.244400 28.738327 170.005646
v 21.918341 28.738327 181.875778
v -25.901419 28.738327 181.351410
v -71.956047 28.738327 168.468231
v -113.106987 28.738329 144.104233
v -146.549866 28.738327 109.919739
v -170.005615 28.738329 68.244423
v -181.875763 28.738329 21.918341
v -181.351410 28.738329 -25.901421
v -168.468231 28.738329 -71.956047
v -144.104202 28.738333 -113.106987
v -109.919716 28.738329 -146.549866
v -68.244400 28.738329 -170.005615
v -183.862442 28.738329 -26.260059
v -184.394104 28.738329 22.221842
v -172.359589 28.738329 69.189339
v -148.579071 28.738327 111.441727
v -114.673096 28.738329 146.099533
v -72.952385 28.738327 170.800903
v -26.260059 28.738327 183.862473
v 22.221821 28.738327 184.394104
v 69.189339 28.738327 172.359604
v 111.441727 28.738329 148.579071
v 146.099533 28.738331 114.673119
v 170.800888 28.738329 72.952385
v 183.862442 28.738329 26.260080
v 184.394104 28.738329 -22.221819
v 172.359589 28.738329 -69.189339
v 148.579071 28.738333 -111.441704
v 114.673096 28.738329 -146.099503
v 72.952385 28.738329 -170.800858
v 26.260059 28.738331 -183.862411
v -22.221821 28.738331 -184.394089
v -69.189339 28.738331 -172.359589
v -111.441727 28.738333 -148.579041
v -146.099533 28.738329 -114.673096
v -170.800888 28.738331 -72.952362
v -111.288284 115.948555 260.555450
v -40.059521 115.948547 280.480743
v -174.932922 115.948540 222.873672
v -226.656174 115.948555 170.003433
v -262.933197 115.948555 105.547813
v -281.291748 115.948547 33.899242
v -280.480713 115.948563 -40.059521
v -260.555389 115.948547 -111.288261
v -222.873657 115.948540 -174.932938
v -170.003464 115.948555 -226.656204
v -105.547806 115.948555 -262.933197
v -33.899220 115.948555 -281.291718
v 40.059521 115.948555 -280.480682
v 111.288284 115.948540 -260.555389
v 174.932922 115.948555 -222.873688
v 33.899220 115.948547 281.291779
v 105.547806 115.948547 262.933228
v 170.003464 115.948540 226.656204
v 222.873688 115.948555 174.932922
v 260.555389 115.948555 111.288307
v 280.480713 115.948540 40.059544
v 281.291748 115.948547 -33.899216
v 262.933197 115.948547 -105.547806
v 226.656174 115.948540 -170.003479
vn 0.8000 -0.0000 -0.6000
vn 0.9280 -0.0000 -0.3725
vn 0.6174 -0.0000 -0.7866
vn 0.3928 -0.0000 -0.9196
vn 0.1414 -0.0000 -0.9900
vn -0.1196 -0.0000 -0.9928
vn -0.3725 -0.0000 -0.9280
vn -0.6000 -0.0000 -0.8000
vn -0.7866 -0.0000 -0.6174
vn -0.9196 -0.0000 -0.3928
vn -0.9900 -0.0000 -0.1414
vn -0.9928 -0.0000 0.1196
vn -0.9280 -0.0000 0.3725
vn -0.8000 -0.0000 0.6000
vn -0.6174 -0.0000 0.7866
vn -0.3928 -0.0000 0.9196
vn -0.1414 -0.0000 0.9900
vn 0.1196 -0.0000 0.9928
vn 0.3725 -0.0000 0.9280
vn 0.6000 -0.0000 0.8000
vn 0.7866 -0.0000 0.6174
vn 0.9196 -0.0000 0.3928
vn 0.9900 -0.0000 0.1414
vn 0.9928 -0.0000 -0.1196
vn 0.1609 -0.8022 -0.5750
vn 0.1551 0.8177 -0.5544
vn 0.2933 0.8177 -0.4953
vn 0.4115 0.8177 -0.4026
vn 0.5017 0.8177 -0.2823
vn 0.5576 0.8177 -0.1429
vn 0.5756 0.8177 0.0063
vn 0.5544 0.8177 0.1551
vn 0.4953 0.8177 0.2933
vn 0.4026 0.8177 0.4115
vn 0.2823 0.8177 0.5017
vn 0.1429 0.8177 0.5576
vn -0.0063 0.8177 0.5756
vn -0.1551 0.8177 0.5544
vn -0.2933 0.8177 0.4953
vn 0.0063 0.8177 -0.5756
vn -0.1429 0.8177 -0.5576
vn -0.2823 0.8177 -0.5017
vn -0.4026 0.8177 -0.4115
vn -0.4953 0.8177 -0.2933
vn -0.5544 0.8177 -0.1551
vn -0.5756 0.8177 -0.0063
vn -0.5576 0.8177 0.1429
vn -0.5017 0.8177 0.2823
vn -0.4115 0.8177 0.4026
vn 0.4268 0.8022 -0.4175
vn -0.0065 0.8022 0.5970
vn 0.1482 0.8022 0.5784
vn 0.2929 0.8022 0.5203
vn 0.4175 0.8022 0.4268
vn 0.5138 0.8022 0.3042
vn 0.5750 0.8022 0.1609
vn 0.5970 0.8022 0.0065
vn 0.5784 0.8022 -0.1482
vn 0.5203 0.8022 -0.2929
vn 0.3042 0.8022 -0.5138
vn -0.3042 0.8022 0.5138
vn -0.4268 0.8022 0.4175
vn -0.5203 0.8022 0.2929
vn 0.1609 0.8022 -0.5750
vn 0.0065 0.8022 -0.5970
vn -0.1482 0.8022 -0.5784
vn -0.2929 0.8022 -0.5203
vn -0.4175 0.8022 -0.4268
vn -0.5138 0.8022 -0.3042
vn -0.5750 0.8022 -0.1609
vn -0.5970 0.8022 -0.0065
vn -0.5784 0.8022 0.1482
vn -0.0000 1.0000 -0.0000
vn -0.1414 -0.0021 0.9900
vn -0.3950 -0.0011 0.9187
vn -0.1391 0.0011 0.9903
vn -0.3928 0.0021 0.9196
vn 0.2923 0.9309 -0.2192
vn 0.2256 0.9309 -0.2874
vn 0.2874 0.9309 0.2256
vn 0.2192 0.9309 0.2923
vn 0.0437 0.9309 0.3627
vn -0.0517 0.9309 0.3617
vn -0.1361 0.9309 -0.3391
vn -0.0437 0.9309 -0.3627
vn -0.2874 0.9309 -0.2256
vn -0.2192 0.9309 -0.2923
vn -0.1435 0.9309 0.3360
vn -0.2256 0.9309 0.2874
vn 0.1361 0.9309 0.3391
vn -0.2923 0.9309 0.2192
vn 0.3360 0.9309 0.1435
vn 0.3617 0.9309 0.0517
vn 0.1435 0.9309 -0.3360
vn 0.3391 0.9309 -0.1361
vn -0.3360 0.9309 -0.1435
vn -0.3617 0.9309 -0.0517
vn -0.3627 0.9309 0.0437
vn 0.0517 0.9309 -0.3617
vn 0.3627 0.9309 -0.0437
vn -0.3391 0.9309 0.1361
vt 165.791702 -0.000000
vt 173.000000 2.796900
vt 165.791702 2.796900
vt 158.583298 -0.000000
vt 158.583298 2.796900
vt 151.375000 2.796900
vt 151.375000 0.000000
vt 144.166702 2.796900
vt 144.166702 0.000000
vt 136.958298 2.796900
vt 136.958298 0.000000
vt 129.750000 2.796900
vt 129.750000 -0.000000
vt 122.541702 2.796900
vt 122.541702 0.000000
vt 115.333298 2.796900
vt 115.333298 0.000000
vt 108.125000 -0.000000
vt 108.125000 2.796900
vt 100.916702 0.000000
vt 100.916702 2.796900
vt 93.708298 -0.000000
vt 93.708298 2.796900
vt 86.500000 0.000000
vt 86.500000 2.796900
vt 79.291702 -0.000000
vt 79.291702 2.796900
vt 72.083298 -0.000000
vt 64.875000 2.796900
vt 64.875000 0.000000
vt 57.666698 2.796900
vt 57.666698 -0.000000
vt 50.458302 2.796900
vt 50.458302 -0.000000
vt 43.250000 2.796900
vt 43.250000 -0.000000
vt 36.041698 2.796900
vt 36.041698 -0.000000
vt 28.833300 2.796900
vt 28.833300 -0.000000
vt 21.625000 -0.000000
vt 21.625000 2.796900
vt 14.416700 0.000000
vt 14.416700 2.796900
vt 7.208300 0.000000
vt 7.208300 2.796900
vt 0.000000 0.000000
vt -0.000000 2.796900
vt 173.000000 -0.000000
vt 72.083298 2.796900
vt 2.122800 -15.862400
vt -1.697300 -14.201200
vt -1.819100 -15.862400
vt 2.000900 22.983000
vt -1.568400 21.249800
vt 1.872000 21.249800
vt 2.068600 23.049801
vt -1.500800 21.316601
vt 1.939700 21.316601
vt 2.121300 23.138201
vt -1.448000 21.405100
vt 1.992400 21.405100
vt 2.026600 21.509199
vt -1.542700 23.242300
vt -1.413900 21.509199
vt 2.039900 21.621799
vt -1.529400 23.354900
vt -1.400600 21.621799
vt 2.160200 23.468399
vt -1.409100 21.735201
vt 2.031400 21.735201
vt -1.567600 23.575001
vt 2.001700 21.841801
vt 2.130500 23.575001
vt -1.616500 23.667500
vt 1.952800 21.934299
vt 2.081600 23.667500
vt -1.681300 23.739500
vt 1.888100 22.006300
vt 2.016900 23.739500
vt -1.757400 23.786200
vt 1.811900 22.052999
vt 1.940700 23.786200
vt -1.839800 23.804300
vt 1.729500 22.071100
vt 1.858300 23.804300
vt 1.775300 23.792700
vt -1.794000 22.059500
vt 1.646400 22.059500
vt -1.872000 22.018999
vt 1.697300 23.752100
vt -2.000900 23.752100
vt -1.939700 21.952200
vt 1.629600 23.685301
vt -2.068600 23.685301
vt 1.794000 21.209299
vt -1.775300 22.942400
vt -1.646400 21.209299
vt 1.711000 21.197701
vt -1.858300 22.930799
vt -1.729500 21.197701
vt 1.628600 21.215799
vt -1.940700 22.948999
vt -1.811900 21.215799
vt 1.552400 21.262501
vt -2.016900 22.995600
vt -1.888100 21.262501
vt 1.487700 21.334499
vt -2.081600 23.067699
vt -1.952800 21.334499
vt 1.438800 21.427000
vt -2.130500 23.160101
vt -2.001700 21.427000
vt -2.031400 21.533600
vt 1.537900 23.266701
vt -2.160200 23.266701
vt -2.039900 21.646999
vt 1.529400 23.380199
vt -2.168700 23.380199
vt -2.026600 21.759600
vt 1.542700 23.492800
vt -2.155400 23.492800
vt -1.992400 21.863701
vt 1.576900 23.596901
vt -2.121300 23.596901
vt 2.243100 -16.468201
vt -1.576900 -14.807000
vt -1.698800 -16.468201
vt -2.044700 -15.822400
vt 1.775300 -14.161200
vt -1.922900 -14.161200
vt 1.858300 -14.149700
vt -1.961700 -15.810900
vt 1.980200 -15.810900
vt -1.757400 -14.167600
vt 2.062600 -15.828800
vt 1.940700 -14.167600
vt -1.681300 -14.213700
vt 2.138800 -15.874900
vt 2.016900 -14.213700
vt 2.081600 -14.284800
vt -1.738400 -15.945900
vt 2.203500 -15.945900
vt 2.130500 -14.376000
vt -1.689500 -16.037201
vt 2.252400 -16.037201
vt -1.537900 -14.481200
vt 2.282100 -16.142401
vt 2.160200 -14.481200
vt 2.290600 -16.254400
vt -1.529400 -14.593200
vt -1.651300 -16.254400
vt 2.277300 -16.365499
vt -1.542700 -14.704300
vt -1.664600 -16.365499
vt 2.190400 -16.555500
vt -1.629600 -14.894300
vt -1.751500 -16.555500
vt -2.068600 -14.267100
vt 1.751500 -15.928300
vt 1.629600 -14.267100
vt -2.121300 -14.354400
vt 1.698800 -16.015600
vt 1.576900 -14.354400
vt -2.277300 -16.118299
vt 1.542700 -14.457100
vt -2.155400 -14.457100
vt 2.122800 -16.621401
vt -1.697300 -14.960200
vt -1.819100 -16.621401
vt 2.044700 -16.661400
vt -1.775300 -15.000200
vt -1.897100 -16.661400
vt 1.961700 -16.672899
vt -1.858300 -15.011700
vt -1.980200 -16.672899
vt 1.879300 -16.655001
vt -1.940700 -14.993800
vt -2.062600 -16.655001
vt -2.138800 -16.608900
vt 1.681300 -14.947700
vt -2.016900 -14.947700
vt 1.738400 -16.537800
vt -2.081600 -14.876600
vt -2.203500 -16.537800
vt 1.689500 -16.446600
vt -2.130500 -14.785400
vt -2.252400 -16.446600
vt 1.659800 -16.341400
vt -2.160200 -14.680200
vt -2.282100 -16.341400
vt -2.290600 -16.229401
vt 1.529400 -14.568200
vt -2.168700 -14.568200
vt 2.000900 -14.201200
vt -1.697300 22.983000
vt -1.629600 23.049801
vt -1.576900 23.138201
vt 2.155400 23.242300
vt 2.168700 23.354900
vt -1.537900 23.468399
vt -1.438800 21.841801
vt -1.487700 21.934299
vt -1.552400 22.006300
vt -1.628600 22.052999
vt -1.711000 22.071100
vt -1.922900 23.792700
vt 1.568400 22.018999
vt 1.500800 21.952200
vt 1.922900 22.942400
vt 1.839800 22.930799
vt 1.757400 22.948999
vt 1.681300 22.995600
vt 1.616500 23.067699
vt 1.567600 23.160101
vt 1.409100 21.533600
vt 1.400600 21.646999
vt 1.413900 21.759600
vt 1.448000 21.863701
vt 2.121300 -14.807000
vt 1.897100 -15.822400
vt -1.839800 -14.149700
vt -1.879300 -15.828800
vt -1.803100 -15.874900
vt -1.616500 -14.284800
vt -1.567600 -14.376000
vt -1.659800 -16.142401
vt 2.168700 -14.593200
vt 2.155400 -14.704300
vt 2.068600 -14.894300
vt -2.190400 -15.928300
vt -2.243100 -16.015600
vt 1.664600 -16.118299
vt 2.000900 -14.960200
vt 1.922900 -15.000200
vt 1.839800 -15.011700
vt 1.757400 -14.993800
vt 1.803100 -16.608900
vt 1.616500 -14.876600
vt 1.567600 -14.785400
vt 1.537900 -14.680200
vt 1.651300 -16.229401
vt 1.000000 0.000000
vt 0.000000 1.000000
vt 1.000000 1.000000
vt 0.000023 0.000035
vt 1.000060 1.000060
vt 0.000008 1.000002
vt 0.999961 0.999998
vt 0.000000 1.000018
vt 0.999953 1.000044
vt 0.000000 1.000070
vt 0.999941 1.000030
vt 0.000000 1.000001
vt 0.999990 0.999979
vt 0.000000 1.000011
vt 1.000000 1.000000
vt 0.000000 0.999997
vt 1.000010 0.000000
vt 0.000000 0.999992
vt 1.000000 0.000000
vt 0.000000 0.999993
vt 0.999993 0.000000
vt 0.000000 0.999078
vt 0.000023 0.000037
vt 1.000027 -0.000027
vt 1.000037 1.000016
vt 0.999932 0.000000
vt 1.000018 0.999989
vt 1.000261 0.000000
vt 0.999892 1.000000
vt 1.000015 0.999969
vt 0.999939 0.000000
vt 1.000006 0.999975
vt 1.000023 0.000000
vt 0.999969 0.999969
vt 1.000005 0.000000
vt 1.000005 0.999996
vt 0.000000 0.999998
vt 1.000006 0.000000
vt 0.000000 1.000000
vt -1.870200 -0.000800
vt -2.338800 0.999400
vt -2.338700 -0.000900
vt -1.401800 -0.000700
vt -1.870300 0.999500
vt -0.933300 -0.000500
vt -1.401900 0.999700
vt -0.464900 -0.000400
vt -0.933400 0.999800
vt 0.003600 -0.000200
vt -0.465000 0.999900
vt 0.358600 1.007200
vt 0.370200 -0.024300
vt 0.841600 1.022000
vt 0.853200 -0.009500
vt -0.936600 1.000000
vt -1.404900 0.000000
vt -0.936600 0.000000
vt -0.468300 1.000000
vt -0.468300 0.000000
vt 0.354900 1.007100
vt 0.366400 -0.024000
vt 0.849300 -0.009400
vt 0.017900 -0.001200
vt -0.451700 0.999600
vt -0.451100 -0.001900
vt 0.385400 -0.025300
vt 0.017400 1.000300
vt 0.869100 -0.009800
vt 0.373400 1.007500
vt 1.352700 0.005700
vt 0.857000 1.022900
vt 1.836400 0.021100
vt 1.340700 1.038400
vt 2.308000 1.069400
vt 1.824300 1.053900
vt 2.320000 0.036600
vt 2.791600 1.084900
vt 2.803700 0.052100
vt 3.275300 1.100300
vt 3.287300 0.067600
vt 3.758900 1.115800
vt 3.771000 0.083000
vt 4.242600 1.131300
vt -2.807200 0.999200
vt -2.807100 -0.001100
vt 0.310000 0.036300
vt 0.074100 0.325000
vt 0.074700 0.050600
vt 0.345300 0.034100
vt 0.107800 0.323700
vt 0.108700 0.048600
vt 0.325300 0.035400
vt 0.088700 0.324500
vt 0.089400 0.049700
vt 0.302400 0.036800
vt 0.066800 0.325300
vt 0.299800 0.316500
vt 0.331500 0.035000
vt 0.094500 0.324200
vt 0.095300 0.049400
vt 0.116600 0.048100
vt 0.350600 0.314600
vt 0.115700 0.323400
vt -0.220200 0.322200
vt -0.219500 0.047400
vt -0.201700 0.320900
vt -0.200800 0.045800
vt 0.624800 0.044400
vt 0.307400 0.316200
vt 0.067400 0.051100
vt -0.214600 0.321800
vt -0.213800 0.046900
vt 0.294900 0.037200
vt 0.059700 0.325500
vt 0.060200 0.051500
vt 0.617000 0.044700
vt -0.523700 0.319300
vt -0.522900 0.044500
vt 0.292400 0.316800
vt -0.241000 0.049300
vt 0.658100 0.324000
vt 0.342400 0.314900
vt 0.607300 0.324500
vt 0.609800 0.044900
vt 0.353600 0.033600
vt 0.667100 0.323900
vt -0.529200 0.319900
vt -0.528400 0.045100
vt -0.234400 0.323100
vt -0.233800 0.048700
vt 0.937000 0.332500
vt 0.939700 0.052500
vt 0.003500 1.000100
vt -1.404900 1.000000
vt 0.837800 1.021800
vt 4.254700 0.098500
vt 0.322600 0.315700
vt 0.328600 0.315400
vt 0.622200 0.324400
vt 0.614400 0.324400
vt -0.241500 0.323600
vt 0.661100 0.043200
vt 0.670100 0.042900
vt 0.015869 0.440008
vt 0.051579 0.697116
vt 0.017298 0.570883
vt 0.047472 0.313061
vt 0.116570 0.809958
vt 0.109964 0.198791
vt 0.207450 0.901553
vt 0.199059 0.105054
vt 0.318328 0.965830
vt 0.308508 0.038455
vt 0.441704 0.998325
vt 0.558296 0.001675
vt 0.569009 0.996897
vt 0.691492 0.961545
vt 0.792550 0.098447
vt 0.801120 0.894768
vt 0.890036 0.801209
vt 0.883609 0.190042
vt 0.952528 0.686939
vt 0.948421 0.302884
vt 0.984131 0.559992
vt -0.804000 -0.523000
vt -0.791800 -0.521500
vt -0.803100 -0.445300
vt -0.773900 -0.593600
vt -0.785200 -0.598300
vt -0.748200 -0.666000
vt -0.738400 -0.658400
vt -0.695400 -0.721500
vt -0.687900 -0.711600
vt -0.630500 -0.761100
vt -0.625700 -0.749500
vt -0.557800 -0.782000
vt -0.556100 -0.769600
vt -0.482300 -0.782900
vt -0.483800 -0.770400
vt -0.413800 -0.751900
vt -0.409200 -0.763600
vt -0.350800 -0.715400
vt -0.343500 -0.725500
vt -0.299200 -0.663400
vt -0.289500 -0.671200
vt -0.262300 -0.599400
vt -0.251100 -0.604300
vt -0.242900 -0.527700
vt -0.230700 -0.529500
vt -0.242100 -0.453300
vt -0.229900 -0.451800
vt -0.248600 -0.376500
vt -0.260000 -0.381200
vt -0.285700 -0.308800
vt -0.295500 -0.316400
vt -0.338400 -0.253300
vt -0.346000 -0.263200
vt -0.403400 -0.213700
vt -0.408200 -0.225300
vt -0.476100 -0.192800
vt -0.477800 -0.205300
vt -0.550100 -0.204500
vt -0.551500 -0.191900
vt -0.620100 -0.222900
vt -0.624600 -0.211200
vt -0.683100 -0.259400
vt -0.690400 -0.249300
vt -0.734700 -0.311400
vt -0.744400 -0.303700
vt -0.771500 -0.375500
vt -0.782800 -0.370500
vt -0.791000 -0.447100
vt 0.454000 0.773100
vt 0.543000 0.897300
vt 0.529500 0.773100
vt 0.546100 0.908800
vt 0.457100 0.784700
vt 0.443600 0.908800
vt 0.553400 0.909900
vt 0.464300 0.785700
vt 0.450800 0.909900
vt 0.537900 0.769200
vt 0.448900 0.893300
vt 0.551400 0.893300
vt 0.542600 0.770400
vt 0.453600 0.894600
vt 0.556200 0.894600
vt 0.557700 0.907800
vt 0.468700 0.783600
vt 0.455100 0.907800
vt 0.548400 0.909700
vt 0.459400 0.785600
vt 0.445800 0.909700
vt 0.545700 0.781900
vt 0.456700 0.906100
vt 0.559300 0.906100
vt 0.555700 0.909100
vt 0.466700 0.784900
vt 0.453100 0.909100
vt 0.441600 0.907500
vt 0.530700 0.783300
vt 0.455200 0.783300
vt 0.440200 0.905700
vt 0.529200 0.781500
vt 0.453700 0.781500
vt 0.455600 0.771500
vt 0.544600 0.895600
vt 0.531100 0.771500
vt 0.453000 0.775100
vt 0.542000 0.899300
vt 0.528500 0.775100
vt 0.470500 0.773600
vt 0.559500 0.897700
vt 0.546000 0.773600
vt 0.544500 0.771800
vt 0.455500 0.896000
vt 0.558100 0.896000
vt 0.540300 0.769500
vt 0.451300 0.893700
vt 0.553900 0.893700
vt 0.471400 0.775600
vt 0.560400 0.899800
vt 0.546900 0.775600
vt 0.446400 0.893600
vt 0.535400 0.769400
vt 0.459900 0.769400
vt 0.541900 0.903600
vt 0.452900 0.779500
vt 0.439300 0.903600
vt 0.457600 0.770200
vt 0.546600 0.894300
vt 0.533100 0.770200
vt 0.560700 0.902000
vt 0.471700 0.777800
vt 0.458100 0.902000
vt 0.546700 0.779900
vt 0.457700 0.904100
vt 0.560300 0.904100
vt 0.448300 0.910100
vt 0.537300 0.785900
vt 0.461900 0.785900
vt 0.439100 0.901500
vt 0.528100 0.777300
vt 0.452600 0.777300
vt 0.431170 0.003103
vt 0.681672 0.034170
vt 0.982702 0.428938
vt 0.440500 0.897300
vt 0.532600 0.784700
vt 0.539800 0.785700
vt 0.462400 0.769200
vt 0.467100 0.770400
vt 0.544100 0.783600
vt 0.534900 0.785600
vt 0.470200 0.781900
vt 0.542100 0.784900
vt 0.544200 0.907500
vt 0.542800 0.905700
vt 0.442000 0.895600
vt 0.439400 0.899300
vt 0.457000 0.897700
vt 0.469100 0.771800
vt 0.464900 0.769500
vt 0.457900 0.899800
vt 0.549000 0.893600
vt 0.528300 0.779500
vt 0.444100 0.894300
vt 0.547100 0.777800
vt 0.471300 0.779900
vt 0.550900 0.910100
vt 0.541600 0.901500
s 1
usemtl Stone_Flagstone_Ashlar
f 98/1/1 100/2/2 97/3/1
f 102/4/3 97/3/1 101/5/3
f 102/4/3 104/6/4 103/7/4
f 103/7/4 106/8/5 105/9/5
f 105/9/5 108/10/6 107/11/6
f 107/11/6 110/12/7 109/13/7
f 109/13/7 112/14/8 111/15/8
f 111/15/8 114/16/9 113/17/9
f 114/16/9 116/18/10 113/17/9
f 115/19/10 118/20/11 116/18/10
f 117/21/11 120/22/12 118/20/11
f 119/23/12 122/24/13 120/22/12
f 121/25/13 124/26/14 122/24/13
f 123/27/14 126/28/15 124/26/14
f 126/28/15 128/29/16 127/30/16
f 127/30/16 130/31/17 129/32/17
f 129/32/17 132/33/18 131/34/18
f 131/34/18 134/35/19 133/36/19
f 133/36/19 136/37/20 135/38/20
f 135/38/20 138/39/21 137/40/21
f 140/41/22 138/39/21 139/42/22
f 142/43/23 139/42/22 141/44/23
f 144/45/24 141/44/23 143/46/24
f 99/47/2 143/46/24 100/48/2
f 98/1/1 99/49/2 100/2/2
f 102/4/3 98/1/1 97/3/1
f 102/4/3 101/5/3 104/6/4
f 103/7/4 104/6/4 106/8/5
f 105/9/5 106/8/5 108/10/6
f 107/11/6 108/10/6 110/12/7
f 109/13/7 110/12/7 112/14/8
f 111/15/8 112/14/8 114/16/9
f 114/16/9 115/19/10 116/18/10
f 115/19/10 117/21/11 118/20/11
f 117/21/11 119/23/12 120/22/12
f 119/23/12 121/25/13 122/24/13
f 121/25/13 123/27/14 124/26/14
f 123/27/14 125/50/15 126/28/15
f 126/28/15 125/50/15 128/29/16
f 127/30/16 128/29/16 130/31/17
f 129/32/17 130/31/17 132/33/18
f 131/34/18 132/33/18 134/35/19
f 133/36/19 134/35/19 136/37/20
f 135/38/20 136/37/20 138/39/21
f 140/41/22 137/40/21 138/39/21
f 142/43/23 140/41/22 139/42/22
f 144/45/24 142/43/23 141/44/23
f 99/47/2 144/45/24 143/46/24
usemtl Roofing_Tile_Spanish
f 26/51/25 242/52/25 28/53/25
f 241/54/26 106/55/26 104/56/26
f 243/57/27 104/58/27 101/59/27
f 244/60/28 101/61/28 97/62/28
f 100/63/29 244/64/29 97/65/29
f 143/66/30 245/67/30 100/68/30
f 247/69/31 143/70/31 141/71/31
f 247/72/32 139/73/32 248/74/32
f 248/75/33 138/76/33 249/77/33
f 249/78/34 136/79/34 250/80/34
f 250/81/35 134/82/35 251/83/35
f 251/84/36 132/85/36 252/86/36
f 253/87/37 132/88/37 130/89/37
f 130/90/38 254/91/38 253/92/38
f 128/93/39 255/94/39 254/95/39
f 106/96/40 256/97/40 108/98/40
f 108/99/41 257/100/41 110/101/41
f 110/102/42 258/103/42 112/104/42
f 112/105/43 259/106/43 114/107/43
f 114/108/44 260/109/44 115/110/44
f 115/111/45 261/112/45 117/113/45
f 119/114/46 261/115/46 262/116/46
f 121/117/47 262/118/47 263/119/47
f 123/120/48 263/121/48 264/122/48
f 125/123/49 264/124/49 255/125/49
f 48/126/50 264/127/50 46/128/50
f 28/129/51 256/130/51 242/131/51
f 257/132/52 30/133/52 32/134/52
f 257/135/53 34/136/53 258/137/53
f 258/138/54 36/139/54 259/140/54
f 260/141/55 36/142/55 38/143/55
f 261/144/56 38/145/56 40/146/56
f 261/147/57 42/148/57 262/149/57
f 44/150/58 262/151/58 42/152/58
f 46/153/59 263/154/59 44/155/59
f 4/156/60 255/157/60 48/158/60
f 243/159/61 26/160/61 241/161/61
f 244/162/62 24/163/62 243/164/62
f 20/165/63 244/166/63 245/167/63
f 3/168/64 254/169/64 4/170/64
f 6/171/65 253/172/65 3/173/65
f 8/174/66 252/175/66 6/176/66
f 10/177/67 251/178/67 8/179/67
f 10/180/68 249/181/68 250/182/68
f 14/183/69 249/184/69 12/185/69
f 16/186/70 248/187/70 14/188/70
f 18/189/71 247/190/71 16/191/71
f 18/192/72 245/193/72 246/194/72
f 26/51/25 241/195/25 242/52/25
f 241/54/26 242/196/26 106/55/26
f 243/57/27 241/197/27 104/58/27
f 244/60/28 243/198/28 101/61/28
f 100/63/29 245/199/29 244/64/29
f 143/66/30 246/200/30 245/67/30
f 247/69/31 246/201/31 143/70/31
f 247/72/32 141/202/32 139/73/32
f 248/75/33 139/203/33 138/76/33
f 249/78/34 138/204/34 136/79/34
f 250/81/35 136/205/35 134/82/35
f 251/84/36 134/206/36 132/85/36
f 253/87/37 252/207/37 132/88/37
f 130/90/38 128/208/38 254/91/38
f 128/93/39 125/209/39 255/94/39
f 106/96/40 242/210/40 256/97/40
f 108/99/41 256/211/41 257/100/41
f 110/102/42 257/212/42 258/103/42
f 112/105/43 258/213/43 259/106/43
f 114/108/44 259/214/44 260/109/44
f 115/111/45 260/215/45 261/112/45
f 119/114/46 117/216/46 261/115/46
f 121/117/47 119/217/47 262/118/47
f 123/120/48 121/218/48 263/121/48
f 125/123/49 123/219/49 264/124/49
f 48/126/50 255/220/50 264/127/50
f 28/129/51 30/221/51 256/130/51
f 257/132/52 256/222/52 30/133/52
f 257/135/53 32/223/53 34/136/53
f 258/138/54 34/224/54 36/139/54
f 260/141/55 259/225/55 36/142/55
f 261/144/56 260/226/56 38/145/56
f 261/147/57 40/227/57 42/148/57
f 44/150/58 263/228/58 262/151/58
f 46/153/59 264/229/59 263/154/59
f 4/156/60 254/230/60 255/157/60
f 243/159/61 24/231/61 26/160/61
f 244/162/62 22/232/62 24/163/62
f 20/165/63 22/233/63 244/166/63
f 3/168/64 253/234/64 254/169/64
f 6/171/65 252/235/65 253/172/65
f 8/174/66 251/236/66 252/175/66
f 10/177/67 250/237/67 251/178/67
f 10/180/68 12/238/68 249/181/68
f 14/183/69 248/239/69 249/184/69
f 16/186/70 247/240/70 248/187/70
f 18/189/71 246/241/71 247/190/71
f 18/192/72 20/242/72 245/193/72
usemtl Color_A11
f 158/243/17 194/244/18 156/47/18
f 160/243/16 193/244/17 158/47/17
f 162/243/15 195/244/16 160/47/16
f 197/245/14 162/47/15 164/243/14
f 198/245/13 164/47/14 166/243/13
f 199/245/12 166/47/13 168/243/12
f 200/245/11 168/47/12 167/243/11
f 201/245/10 167/47/11 165/243/10
f 202/245/9 165/47/10 163/243/9
f 161/243/8 202/244/9 163/47/9
f 159/243/7 203/244/8 161/47/8
f 157/243/6 204/244/7 159/47/7
f 155/243/5 205/244/6 157/47/6
f 153/243/4 206/244/5 155/47/5
f 151/243/3 207/244/4 153/47/4
f 151/246/3 209/247/1 208/248/3
f 149/249/1 210/47/2 209/250/1
f 147/47/2 211/251/24 210/252/2
f 146/47/24 212/253/23 211/254/24
f 145/47/23 213/255/22 212/256/23
f 148/47/22 214/257/21 213/258/22
f 152/259/20 214/260/21 150/47/21
f 154/261/19 215/262/20 152/47/20
f 156/263/18 216/264/19 154/47/19
f 211/47/73 218/47/73 219/47/73
f 210/47/73 219/47/73 220/47/73
f 209/47/73 220/47/73 221/47/73
f 208/47/73 221/47/73 222/47/73
f 207/47/73 222/47/73 223/47/73
f 206/47/73 223/47/73 224/47/73
f 205/47/73 224/47/73 204/47/73
f 204/47/73 225/47/73 203/47/73
f 203/47/73 226/47/73 202/47/73
f 202/47/73 227/47/73 201/47/73
f 201/47/73 228/47/73 200/47/73
f 200/47/73 229/47/73 199/47/73
f 199/47/73 230/47/73 231/47/73
f 198/47/73 231/47/73 232/47/73
f 197/47/73 232/47/73 233/47/73
f 196/47/73 233/47/73 234/47/73
f 195/47/73 234/47/73 235/47/73
f 193/47/73 235/47/73 194/47/73
f 194/47/73 236/47/73 216/47/73
f 216/47/73 237/47/73 215/47/73
f 215/47/73 238/47/73 214/47/73
f 214/47/73 239/47/73 213/47/73
f 213/47/73 240/47/73 212/47/73
f 212/47/73 217/47/73 211/47/73
f 174/47/17 222/47/16 173/47/16
f 173/47/16 221/47/15 172/47/15
f 221/47/15 171/47/14 172/47/15
f 220/47/14 170/47/13 171/47/14
f 219/47/13 169/47/12 170/47/13
f 218/47/12 192/47/11 169/47/12
f 217/47/11 191/47/10 192/47/11
f 240/47/10 190/47/9 191/47/10
f 190/47/9 238/47/8 189/47/8
f 189/47/8 237/47/7 188/47/7
f 188/47/7 236/47/6 187/47/6
f 187/47/6 235/47/5 186/47/5
f 186/47/5 234/47/4 185/47/4
f 185/47/4 233/47/3 184/47/3
f 183/47/1 233/47/3 232/47/1
f 182/47/2 232/47/1 231/47/2
f 181/47/24 231/47/2 230/47/24
f 180/47/23 230/47/24 229/47/23
f 179/47/22 229/47/23 228/47/22
f 178/47/21 228/47/22 227/47/21
f 178/47/21 226/47/20 177/47/20
f 177/47/20 225/47/19 176/47/19
f 176/47/19 224/47/18 175/47/18
f 175/47/18 223/47/17 174/47/17
f 158/243/17 193/245/17 194/244/18
f 160/243/16 195/245/16 193/244/17
f 162/243/15 196/245/15 195/244/16
f 197/245/14 196/244/15 162/47/15
f 198/245/13 197/244/14 164/47/14
f 199/245/12 198/244/13 166/47/13
f 200/245/11 199/244/12 168/47/12
f 201/245/10 200/244/11 167/47/11
f 202/245/9 201/244/10 165/47/10
f 161/243/8 203/245/8 202/244/9
f 159/243/7 204/245/7 203/244/8
f 157/243/6 205/245/6 204/244/7
f 155/243/5 206/245/5 205/244/6
f 153/243/4 207/245/4 206/244/5
f 151/243/3 208/245/3 207/244/4
f 151/265/3 149/266/1 209/267/1
f 149/47/1 147/268/2 210/269/2
f 147/47/2 146/270/24 211/271/24
f 146/47/24 145/261/23 212/272/23
f 145/47/23 148/273/22 213/274/22
f 148/47/22 150/275/21 214/276/21
f 152/277/20 215/278/20 214/279/21
f 154/280/19 216/257/19 215/281/20
f 156/243/18 194/245/18 216/244/19
f 211/47/73 217/47/73 218/47/73
f 210/47/73 211/47/73 219/47/73
f 209/47/73 210/47/73 220/47/73
f 208/47/73 209/47/73 221/47/73
f 207/47/73 208/47/73 222/47/73
f 206/47/73 207/47/73 223/47/73
f 205/47/73 206/47/73 224/47/73
f 204/47/73 224/47/73 225/47/73
f 203/47/73 225/47/73 226/47/73
f 202/47/73 226/47/73 227/47/73
f 201/47/73 227/47/73 228/47/73
f 200/47/73 228/47/73 229/47/73
f 199/47/73 229/47/73 230/47/73
f 198/47/73 199/47/73 231/47/73
f 197/47/73 198/47/73 232/47/73
f 196/47/73 197/47/73 233/47/73
f 195/47/73 196/47/73 234/47/73
f 193/47/73 195/47/73 235/47/73
f 194/47/73 235/47/73 236/47/73
f 216/47/73 236/47/73 237/47/73
f 215/47/73 237/47/73 238/47/73
f 214/47/73 238/47/73 239/47/73
f 213/47/73 239/47/73 240/47/73
f 212/47/73 240/47/73 217/47/73
f 174/47/17 223/47/17 222/47/16
f 173/47/16 222/47/16 221/47/15
f 221/47/15 220/47/14 171/47/14
f 220/47/14 219/47/13 170/47/13
f 219/47/13 218/47/12 169/47/12
f 218/47/12 217/47/11 192/47/11
f 217/47/11 240/47/10 191/47/10
f 240/47/10 239/47/9 190/47/9
f 190/47/9 239/47/9 238/47/8
f 189/47/8 238/47/8 237/47/7
f 188/47/7 237/47/7 236/47/6
f 187/47/6 236/47/6 235/47/5
f 186/47/5 235/47/5 234/47/4
f 185/47/4 234/47/4 233/47/3
f 183/47/1 184/47/3 233/47/3
f 182/47/2 183/47/1 232/47/1
f 181/47/24 182/47/2 231/47/2
f 180/47/23 181/47/24 230/47/24
f 179/47/22 180/47/23 229/47/23
f 178/47/21 179/47/22 228/47/22
f 178/47/21 227/47/21 226/47/20
f 177/47/20 226/47/20 225/47/19
f 176/47/19 225/47/19 224/47/18
f 175/47/18 224/47/18 223/47/17
usemtl Dibujo3
f 2/282/5 4/283/4 1/284/4
f 5/285/6 3/286/5 2/282/5
f 7/287/7 6/288/6 5/285/6
f 9/289/8 8/290/7 7/287/7
f 11/291/9 10/292/8 9/289/8
f 14/293/10 11/291/9 13/294/10
f 16/295/11 13/294/10 15/296/11
f 18/297/12 15/298/11 17/299/12
f 20/300/13 17/299/12 19/301/13
f 22/244/14 19/301/13 21/47/14
f 24/302/15 21/47/14 23/303/15
f 25/304/16 24/302/15 23/303/15
f 27/305/74 26/306/75 25/307/16
f 29/308/18 28/309/17 27/305/76
f 31/310/19 30/311/18 29/308/18
f 33/312/20 32/313/19 31/310/19
f 35/314/21 34/315/20 33/312/20
f 35/314/21 38/316/22 36/317/21
f 37/318/22 40/319/23 38/316/22
f 39/320/23 42/321/24 40/319/23
f 41/322/24 44/323/2 42/321/24
f 43/324/2 46/325/1 44/323/2
f 45/303/1 48/244/3 46/302/1
f 1/284/4 48/326/3 47/327/3
f 50/328/16 52/329/17 49/330/17
f 54/331/3 56/332/4 53/333/4
f 58/334/18 60/335/19 57/336/19
f 62/337/22 64/338/21 61/339/22
f 66/340/5 68/341/6 65/342/6
f 70/343/1 72/344/2 69/345/1
f 74/343/24 76/344/23 73/345/24
f 57/336/19 78/346/20 77/347/20
f 53/333/4 67/348/5 66/349/5
f 79/350/15 51/351/16 50/328/16
f 82/339/9 84/352/10 81/337/9
f 65/342/6 86/353/7 85/354/7
f 88/355/11 90/356/12 87/357/12
f 91/358/8 82/339/9 81/337/9
f 85/354/7 92/359/8 91/360/8
f 94/361/13 96/357/14 93/355/13
f 83/338/10 88/362/11 84/352/10
f 54/331/3 69/363/1 55/364/3
f 90/365/12 93/355/13 87/366/12
f 75/367/23 61/368/22 76/344/23
f 77/347/20 64/369/21 63/370/21
f 71/367/2 73/368/24 72/344/2
f 49/330/17 59/371/18 58/372/18
f 95/373/14 79/350/15 96/374/14
f 2/282/5 3/286/5 4/283/4
f 5/285/6 6/288/6 3/286/5
f 7/287/7 8/290/7 6/288/6
f 9/289/8 10/292/8 8/290/7
f 11/291/9 12/375/9 10/292/8
f 14/293/10 12/375/9 11/291/9
f 16/295/11 14/293/10 13/294/10
f 18/297/12 16/376/11 15/298/11
f 20/300/13 18/297/12 17/299/12
f 22/244/14 20/300/13 19/301/13
f 24/302/15 22/244/14 21/47/14
f 25/304/16 26/377/75 24/302/15
f 27/305/76 28/309/17 26/306/77
f 29/308/18 30/311/18 28/309/17
f 31/310/19 32/313/19 30/311/18
f 33/312/20 34/315/20 32/313/19
f 35/314/21 36/317/21 34/315/20
f 35/314/21 37/318/22 38/316/22
f 37/318/22 39/320/23 40/319/23
f 39/320/23 41/322/24 42/321/24
f 41/322/24 43/324/2 44/323/2
f 43/324/2 45/378/1 46/325/1
f 45/303/1 47/47/3 48/244/3
f 1/284/4 4/283/4 48/326/3
f 50/328/16 51/351/16 52/329/17
f 54/331/3 55/364/3 56/332/4
f 58/334/18 59/379/18 60/335/19
f 62/337/22 63/352/21 64/338/21
f 66/340/5 67/380/5 68/341/6
f 70/343/1 71/367/2 72/344/2
f 74/343/24 75/367/23 76/344/23
f 57/336/19 60/335/19 78/346/20
f 53/333/4 56/332/4 67/348/5
f 79/350/15 80/381/15 51/351/16
f 82/339/9 83/338/10 84/352/10
f 65/342/6 68/341/6 86/353/7
f 88/355/11 89/361/11 90/356/12
f 91/358/8 92/382/8 82/339/9
f 85/354/7 86/353/7 92/359/8
f 94/361/13 95/356/14 96/357/14
f 83/338/10 89/383/11 88/362/11
f 54/331/3 70/384/1 69/363/1
f 90/365/12 94/361/13 93/355/13
f 75/367/23 62/385/22 61/368/22
f 77/347/20 78/346/20 64/369/21
f 71/367/2 74/385/24 73/368/24
f 49/330/17 52/329/17 59/371/18
f 95/373/14 80/381/15 79/350/15
usemtl Plaza_de_toros__caceres
f 146/386/73 148/387/73 145/388/73
f 147/389/73 150/390/73 148/387/73
f 149/391/73 152/392/73 150/390/73
f 151/393/73 154/394/73 152/392/73
f 153/395/73 156/396/73 154/394/73
f 156/396/73 157/397/73 158/398/73
f 157/397/73 160/399/73 158/398/73
f 160/399/73 161/400/73 162/401/73
f 161/400/73 164/402/73 162/401/73
f 163/403/73 166/404/73 164/402/73
f 165/405/73 168/406/73 166/404/73
f 74/407/73 169/408/73 75/409/73
f 170/410/73 71/411/73 70/412/73
f 171/413/73 70/412/73 54/414/73
f 172/415/73 54/414/73 53/416/73
f 173/417/73 53/416/73 66/418/73
f 174/419/73 66/418/73 65/420/73
f 175/421/73 65/420/73 176/422/73
f 176/422/73 85/423/73 177/424/73
f 177/424/73 91/425/73 178/426/73
f 178/426/73 81/427/73 179/428/73
f 179/428/73 84/429/73 180/430/73
f 180/430/73 88/431/73 181/432/73
f 181/432/73 87/433/73 93/434/73
f 182/435/73 93/434/73 96/436/73
f 183/437/73 96/436/73 79/438/73
f 184/439/73 79/438/73 50/440/73
f 185/441/73 50/440/73 49/442/73
f 186/443/73 49/442/73 187/444/73
f 187/444/73 58/445/73 188/446/73
f 188/446/73 57/447/73 189/448/73
f 189/448/73 77/449/73 190/450/73
f 190/450/73 63/451/73 191/452/73
f 191/452/73 62/453/73 192/454/73
f 192/454/73 75/409/73 169/408/73
f 69/455/78 102/456/79 55/457/79
f 137/458/80 78/459/81 135/460/81
f 131/461/82 52/462/83 129/463/83
f 86/464/84 107/465/85 109/466/84
f 82/467/86 111/468/87 113/469/86
f 127/470/88 80/471/89 126/472/89
f 135/473/81 60/474/90 133/475/90
f 80/476/89 124/477/91 126/478/89
f 129/479/83 51/480/88 127/481/88
f 137/482/80 61/483/92 64/484/80
f 140/485/92 76/486/93 61/487/92
f 55/488/79 103/489/94 56/490/94
f 72/491/95 98/492/78 69/493/78
f 83/494/96 118/495/97 89/496/97
f 83/497/96 113/498/86 116/499/96
f 92/500/87 109/501/84 111/502/87
f 89/503/97 120/504/98 90/505/98
f 105/506/99 68/507/85 67/508/99
f 144/509/100 76/510/93 142/511/93
f 56/512/94 105/513/99 67/514/99
f 122/515/101 90/516/98 120/517/98
f 95/518/91 122/519/101 124/520/91
f 131/521/82 60/522/90 59/523/82
f 144/524/100 72/525/95 73/526/100
f 146/386/73 147/389/73 148/387/73
f 147/389/73 149/391/73 150/390/73
f 149/391/73 151/393/73 152/392/73
f 151/393/73 153/395/73 154/394/73
f 153/395/73 155/527/73 156/396/73
f 156/396/73 155/527/73 157/397/73
f 157/397/73 159/528/73 160/399/73
f 160/399/73 159/528/73 161/400/73
f 161/400/73 163/403/73 164/402/73
f 163/403/73 165/405/73 166/404/73
f 165/405/73 167/529/73 168/406/73
f 74/407/73 71/411/73 169/408/73
f 170/410/73 169/408/73 71/411/73
f 171/413/73 170/410/73 70/412/73
f 172/415/73 171/413/73 54/414/73
f 173/417/73 172/415/73 53/416/73
f 174/419/73 173/417/73 66/418/73
f 175/421/73 174/419/73 65/420/73
f 176/422/73 65/420/73 85/423/73
f 177/424/73 85/423/73 91/425/73
f 178/426/73 91/425/73 81/427/73
f 179/428/73 81/427/73 84/429/73
f 180/430/73 84/429/73 88/431/73
f 181/432/73 88/431/73 87/433/73
f 182/435/73 181/432/73 93/434/73
f 183/437/73 182/435/73 96/436/73
f 184/439/73 183/437/73 79/438/73
f 185/441/73 184/439/73 50/440/73
f 186/443/73 185/441/73 49/442/73
f 187/444/73 49/442/73 58/445/73
f 188/446/73 58/445/73 57/447/73
f 189/448/73 57/447/73 77/449/73
f 190/450/73 77/449/73 63/451/73
f 191/452/73 63/451/73 62/453/73
f 192/454/73 62/453/73 75/409/73
f 69/455/78 98/530/78 102/456/79
f 137/458/80 64/531/80 78/459/81
f 131/461/82 59/532/82 52/462/83
f 86/464/84 68/533/85 107/465/85
f 82/467/86 92/534/87 111/468/87
f 127/470/88 51/535/88 80/471/89
f 135/473/81 78/536/81 60/474/90
f 80/476/89 95/537/91 124/477/91
f 129/479/83 52/538/83 51/480/88
f 137/482/80 140/539/92 61/483/92
f 140/485/92 142/540/93 76/486/93
f 55/488/79 102/541/79 103/489/94
f 72/491/95 99/542/95 98/492/78
f 83/494/96 116/543/96 118/495/97
f 83/497/96 82/544/86 113/498/86
f 92/500/87 86/545/84 109/501/84
f 89/503/97 118/546/97 120/504/98
f 105/506/99 107/547/85 68/507/85
f 144/509/100 73/548/100 76/510/93
f 56/512/94 103/549/94 105/513/99
f 122/515/101 94/550/101 90/516/98
f 95/518/91 94/551/101 122/519/101
f 131/521/82 133/552/90 60/522/90
f 144/524/100 99/553/95 72/525/95
