# Blender 4.1.1
# www.blender.org
mtllib barrel.mtl
o barrel
v -0.006352 -0.010170 -0.614211
v -0.239879 -0.010170 -0.567760
v -0.437853 -0.010170 -0.435477
v -0.570135 -0.010170 -0.237503
v -0.616587 -0.010170 -0.003977
v -0.570135 -0.010170 0.229550
v -0.437853 -0.010170 0.427524
v -0.239879 -0.010170 0.559806
v -0.006352 -0.010170 0.606257
v 0.227175 -0.010170 0.559806
v 0.425149 -0.010170 0.427524
v 0.557431 -0.010170 0.229549
v 0.603882 -0.010170 -0.003977
v 0.557430 -0.010170 -0.237504
v 0.425148 -0.010170 -0.435478
v 0.227173 -0.010170 -0.567760
v -0.006352 1.974012 -0.614211
v -0.239879 1.974012 -0.567760
v -0.437853 1.974012 -0.435477
v -0.570135 1.974012 -0.237503
v -0.616587 1.974012 -0.003977
v -0.570135 1.974012 0.229550
v -0.437853 1.974012 0.427524
v -0.239879 1.974012 0.559806
v -0.006352 1.974012 0.606257
v 0.227175 1.974012 0.559806
v 0.425149 1.974012 0.427524
v 0.557431 1.974012 0.229549
v 0.603882 1.974012 -0.003977
v 0.557430 1.974012 -0.237504
v 0.425148 1.974012 -0.435478
v 0.227173 1.974012 -0.567760
v -0.932048 0.981921 -0.003977
v 0.848879 0.981921 0.350271
v -0.861584 0.981921 0.350272
v 0.919344 0.981921 -0.003978
v -0.660918 0.981921 0.650589
v 0.848879 0.981921 -0.358226
v -0.360601 0.981921 0.851255
v -0.006352 0.981921 -0.929673
v 0.648213 0.981921 -0.658543
v -0.360601 0.981921 -0.859208
v -0.006352 0.981921 0.921719
v 0.347895 0.981921 -0.859209
v -0.660918 0.981921 -0.658543
v 0.347897 0.981921 0.851255
v -0.861584 0.981921 -0.358225
v 0.648214 0.981921 0.650589
v -0.812156 1.500600 0.329798
v 0.865843 1.500600 -0.003978
v -0.623088 1.500600 0.612759
v 0.799451 1.500600 -0.337752
v -0.340127 1.500600 0.801827
v 0.610382 1.500600 -0.620713
v -0.340127 1.500600 -0.809780
v -0.006352 1.500600 0.868219
v 0.327421 1.500600 -0.809781
v -0.623088 1.500600 -0.620712
v 0.327423 1.500600 0.801827
v -0.812156 1.500600 -0.337751
v 0.610383 1.500600 0.612758
v -0.878548 1.500600 -0.003977
v 0.799451 1.500600 0.329797
v -0.006352 1.500600 -0.876172
v -0.878548 0.463243 -0.003977
v 0.799451 0.463243 0.329797
v -0.006352 0.463243 -0.876172
v -0.812156 0.463243 0.329798
v 0.865843 0.463243 -0.003978
v -0.623088 0.463243 0.612759
v 0.799451 0.463243 -0.337752
v -0.340127 0.463243 0.801827
v 0.610382 0.463243 -0.620713
v -0.340127 0.463243 -0.809780
v -0.006352 0.463243 0.868219
v 0.327421 0.463243 -0.809781
v -0.623088 0.463243 -0.620712
v 0.327423 0.463243 0.801827
v -0.812156 0.463243 -0.337751
v 0.610383 0.463243 0.612758
v -0.006352 -0.010170 -0.677848
v -0.264232 -0.010170 -0.626552
v -0.482851 -0.010170 -0.480475
v -0.628928 -0.010170 -0.261856
v -0.680223 -0.010170 -0.003977
v -0.628928 -0.010170 0.253902
v -0.482851 -0.010170 0.472522
v -0.264232 -0.010170 0.618599
v -0.006352 -0.010170 0.669894
v 0.251527 -0.010170 0.618599
v 0.470147 -0.010170 0.472522
v 0.616224 -0.010170 0.253902
v 0.667519 -0.010170 -0.003977
v 0.616223 -0.010170 -0.261857
v 0.470146 -0.010170 -0.480476
v 0.251526 -0.010170 -0.626553
v -0.006352 1.974012 -0.677848
v -0.264232 1.974012 -0.626552
v -0.482851 1.974012 -0.480475
v -0.628928 1.974012 -0.261856
v -0.680223 1.974012 -0.003977
v -0.628928 1.974012 0.253902
v -0.482851 1.974012 0.472522
v -0.264232 1.974012 0.618599
v -0.006352 1.974012 0.669894
v 0.251527 1.974012 0.618599
v 0.470147 1.974012 0.472522
v 0.616224 1.974012 0.253902
v 0.667519 1.974012 -0.003977
v 0.616223 1.974012 -0.261857
v 0.470146 1.974012 -0.480476
v 0.251526 1.974012 -0.626553
v -0.006352 0.139520 -0.693097
v -0.270067 0.139520 -0.640641
v -0.493634 0.139520 -0.491258
v -0.643016 0.139520 -0.267692
v -0.695473 0.139520 -0.003977
v -0.643017 0.139520 0.259738
v -0.493634 0.139520 0.483305
v -0.270067 0.139520 0.632688
v -0.006352 0.139520 0.685144
v 0.257363 0.139520 0.632687
v 0.480930 0.139520 0.483305
v 0.630312 0.139520 0.259738
v 0.682768 0.139520 -0.003977
v 0.630312 0.139520 -0.267692
v 0.480929 0.139520 -0.491259
v 0.257362 0.139520 -0.640641
v -0.006352 1.824323 -0.693097
v -0.270067 1.824323 -0.640641
v -0.493634 1.824323 -0.491258
v -0.643016 1.824323 -0.267692
v -0.695473 1.824323 -0.003977
v -0.643017 1.824323 0.259738
v -0.493634 1.824323 0.483305
v -0.270067 1.824323 0.632688
v -0.006352 1.824323 0.685144
v 0.257363 1.824323 0.632687
v 0.480930 1.824323 0.483305
v 0.630312 1.824323 0.259738
v 0.682768 1.824323 -0.003977
v 0.630312 1.824323 -0.267692
v 0.480929 1.824323 -0.491259
v 0.257362 1.824323 -0.640641
v -0.906993 1.343905 -0.003977
v 0.825731 1.343905 0.340683
v -0.006352 1.343905 -0.904617
v -0.838436 1.343905 0.340683
v 0.894288 1.343905 -0.003978
v -0.643201 1.343905 0.632872
v 0.825731 1.343905 -0.348638
v -0.351012 1.343905 0.828107
v 0.630496 1.343905 -0.640827
v -0.351013 1.343905 -0.836060
v -0.006352 1.343905 0.896664
v 0.338307 1.343905 -0.836061
v -0.643201 1.343905 -0.640826
v 0.338308 1.343905 0.828107
v -0.838436 1.343905 -0.348637
v 0.630497 1.343905 0.632872
v -0.838436 0.619937 0.340683
v 0.894288 0.619937 -0.003978
v -0.643201 0.619937 0.632872
v 0.825731 0.619937 -0.348638
v -0.351012 0.619937 0.828107
v 0.630496 0.619937 -0.640827
v -0.351013 0.619937 -0.836060
v -0.006352 0.619937 0.896664
v 0.338307 0.619937 -0.836061
v -0.643201 0.619937 -0.640826
v 0.338308 0.619937 0.828107
v -0.838436 0.619937 -0.348637
v 0.630497 0.619937 0.632872
v -0.906993 0.619937 -0.003977
v 0.825731 0.619937 0.340683
v -0.006352 0.619937 -0.904617
v -0.689603 1.884732 0.279035
v 0.733193 1.884732 -0.003977
v -0.529290 1.884732 0.518961
v 0.676898 1.884732 -0.286989
v -0.289364 1.884732 0.679274
v 0.516584 1.884732 -0.526915
v -0.289364 1.884732 -0.687227
v -0.006352 1.884732 0.735568
v 0.276658 1.884732 -0.687228
v -0.529290 1.884732 -0.526914
v 0.276660 1.884732 0.679274
v -0.689603 1.884732 -0.286988
v 0.516585 1.884732 0.518960
v -0.745897 1.884732 -0.003977
v 0.676898 1.884732 0.279034
v -0.006352 1.884732 -0.743522
v -0.798267 1.765128 -0.003977
v 0.725281 1.765128 0.299075
v -0.006352 1.765128 -0.795891
v -0.737986 1.765128 0.299076
v 0.785562 1.765128 -0.003977
v -0.566320 1.765128 0.555991
v 0.725281 1.765128 -0.307030
v -0.309405 1.765128 0.727657
v 0.553615 1.765128 -0.563945
v -0.309405 1.765128 -0.735610
v -0.006352 1.765128 0.787938
v 0.296699 1.765128 -0.735611
v -0.566320 1.765128 -0.563945
v 0.296701 1.765128 0.727657
v -0.737986 1.765128 -0.307029
v 0.553616 1.765128 0.555991
v -0.796728 0.195290 -0.003977
v 0.723860 0.195290 0.298486
v -0.006352 0.195290 -0.794353
v -0.736564 0.195290 0.298487
v 0.784024 0.195290 -0.003977
v -0.565232 0.195290 0.554903
v 0.723859 0.195290 -0.306441
v -0.308816 0.195290 0.726235
v 0.552527 0.195290 -0.562858
v -0.308816 0.195290 -0.734189
v -0.006352 0.195290 0.786399
v 0.296110 0.195290 -0.734189
v -0.565232 0.195290 -0.562857
v 0.296112 0.195290 0.726235
v -0.736564 0.195290 -0.306440
v 0.552528 0.195290 0.554903
v -0.739551 0.064007 -0.003977
v 0.671036 0.064007 0.276606
v -0.006352 0.064007 -0.737176
v -0.683740 0.064007 0.276606
v 0.726847 0.064007 -0.003977
v -0.524802 0.064007 0.514473
v 0.671035 0.064007 -0.284561
v -0.286935 0.064007 0.673411
v 0.512097 0.064007 -0.522427
v -0.286935 0.064007 -0.681364
v -0.006352 0.064007 0.729222
v 0.274230 0.064007 -0.681365
v -0.524802 0.064007 -0.522427
v 0.274231 0.064007 0.673411
v -0.683740 0.064007 -0.284560
v 0.512098 0.064007 0.514473
v -0.859822 1.349029 0.349542
v -0.833542 1.505723 0.338656
v 0.917436 1.349029 -0.003978
v 0.888991 1.505723 -0.003978
v -0.659569 1.349029 0.649240
v -0.639456 1.505723 0.629127
v 0.847116 1.349029 -0.357496
v 0.820836 1.505723 -0.346611
v -0.359871 1.349029 0.849493
v -0.348985 1.505723 0.823213
v 0.646864 1.349029 -0.657195
v 0.626750 1.505723 -0.637081
v -0.359871 1.349029 -0.857446
v -0.348985 1.505723 -0.831166
v -0.006352 1.349029 0.919812
v -0.006352 1.505723 0.891367
v 0.347165 1.349029 -0.857447
v 0.336279 1.505723 -0.831166
v -0.659569 1.349029 -0.657194
v -0.639456 1.505723 -0.637080
v 0.347167 1.349029 0.849492
v 0.336281 1.505723 0.823212
v -0.859822 1.349029 -0.357495
v -0.833542 1.505723 -0.346610
v 0.646865 1.349029 0.649240
v 0.626751 1.505723 0.629126
v 0.820837 1.505723 0.338656
v -0.901696 1.505723 -0.003977
v -0.006352 1.505723 -0.899320
v -0.930141 0.614814 -0.003977
v -0.901696 0.458119 -0.003977
v 0.847117 0.614814 0.349541
v 0.820837 0.458119 0.338656
v -0.006352 0.614814 -0.927765
v -0.006352 0.458119 -0.899320
v -0.833542 0.458119 0.338656
v 0.888991 0.458119 -0.003978
v -0.639456 0.458119 0.629127
v 0.820836 0.458119 -0.346611
v -0.348985 0.458119 0.823213
v 0.626750 0.458119 -0.637081
v -0.348985 0.458119 -0.831166
v -0.006352 0.458119 0.891367
v 0.336280 0.458119 -0.831166
v -0.639456 0.458119 -0.637080
v 0.336281 0.458119 0.823212
v -0.833542 0.458119 -0.346610
v 0.626751 0.458119 0.629126
v -0.930141 1.349029 -0.003977
v 0.847117 1.349029 0.349541
v -0.006352 1.349029 -0.927765
v -0.859822 0.614814 0.349542
v 0.917436 0.614814 -0.003978
v -0.659569 0.614814 0.649240
v 0.847116 0.614814 -0.357496
v -0.359871 0.614814 0.849493
v 0.646864 0.614814 -0.657195
v -0.359871 0.614814 -0.857446
v -0.006352 0.614814 0.919812
v 0.347165 0.614814 -0.857447
v -0.659569 0.614814 -0.657194
v 0.347167 0.614814 0.849492
v -0.859822 0.614814 -0.357495
v 0.646865 0.614814 0.649240
v -0.757622 1.776475 0.307209
v -0.709239 1.896079 0.287169
v 0.806816 1.776475 -0.003977
v 0.754447 1.896079 -0.003977
v -0.581349 1.776475 0.571020
v -0.544319 1.896079 0.533990
v 0.744917 1.776475 -0.315164
v 0.696534 1.896079 -0.295123
v -0.317538 1.776475 0.747293
v -0.297498 1.896079 0.698910
v 0.568644 1.776475 -0.578975
v 0.531613 1.896079 -0.541944
v -0.317539 1.776475 -0.755247
v -0.297498 1.896079 -0.706864
v -0.006352 1.776475 0.809192
v -0.006352 1.896079 0.756823
v 0.304833 1.776475 -0.755247
v 0.284792 1.896079 -0.706864
v -0.581349 1.776475 -0.578974
v -0.544319 1.896079 -0.541943
v 0.304834 1.776475 0.747293
v 0.284793 1.896079 0.698910
v -0.757622 1.776475 -0.315163
v -0.709239 1.896079 -0.295122
v 0.568645 1.776475 0.571020
v 0.531614 1.896079 0.533989
v 0.696535 1.896079 0.287168
v -0.767152 1.896079 -0.003977
v -0.006352 1.896079 -0.764776
v -0.819521 1.776475 -0.003977
v 0.744918 1.776475 0.307209
v -0.006352 1.776475 -0.817145
v -0.703396 0.052709 0.284748
v -0.756221 0.183992 0.306629
v 0.748122 0.052709 -0.003977
v 0.805299 0.183992 -0.003977
v -0.539847 0.052709 0.529518
v -0.580277 0.183992 0.569948
v 0.690691 0.052709 -0.292702
v 0.743516 0.183992 -0.314583
v -0.295077 0.052709 0.693067
v -0.316958 0.183992 0.745892
v 0.527141 0.052709 -0.537472
v 0.567571 0.183992 -0.577902
v -0.295077 0.052709 -0.701020
v -0.316958 0.183992 -0.753845
v -0.006352 0.052709 0.750498
v -0.006352 0.183992 0.807675
v 0.282372 0.052709 -0.701021
v 0.304252 0.183992 -0.753846
v -0.539847 0.052709 -0.537471
v -0.580277 0.183992 -0.577901
v 0.282373 0.052709 0.693067
v 0.304254 0.183992 0.745892
v -0.703396 0.052709 -0.292702
v -0.756221 0.183992 -0.314582
v 0.527142 0.052709 0.529517
v 0.567573 0.183992 0.569947
v 0.743516 0.183992 0.306628
v -0.818004 0.183992 -0.003977
v -0.006352 0.183992 -0.815628
v -0.760827 0.052709 -0.003977
v 0.690692 0.052709 0.284748
v -0.006352 0.052709 -0.758451
vn -0.0000 0.4662 0.8847
vn 0.3385 0.4662 0.8173
vn -0.8173 0.4662 0.3386
vn -0.6256 0.4662 0.6256
vn 0.8055 0.5925 -0.0000
vn 0.7442 0.5925 0.3083
vn -0.5696 0.5925 0.5696
vn -0.7442 0.5925 0.3083
vn 0.7442 0.5925 -0.3083
vn -0.3083 0.5925 0.7442
vn 0.5696 0.5925 -0.5696
vn -0.3083 0.5925 -0.7442
vn -0.0000 0.5925 -0.8055
vn -0.0000 0.5925 0.8055
vn 0.3083 0.5925 -0.7442
vn -0.5696 0.5925 -0.5696
vn 0.3083 0.5925 0.7442
vn -0.7442 0.5925 -0.3083
vn 0.5696 0.5925 0.5696
vn -0.8055 0.5925 -0.0000
vn -0.9217 -0.0691 0.3818
vn -1.0000 -0.0000 -0.0000
vn -0.9976 -0.0691 -0.0000
vn 0.2161 -0.9764 -0.0000
vn 0.1997 -0.9764 0.0827
vn 0.7054 -0.0691 0.7054
vn 0.9239 -0.0000 0.3827
vn 0.7071 -0.0000 0.7071
vn -0.9239 -0.0000 -0.3827
vn -0.9217 -0.0691 -0.3818
vn 0.3827 -0.0000 0.9239
vn 0.3818 -0.0691 0.9217
vn -0.7071 -0.0000 -0.7071
vn -0.7054 -0.0691 -0.7054
vn -0.0000 -0.0691 -0.9976
vn 0.3827 -0.0000 -0.9239
vn 0.3818 -0.0691 -0.9217
vn -0.0000 -0.0000 1.0000
vn -0.0000 -0.0691 0.9976
vn -0.3827 -0.0000 -0.9239
vn -0.3818 -0.0691 -0.9217
vn 0.7071 -0.0000 -0.7071
vn 0.7054 -0.0691 -0.7054
vn -0.3827 -0.0000 0.9239
vn -0.3818 -0.0691 0.9217
vn -0.0000 -0.0000 -1.0000
vn 0.9239 -0.0000 -0.3827
vn 0.9217 -0.0691 -0.3818
vn -0.7071 -0.0000 0.7071
vn -0.7054 -0.0691 0.7054
vn 1.0000 -0.0000 -0.0000
vn 0.9976 -0.0691 -0.0000
vn -0.9239 -0.0000 0.3827
vn 0.9217 -0.0691 0.3818
vn -0.8836 -0.2920 0.3660
vn -0.9564 -0.2920 -0.0000
vn 0.0827 -0.9764 -0.1997
vn 0.1528 -0.9764 -0.1528
vn 0.3316 -0.8832 -0.3316
vn 0.4333 -0.8832 -0.1795
vn -0.4351 -0.8822 -0.1802
vn -0.4710 -0.8822 -0.0000
vn -0.1528 -0.9764 -0.1528
vn -0.0827 -0.9764 -0.1997
vn -0.0000 -0.9764 0.2161
vn -0.0827 -0.9764 0.1997
vn -0.4690 -0.8832 -0.0000
vn -0.4333 -0.8832 -0.1795
vn 0.1802 -0.8822 0.4351
vn 0.3330 -0.8822 0.3330
vn 0.1528 -0.9764 0.1528
vn -0.0000 -0.9764 -0.2161
vn 0.4690 -0.8832 -0.0000
vn -0.3330 -0.8822 -0.3330
vn 0.1997 -0.9764 -0.0827
vn -0.0000 -0.8822 -0.4710
vn 0.1802 -0.8822 -0.4351
vn 0.9564 -0.2920 -0.0000
vn 0.8836 -0.2920 0.3660
vn -0.6763 -0.2920 0.6763
vn 0.8836 -0.2920 -0.3660
vn -0.3660 -0.2920 0.8836
vn 0.6763 -0.2920 -0.6763
vn -0.3660 -0.2920 -0.8836
vn -0.0000 -0.2920 -0.9564
vn -0.0000 -0.2920 0.9564
vn 0.3660 -0.2920 -0.8836
vn -0.6763 -0.2920 -0.6763
vn 0.3660 -0.2920 0.8836
vn -0.8836 -0.2920 -0.3660
vn 0.6763 -0.2920 0.6763
vn -0.0000 -1.0000 -0.0000
vn -0.0000 1.0000 -0.0000
vn -0.8173 -0.4662 -0.3385
vn -0.6256 -0.4662 -0.6256
vn -0.8847 -0.4662 -0.0000
vn -0.3385 0.4662 0.8173
vn 0.6256 0.4662 0.6256
vn -0.8173 -0.4662 0.3385
vn 0.8173 0.4662 0.3385
vn -0.6256 -0.4662 0.6256
vn -0.0000 -0.4662 0.8847
vn 0.3385 -0.4662 0.8173
vn 0.8847 0.4662 -0.0000
vn -0.3385 -0.4662 0.8173
vn 0.6256 -0.4662 0.6256
vn 0.8173 0.4662 -0.3385
vn 0.8173 -0.4662 0.3385
vn 0.6256 0.4662 -0.6256
vn 0.8847 -0.4662 -0.0000
vn 0.3385 0.4662 -0.8173
vn 0.8173 -0.4662 -0.3385
vn -0.0000 0.4662 -0.8847
vn 0.6256 -0.4662 -0.6256
vn -0.3385 0.4662 -0.8173
vn -0.3386 0.4662 -0.8173
vn 0.3385 -0.4662 -0.8173
vn -0.6256 0.4662 -0.6256
vn -0.0000 -0.4662 -0.8847
vn -0.8173 0.4662 -0.3385
vn -0.3385 -0.4662 -0.8173
vn -0.8847 0.4662 -0.0000
vn -0.8173 0.4662 0.3385
vn -0.9217 0.0691 0.3818
vn 0.9976 0.0691 -0.0000
vn -0.7054 0.0691 0.7054
vn 0.9217 0.0691 -0.3818
vn -0.3818 0.0691 0.9217
vn 0.7054 0.0691 -0.7054
vn -0.3818 0.0691 -0.9217
vn 0.3818 0.0691 -0.9217
vn -0.7054 0.0691 -0.7054
vn 0.3818 0.0691 0.9217
vn -0.0000 0.0691 -0.9976
vn -0.9217 0.0691 -0.3818
vn 0.7054 0.0691 0.7054
vn 0.9217 0.0691 0.3818
vn -0.1528 -0.9764 0.1528
vn -0.0000 -0.8822 0.4710
vn 0.0827 -0.9764 0.1997
vn -0.1802 -0.8822 -0.4351
vn -0.1997 -0.9764 0.0827
vn 0.3330 -0.8822 -0.3330
vn -0.1802 -0.8822 0.4351
vn -0.2161 -0.9764 -0.0000
vn 0.4351 -0.8822 -0.1802
vn -0.8841 0.2904 0.3662
vn -0.9569 0.2904 -0.0000
vn -0.3330 -0.8822 0.3330
vn 0.4710 -0.8822 -0.0000
vn 0.1528 0.9764 0.1528
vn 0.1997 0.9764 0.0827
vn -0.4351 -0.8822 0.1802
vn -0.1997 -0.9764 -0.0827
vn -0.2161 0.9764 -0.0000
vn -0.1997 0.9764 -0.0827
vn 0.4351 -0.8822 0.1802
vn 0.0827 0.9764 0.1997
vn -0.1528 0.9764 -0.1528
vn -0.0000 0.9764 -0.2161
vn 0.0827 0.9764 -0.1997
vn -0.0000 0.9764 0.2161
vn 0.9569 0.2904 -0.0000
vn 0.8841 0.2904 0.3662
vn -0.6766 0.2904 0.6766
vn 0.8841 0.2904 -0.3662
vn -0.3662 0.2904 0.8841
vn 0.6766 0.2904 -0.6766
vn -0.3662 0.2904 -0.8841
vn -0.0000 0.2904 -0.9569
vn -0.0000 0.2904 0.9569
vn 0.3662 0.2904 -0.8841
vn -0.6766 0.2904 -0.6766
vn 0.3662 0.2904 0.8841
vn -0.8841 0.2904 -0.3662
vn 0.6766 0.2904 0.6766
vn -0.0827 0.9764 -0.1997
vn -0.7215 -0.6246 0.2989
vn -0.7809 -0.6246 -0.0000
vn -0.4690 0.8832 -0.0000
vn -0.4333 0.8832 0.1795
vn 0.1528 0.9764 -0.1528
vn 0.4333 0.8832 0.1795
vn 0.4690 0.8832 -0.0000
vn -0.0827 0.9764 0.1997
vn -0.3316 0.8832 0.3316
vn 0.4333 0.8832 -0.1795
vn 0.1997 0.9764 -0.0827
vn -0.1795 0.8832 0.4333
vn -0.1528 0.9764 0.1528
vn 0.3316 0.8832 -0.3316
vn 0.2161 0.9764 -0.0000
vn -0.1795 0.8832 -0.4333
vn -0.0000 0.8832 -0.4690
vn -0.1997 0.9764 0.0827
vn -0.0000 0.8832 0.4690
vn 0.7215 -0.6246 0.2989
vn 0.7809 -0.6246 -0.0000
vn 0.7215 -0.6246 0.2988
vn -0.5522 -0.6246 0.5522
vn -0.7215 -0.6246 0.2988
vn 0.7215 -0.6246 -0.2989
vn -0.2989 -0.6246 0.7215
vn 0.5522 -0.6246 -0.5522
vn -0.2989 -0.6246 -0.7215
vn -0.0000 -0.6246 -0.7809
vn -0.0000 -0.6246 0.7809
vn 0.2989 -0.6246 -0.7215
vn -0.5522 -0.6246 -0.5522
vn -0.2988 -0.6246 -0.7215
vn 0.2989 -0.6246 0.7215
vn -0.7215 -0.6246 -0.2988
vn 0.5522 -0.6246 0.5522
vn 0.2988 -0.6246 0.7215
vn -0.7215 -0.6246 -0.2989
vn -0.9090 0.1786 0.3765
vn -0.9839 0.1786 -0.0000
vn 0.9090 0.1786 0.3765
vn 0.6957 0.1786 0.6957
vn -0.9090 0.1786 -0.3765
vn 0.3765 0.1786 0.9090
vn -0.6957 0.1786 -0.6957
vn 0.3765 0.1786 -0.9090
vn -0.0000 0.1786 -0.9839
vn -0.0000 0.1786 0.9839
vn -0.3765 0.1786 -0.9090
vn 0.6957 0.1786 -0.6957
vn -0.3765 0.1786 0.9090
vn 0.9090 0.1786 -0.3765
vn -0.6957 0.1786 0.6957
vn 0.9839 0.1786 -0.0000
vn -0.9090 -0.1786 0.3765
vn -0.9839 -0.1786 -0.0000
vn 0.9839 -0.1786 -0.0000
vn 0.9090 -0.1786 0.3765
vn -0.6957 -0.1786 0.6957
vn 0.9090 -0.1786 -0.3765
vn -0.3765 -0.1786 0.9090
vn 0.6957 -0.1786 -0.6957
vn -0.0000 -0.1786 -0.9839
vn -0.3765 -0.1786 -0.9090
vn -0.0000 -0.1786 0.9839
vn 0.3765 -0.1786 -0.9090
vn -0.6957 -0.1786 -0.6957
vn 0.3765 -0.1786 0.9090
vn -0.9090 -0.1786 -0.3765
vn 0.6957 -0.1786 0.6957
vn -0.8463 0.4011 0.3506
vn -0.9160 0.4011 -0.0000
vn 0.6477 0.4011 0.6477
vn 0.8463 0.4011 0.3506
vn -0.8463 0.4011 -0.3506
vn -0.8463 0.4011 -0.3505
vn 0.3506 0.4011 0.8463
vn -0.6477 0.4011 -0.6477
vn -0.0000 0.4011 -0.9160
vn 0.3506 0.4011 -0.8463
vn 0.3505 0.4011 -0.8463
vn -0.0000 0.4011 0.9160
vn -0.3506 0.4011 -0.8463
vn 0.6477 0.4011 -0.6477
vn -0.3506 0.4011 0.8463
vn 0.8463 0.4011 -0.3506
vn -0.6477 0.4011 0.6477
vn 0.9160 0.4011 -0.0000
vn -0.8470 -0.3993 0.3509
vn -0.9168 -0.3993 -0.0000
vn 0.8470 -0.3993 0.3509
vn 0.6483 -0.3993 0.6483
vn -0.8470 -0.3993 -0.3509
vn 0.3509 -0.3993 0.8470
vn -0.6483 -0.3993 -0.6483
vn -0.0000 -0.3993 -0.9168
vn 0.3509 -0.3993 -0.8470
vn -0.0000 -0.3993 0.9168
vn -0.3508 -0.3993 -0.8470
vn -0.3509 -0.3993 -0.8470
vn 0.6483 -0.3993 -0.6483
vn -0.3509 -0.3993 0.8470
vn 0.8470 -0.3993 -0.3509
vn -0.6483 -0.3993 0.6483
vn 0.9168 -0.3993 -0.0000
vn -0.8470 -0.3993 0.3508
vn -0.4333 -0.8832 0.1795
vn 0.1795 -0.8832 -0.4333
vn -0.3316 -0.8832 0.3316
vn 0.1795 -0.8832 0.4333
vn -0.0000 -0.8832 0.4690
vn -0.3330 0.8822 -0.3330
vn -0.4351 0.8822 -0.1802
vn -0.0000 -0.8832 -0.4690
vn 0.4351 0.8822 0.1802
vn 0.4710 0.8822 -0.0000
vn -0.1795 -0.8832 0.4333
vn -0.1802 0.8822 -0.4351
vn 0.3316 -0.8832 0.3316
vn 0.3330 0.8822 0.3330
vn -0.1795 -0.8832 -0.4333
vn -0.1802 0.8822 0.4351
vn -0.0000 0.8822 0.4710
vn -0.0000 0.8822 -0.4710
vn 0.4333 -0.8832 0.1795
vn 0.1802 0.8822 0.4351
vn -0.3316 -0.8832 -0.3316
vn -0.3330 0.8822 0.3330
vn 0.1802 0.8822 -0.4351
vn -0.4351 0.8822 0.1802
vn 0.3330 0.8822 -0.3330
vn -0.4710 0.8822 -0.0000
vn 0.3316 0.8832 0.3316
vn 0.4351 0.8822 -0.1802
vn -0.4333 0.8832 -0.1795
vn 0.1795 0.8832 0.4333
vn -0.3316 0.8832 -0.3316
vn 0.1795 0.8832 -0.4333
vn -0.9976 0.0691 -0.0000
vn -0.0000 0.0691 0.9976
vt -0.004542 0.493776
vt -0.253691 0.622835
vt -0.253691 0.493776
vt 0.742905 0.493776
vt 0.493756 0.622835
vt 0.493756 0.493776
vt 0.500001 1.637035
vt 0.231109 1.864943
vt 0.229867 1.637035
vt 0.003153 1.864943
vt 0.229866 1.637035
vt 0.000858 1.637035
vt 0.768892 1.864943
vt 0.770134 1.637035
vt 0.231108 1.864943
vt 0.996847 1.864943
vt 0.999143 1.637035
vt 0.229866 1.637035
vt 0.500000 1.864943
vt 0.500000 1.637035
vt 0.500000 1.864943
vt 0.500000 1.637035
vt 0.768891 1.864943
vt 0.999141 1.637035
vt 0.770133 1.637035
vt 0.770134 1.637035
vt 0.768891 1.864943
vt 0.999142 1.637035
vt 0.770134 1.637035
vt 0.996847 1.864943
vt 0.999142 1.637035
vt 0.500000 1.637035
vt 0.003153 1.864943
vt 0.000858 1.637035
vt 0.225934 0.120200
vt 0.500000 0.500000
vt 0.500000 0.120200
vt 0.422653 0.783710
vt 0.401469 0.845592
vt 0.397719 0.843160
vt -0.006407 0.120200
vt 0.224400 0.500000
vt -0.009242 0.500000
vt 0.775600 0.500000
vt 0.774066 0.120200
vt 1.006408 0.120200
vt 0.775600 0.500000
vt 0.774066 0.120200
vt 1.009243 0.500000
vt 1.006407 0.120200
vt 0.500000 0.120200
vt 0.775599 0.500000
vt 0.774065 0.120200
vt 0.500000 0.500000
vt 0.500000 0.120200
vt -0.006407 0.120200
vt 0.224400 0.500000
vt 0.225934 0.120200
vt 1.009242 0.500000
vt 1.006407 0.120200
vt 0.224400 0.500000
vt 0.500000 0.500000
vt 1.006408 0.120200
vt 0.775601 0.500000
vt 0.774066 0.120200
vt -0.009243 0.500000
vt 0.500001 0.500000
vt 0.500001 0.120200
vt 0.225935 0.120200
vt 0.226925 -0.059925
vt 0.500000 -0.422962
vt 0.231043 -0.422962
vt 0.210933 0.845810
vt 0.178265 0.817453
vt 0.180652 0.815905
vt 0.413069 0.749006
vt 0.438169 0.798198
vt 0.434030 0.798982
vt 0.394821 0.846049
vt 0.421306 0.792855
vt 0.398059 0.848282
vt 0.166096 0.614410
vt 0.225493 0.585492
vt 0.226292 0.589785
vt 0.293320 0.649375
vt 0.334410 0.663244
vt 0.332885 0.665560
vt 0.158667 0.798983
vt 0.176384 0.746771
vt 0.179627 0.749006
vt 0.239173 0.615996
vt 0.182111 0.635013
vt 0.238234 0.612054
vt 0.354174 0.892301
vt 0.351646 0.888661
vt 0.250497 0.861995
vt 0.293829 0.864727
vt 0.249905 0.864727
vt 0.438169 0.853861
vt 0.434030 0.853076
vt 0.355105 0.890704
vt 0.352989 0.887362
vt 0.166096 0.888662
vt 0.225493 0.917579
vt 0.163699 0.892301
vt 0.161455 0.777375
vt 0.164264 0.776832
vt 0.239173 0.909721
vt 0.182112 0.890704
vt 0.184517 0.887362
vt 0.292379 0.585492
vt 0.291449 0.589785
vt 0.500001 -0.422962
vt 0.226925 -0.059925
vt 0.231043 -0.422962
vt -0.004577 -0.059925
vt 0.003032 -0.422962
vt 0.773076 -0.059925
vt 0.768958 -0.422962
vt 1.004578 -0.059925
vt 0.996969 -0.422962
vt 0.226925 -0.059925
vt 0.500000 -0.422962
vt 0.231043 -0.422962
vt 0.500000 -0.059925
vt 0.500000 -0.422962
vt 0.773074 -0.059925
vt 0.996968 -0.422962
vt 0.768956 -0.422962
vt 0.773075 -0.059925
vt 0.768958 -0.422962
vt 0.500000 -0.059925
vt 0.773075 -0.059925
vt 0.996968 -0.422962
vt 0.768957 -0.422962
vt 1.004577 -0.059925
vt 0.996969 -0.422962
vt 0.500000 -0.059925
vt 0.003032 -0.422962
vt 0.417470 0.187572
vt 0.477308 0.157494
vt 0.471325 0.187572
vt 0.266399 0.156201
vt 0.206562 0.126124
vt 0.272382 0.126124
vt 0.011204 0.156201
vt 0.071042 0.126124
vt 0.065059 0.156201
vt 0.350357 0.156201
vt 0.410194 0.126124
vt 0.404212 0.156201
vt 0.078318 0.126124
vt 0.138155 0.156201
vt 0.072335 0.156201
vt 0.337098 0.188865
vt 0.277261 0.218942
vt 0.283244 0.188865
vt 0.145431 0.187572
vt 0.205269 0.157494
vt 0.199286 0.187572
vt 0.350357 0.250313
vt 0.410195 0.220235
vt 0.404212 0.250313
vt 0.212544 0.187572
vt 0.272382 0.157494
vt 0.266399 0.187572
vt 0.011204 0.250313
vt 0.071042 0.220235
vt 0.065059 0.250313
vt 0.266399 0.220235
vt 0.206562 0.250313
vt 0.212544 0.220235
vt 0.283244 0.187572
vt 0.343081 0.157494
vt 0.337098 0.187572
vt 0.417470 0.220235
vt 0.477308 0.250313
vt 0.411487 0.250313
vt 0.132173 0.188865
vt 0.072335 0.218942
vt 0.078318 0.188865
vt 0.350357 0.218942
vt 0.410195 0.188865
vt 0.404212 0.218942
vt 0.484583 0.156201
vt 0.544421 0.126124
vt 0.538438 0.156201
vt 0.017717 0.357869
vt -0.262556 0.638143
vt 0.017717 0.638143
vt -0.231116 0.365070
vt -0.004572 0.591613
vt -0.004572 0.365070
vt 0.187695 0.392315
vt -0.004648 0.584658
vt 0.187695 0.584658
vt 0.184591 0.369368
vt -0.021016 0.574976
vt 0.184591 0.574976
vt 0.236809 0.345919
vt 0.514492 0.623602
vt 0.514492 0.345919
vt 0.257093 0.399220
vt 0.493069 0.635196
vt 0.493069 0.399220
vt 0.241034 0.354867
vt 0.482946 0.596779
vt 0.482946 0.354867
vt -0.016872 0.359180
vt 0.245727 0.621780
vt 0.245727 0.359180
vt 0.246504 0.352244
vt 0.512811 0.618550
vt 0.512811 0.352244
vt -0.224539 0.374881
vt 0.002125 0.601545
vt 0.002125 0.374881
vt 0.730711 0.363763
vt 0.489017 0.605457
vt 0.730711 0.605457
vt 0.256080 0.343568
vt -0.021172 0.620821
vt 0.256080 0.620821
vt 0.500804 0.345608
vt 0.767815 0.612619
vt 0.767815 0.345608
vt 0.257239 0.381866
vt 0.494442 0.619069
vt 0.494442 0.381866
vt 0.489097 0.364733
vt 0.733997 0.609633
vt 0.733997 0.364733
vt 0.725769 0.325446
vt 0.977096 0.576772
vt 0.977096 0.325446
vt 1.051445 0.644355
vt 1.250901 0.541037
vt 1.250901 0.644355
vt -0.009861 0.395637
vt 0.609916 -0.018485
vt 1.024038 0.601292
vt 0.065090 0.208732
vt 0.788436 0.064850
vt 0.932319 0.788196
vt 0.728189 0.660105
vt 1.013911 0.512101
vt 1.013911 0.660105
vt 0.244606 0.622835
vt 0.244607 0.493776
vt -0.502840 0.493776
vt -0.502840 0.622835
vt 0.978348 0.650697
vt 0.724180 0.519038
vt 0.978348 0.519038
vt -0.004542 0.622835
vt -0.751989 0.622836
vt -0.751989 0.493776
vt 0.491459 0.630283
vt 0.703736 0.520323
vt 0.703736 0.630283
vt 0.013433 0.649482
vt -0.274955 0.500097
vt 0.013433 0.500097
vt -1.001138 0.493777
vt -1.001138 0.622836
vt 0.035250 0.653984
vt 0.245081 0.545291
vt 0.245081 0.653984
vt -0.253599 0.605063
vt -0.018793 0.483434
vt -0.018793 0.605063
vt -1.250287 0.622836
vt -1.250287 0.493776
vt -0.727085 0.720811
vt -0.484662 0.595235
vt -0.484662 0.720811
vt -0.501827 0.659239
vt -0.730768 0.540647
vt -0.501827 0.540647
vt -1.499436 0.493776
vt -1.499436 0.622836
vt -0.955209 0.607385
vt -0.740600 0.496217
vt -0.740600 0.607385
vt 2.486952 0.493776
vt 2.237803 0.622835
vt 2.237803 0.493776
vt -1.528749 0.707497
vt -1.243612 0.559796
vt -1.243611 0.707497
vt 1.988653 0.493776
vt 1.988653 0.622836
vt 2.244545 0.633834
vt 2.473486 0.515243
vt 2.473486 0.633834
vt 1.739504 0.622836
vt 1.739504 0.493776
vt 2.019976 0.614595
vt 2.248918 0.496003
vt 2.248918 0.614595
vt 1.490354 0.622836
vt 1.490354 0.493776
vt 2.008657 0.631179
vt 1.742911 0.493522
vt 2.008658 0.493522
vt 1.241205 0.622836
vt 1.241205 0.493776
vt 1.468727 0.640800
vt 1.747610 0.496339
vt 1.747610 0.640800
vt 0.992055 0.622836
vt 0.992055 0.493776
vt 1.239701 0.638029
vt 1.485853 0.510522
vt 1.485853 0.638029
vt 0.742905 0.622836
vt 0.225934 0.879800
vt 0.500001 0.879800
vt -0.006407 0.879800
vt 0.774066 0.879800
vt 1.006408 0.879800
vt 1.009243 0.500000
vt 0.225934 0.879800
vt 0.774065 0.879800
vt 0.774066 0.879800
vt 0.500000 0.879800
vt 0.774066 0.879800
vt 1.006408 0.879800
vt 1.009243 0.500000
vt 0.225935 0.879800
vt 0.363166 0.695465
vt 0.365469 0.693918
vt 0.298332 0.615996
vt 0.298981 0.612054
vt 0.291449 0.913287
vt 0.292379 0.917579
vt 0.161455 0.733995
vt 0.164264 0.734539
vt 0.298333 0.909721
vt 0.298982 0.913663
vt 0.116403 0.845592
vt 0.120023 0.843160
vt 0.382279 0.733995
vt 0.379554 0.734539
vt 0.139157 0.848282
vt 0.142685 0.846049
vt 0.354174 0.610770
vt 0.351646 0.614410
vt 0.178264 0.693918
vt 0.180651 0.695465
vt 0.355105 0.635012
vt 0.352989 0.638354
vt 0.226293 0.913287
vt 0.382279 0.777375
vt 0.379554 0.776831
vt 0.238234 0.913663
vt 0.090807 0.784564
vt 0.095089 0.783710
vt 0.115910 0.792855
vt 0.120046 0.792071
vt 0.401469 0.657479
vt 0.397719 0.659911
vt 0.226925 1.059925
vt 0.500000 1.418760
vt 0.500000 1.059925
vt 0.398059 0.677434
vt 0.394821 0.679667
vt 0.095088 0.719361
vt 0.090807 0.718508
vt 0.115910 0.732862
vt 0.120046 0.733646
vt 0.427065 0.718507
vt 0.422653 0.719361
vt 0.187074 0.868122
vt 0.143678 0.830356
vt 0.146746 0.828295
vt 0.421306 0.732861
vt 0.417460 0.733645
vt 0.116403 0.657479
vt 0.120023 0.659911
vt 0.411639 0.719934
vt 0.392993 0.665836
vt 0.415379 0.719210
vt 0.139156 0.677435
vt 0.142685 0.679667
vt 0.427065 0.784564
vt 0.239764 0.889677
vt 0.185042 0.871207
vt 0.417460 0.792071
vt 0.389814 0.667897
vt 0.351629 0.624985
vt 0.239764 0.606515
vt 0.185042 0.624985
vt 0.239087 0.602877
vt 0.296796 0.889677
vt 0.239087 0.893315
vt 0.500001 1.418760
vt 0.226925 1.059925
vt 0.500001 1.059925
vt -0.004577 1.059925
vt 0.230573 1.418760
vt 0.773076 1.059925
vt 0.997836 1.418760
vt 1.004578 1.059925
vt 0.230573 1.418760
vt 0.500000 1.059925
vt 0.226925 1.059925
vt 0.500000 1.059925
vt 0.769426 1.418760
vt 1.004576 1.059925
vt 0.773074 1.059925
vt 0.002164 1.418760
vt 0.773075 1.059925
vt 0.500000 1.418760
vt 0.500000 1.418760
vt 0.773075 1.059925
vt 0.997836 1.418760
vt 1.004577 1.059925
vt 0.997836 1.418760
vt 1.004577 1.059925
vt 0.002165 1.418760
vt -0.004577 1.059925
vt 0.296796 0.606515
vt 0.349486 0.628070
vt 0.231108 -0.864943
vt 0.500000 -0.656621
vt 0.500000 -0.864943
vt 0.441262 0.733360
vt 0.445401 0.792457
vt 0.441262 0.791672
vt 0.146746 0.667897
vt 0.187074 0.628070
vt 0.167021 0.845546
vt 0.140574 0.792457
vt 0.144425 0.791672
vt 0.351629 0.871207
vt 0.297584 0.893315
vt 0.422198 0.847781
vt 0.418667 0.845545
vt 0.297584 0.602877
vt 0.140574 0.732575
vt 0.144425 0.733360
vt 0.121292 0.719210
vt 0.143678 0.665836
vt 0.376916 0.886778
vt 0.379323 0.890123
vt 0.349486 0.868122
vt 0.392993 0.830356
vt 0.163778 0.677252
vt 0.167021 0.679487
vt 0.124921 0.719934
vt 0.121292 0.776982
vt 0.322366 0.615939
vt 0.262671 0.611993
vt 0.323305 0.611993
vt 0.411639 0.776258
vt 0.389814 0.828295
vt 0.323305 0.913039
vt 0.322366 0.909094
vt 0.231109 -0.864943
vt 0.500001 -0.656621
vt 0.232054 -0.656621
vt 0.990426 -0.662211
vt 0.809072 -0.829176
vt 0.806891 -0.675102
vt 0.500000 -0.864943
vt 0.767947 -0.656621
vt 1.173794 -0.648581
vt 0.989050 -0.816306
vt 0.997583 -0.657024
vt 0.814116 -0.820141
vt 0.811935 -0.666067
vt 0.231108 -0.864943
vt 0.500000 -0.656621
vt 0.500000 -0.864943
vt 0.232054 -0.656621
vt 1.181779 -0.648027
vt 0.996207 -0.811118
vt 0.990493 -0.666260
vt 0.810283 -0.832822
vt 0.808102 -0.678748
vt 0.768892 -0.864943
vt 0.500000 -0.656621
vt 0.768891 -0.864943
vt 0.767945 -0.656621
vt 1.169094 -0.806343
vt 0.989117 -0.820354
vt 0.993935 -0.667458
vt 0.813757 -0.831839
vt 0.811575 -0.677765
vt 0.768891 -0.864943
vt 0.767946 -0.656621
vt 1.171914 -0.809456
vt 0.992559 -0.821552
vt 0.837256 0.189619
vt 0.459363 -0.002055
vt 0.464144 0.189619
vt 0.837256 0.189619
vt 1.127556 -0.002055
vt 1.140418 0.206352
vt 0.097740 -0.002055
vt 0.091032 0.189619
vt -0.200776 0.188424
vt 0.097739 -0.002055
vt 0.091032 0.189619
vt -0.200776 0.188424
vt -0.208830 -0.002055
vt 0.091033 0.189619
vt 0.459363 -0.002055
vt 0.097741 -0.002055
vt 0.459363 -0.002055
vt 0.464144 0.189619
vt 1.140419 0.206352
vt 0.820987 -0.002055
vt 0.837257 0.189619
vt -0.200775 0.188424
vt -0.208829 -0.002055
vt 0.820987 -0.002055
vt 0.464144 0.189619
vt -0.200777 0.188424
vt 0.097739 -0.002055
vt 0.091031 0.189619
vt 1.127556 -0.002055
vt 0.459362 -0.002055
vt 0.464143 0.189619
vt 0.820986 -0.002055
vt 0.529009 0.777252
vt 0.881754 0.995942
vt 0.881754 0.777252
vt 0.881755 0.777252
vt 0.517803 0.995942
vt 0.529010 0.777252
vt 0.229967 0.777252
vt 0.517802 0.995942
vt 1.234499 0.777252
vt 0.881755 0.995942
vt 0.209259 0.995942
vt 1.533542 0.777252
vt 1.245706 0.995942
vt 0.881754 0.777252
vt 0.517802 0.995942
vt 0.881754 0.995942
vt 0.881754 0.995942
vt 1.234497 0.777252
vt 1.528634 0.997839
vt 1.533540 0.777252
vt 0.529009 0.777252
vt 1.234499 0.777252
vt 0.881754 0.777252
vt 1.245704 0.995942
vt 1.234498 0.777252
vt 1.528635 0.997839
vt 1.533541 0.777252
vt 1.528635 0.997839
vt 1.245705 0.995942
vt 1.245705 0.995942
vt 0.209260 0.995942
vt 0.229967 0.777252
vt 0.132546 0.789018
vt 0.511373 0.991989
vt 0.511373 0.789018
vt -0.140752 0.787568
vt 0.156944 0.991989
vt -0.143528 0.991989
vt 0.865802 0.991989
vt 0.890199 0.789018
vt 1.166398 0.792643
vt 0.865802 0.991989
vt 0.890199 0.789018
vt 1.166273 0.991989
vt 1.166398 0.792643
vt 0.511372 0.789018
vt 0.865801 0.991989
vt 0.890198 0.789018
vt 0.511373 0.991989
vt 0.511373 0.789018
vt -0.140753 0.787568
vt 0.156943 0.991989
vt 0.132546 0.789018
vt 1.166272 0.991989
vt 1.166397 0.792643
vt 0.156943 0.991989
vt 0.511372 0.991989
vt 0.890200 0.789018
vt 1.166274 0.991989
vt 0.865803 0.991989
vt -0.143528 0.991989
vt 0.511373 0.991989
vt 0.511373 0.789018
vt 0.132547 0.789018
vt 0.909561 0.172481
vt 0.511953 -0.008311
vt 0.511953 0.172481
vt 0.909560 0.172481
vt 1.247291 -0.005465
vt 1.246636 0.172481
vt 0.084213 -0.008311
vt 0.114345 0.172481
vt -0.222731 0.172481
vt 0.084213 -0.008311
vt 0.114345 0.172481
vt -0.218925 -0.003040
vt -0.222730 0.172481
vt 0.511953 0.172481
vt 0.084215 -0.008311
vt 0.114347 0.172481
vt 0.511953 0.172481
vt 0.511953 -0.008311
vt 1.246636 0.172481
vt 0.939693 -0.008311
vt 0.909561 0.172481
vt -0.218924 -0.003040
vt -0.222729 0.172481
vt 0.939693 -0.008311
vt 0.511953 -0.008311
vt -0.222731 0.172481
vt 0.084212 -0.008311
vt 0.114344 0.172481
vt 1.247292 -0.005465
vt 0.511952 0.172481
vt 0.511952 -0.008311
vt 0.939692 -0.008311
vt 0.184517 0.638354
vt 0.158667 0.853076
vt 0.154816 0.798198
vt 0.293320 0.861995
vt 0.334410 0.848127
vt 0.163699 0.610770
vt 0.374338 0.710756
vt 0.416600 0.746771
vt 0.249905 0.646643
vt 0.293829 0.646643
vt 0.176385 0.905287
vt 0.154816 0.853861
vt 0.209324 0.848127
vt 0.323735 0.962003
vt 0.268311 0.965949
vt 0.268962 0.962003
vt 0.363166 0.815905
vt 0.332885 0.845810
vt 0.299174 0.697650
vt 0.341768 0.733999
vt 0.338240 0.736232
vt 0.323735 0.690055
vt 0.376746 0.707411
vt 0.250497 0.649375
vt 0.209324 0.663244
vt 0.102777 0.891611
vt 0.077789 0.841986
vt 0.081635 0.841202
vt 0.213613 0.834651
vt 0.177899 0.803778
vt 0.180588 0.802035
vt 0.179628 0.903052
vt 0.216239 0.944647
vt 0.365469 0.817453
vt 0.249071 0.672829
vt 0.301580 0.694309
vt 0.379645 0.670679
vt 0.400587 0.712682
vt 0.397518 0.713294
vt 0.374338 0.941302
vt 0.324674 0.965949
vt 0.210933 0.665560
vt 0.141843 0.930192
vt 0.099539 0.893844
vt 0.256097 0.855380
vt 0.211802 0.837260
vt 0.268961 0.690055
vt 0.324673 0.686110
vt 0.346619 0.638063
vt 0.382240 0.668936
vt 0.299174 0.930192
vt 0.249071 0.955014
vt 0.248132 0.951072
vt 0.218358 0.941302
vt 0.213614 0.638063
vt 0.256097 0.617334
vt 0.256764 0.620411
vt 0.248132 0.676771
vt 0.192236 0.672829
vt 0.413069 0.903052
vt 0.376746 0.944647
vt 0.303469 0.852303
vt 0.256764 0.852303
vt 0.192885 0.951072
vt 0.139727 0.933533
vt 0.218358 0.710756
vt 0.268311 0.686110
vt 0.303469 0.620411
vt 0.348337 0.635454
vt 0.338239 0.891611
vt 0.301579 0.933534
vt 0.416600 0.905287
vt 0.180588 0.670679
vt 0.211802 0.635454
vt 0.141843 0.697650
vt 0.192885 0.676770
vt 0.216239 0.707411
vt 0.346619 0.834651
vt 0.304042 0.855380
vt 0.192236 0.955014
vt 0.304042 0.617334
vt 0.359382 0.841202
vt 0.341768 0.893844
vt 0.162714 0.713294
vt 0.177899 0.668936
vt 0.102778 0.736232
vt 0.139727 0.694309
vt 0.379645 0.802035
vt 0.348337 0.837260
vt 0.363518 0.785856
vt 0.363518 0.841986
vt 0.208771 0.886779
vt 0.163778 0.847781
vt 0.162714 0.759420
vt 0.159552 0.712682
vt 0.077789 0.785856
vt 0.099539 0.733999
vt 0.418667 0.679487
vt 0.445401 0.732575
vt 0.397518 0.759420
vt 0.382240 0.803778
vt 0.359382 0.786640
vt 0.263321 0.909094
vt 0.206653 0.890123
vt 0.159552 0.760032
vt 0.081635 0.786640
vt 0.379323 0.634909
vt 0.422198 0.677252
vt 0.400587 0.760032
vt 0.208772 0.638254
vt 0.263321 0.615939
vt 0.262671 0.913039
vt 0.376916 0.638254
vt 0.415379 0.776982
vt 0.206653 0.634909
vt 0.124921 0.776258
vt 0.500000 1.864943
vt 0.231108 1.864943
vt 0.996846 1.864943
vt 0.768892 1.864943
vt 0.996847 1.864943
vt 0.500001 -0.059925
vt 1.004576 -0.059925
vt 1.004577 -0.059925
vt -0.004577 -0.059925
vt 0.411487 0.157494
vt 0.212544 0.156201
vt 0.005222 0.126124
vt 0.344374 0.126124
vt 0.132173 0.126124
vt 0.343081 0.218942
vt 0.139448 0.157494
vt 0.344374 0.220235
vt 0.206562 0.157494
vt 0.005222 0.220235
vt 0.272382 0.250313
vt 0.277261 0.157494
vt 0.471325 0.220235
vt 0.138155 0.218942
vt 0.344374 0.188865
vt 0.478600 0.126124
vt -0.262556 0.357869
vt -0.231116 0.591613
vt -0.004648 0.392315
vt -0.021016 0.369368
vt 0.236809 0.623602
vt 0.257093 0.635196
vt 0.241034 0.596779
vt -0.016872 0.621780
vt 0.246504 0.618550
vt -0.224539 0.601545
vt 0.489017 0.363763
vt -0.021172 0.343568
vt 0.500804 0.612619
vt 0.257239 0.619069
vt 0.489097 0.609633
vt 0.725769 0.576772
vt 1.051445 0.541037
vt 0.404261 1.015414
vt 0.214260 0.936713
vt 0.068841 0.791293
vt -0.009861 0.601292
vt 0.068840 0.205636
vt 0.214260 0.060216
vt 0.404261 -0.018485
vt 0.799917 0.060216
vt 0.945337 0.205635
vt 1.024038 0.395636
vt 0.945337 0.791292
vt 0.799917 0.936713
vt 0.609916 1.015414
vt 0.788437 0.932078
vt 0.600445 1.009947
vt 0.396964 1.009947
vt 0.208973 0.932079
vt 0.065090 0.788196
vt -0.012778 0.600205
vt -0.012778 0.396723
vt 0.208972 0.064850
vt 0.396964 -0.013019
vt 0.600444 -0.013019
vt 0.932319 0.208732
vt 1.010187 0.396724
vt 1.010187 0.600204
vt 0.728189 0.512101
vt 0.724180 0.650697
vt 0.491459 0.520323
vt -0.274955 0.649482
vt 0.035250 0.545291
vt -0.253599 0.483434
vt -0.727085 0.595235
vt -0.730768 0.659239
vt -0.955210 0.496217
vt 2.486952 0.622835
vt -1.528749 0.559796
vt 2.244545 0.515243
vt 2.019977 0.496003
vt 1.742911 0.631178
vt 1.468727 0.496339
vt 1.239701 0.510522
vt 0.500000 0.879800
vt 0.500000 0.879800
vt 1.006407 0.879800
vt 1.006407 0.879800
vt -0.006407 0.879800
vt 0.230574 1.418760
vt 0.769427 1.418760
vt 0.997835 1.418760
vt 0.769427 1.418760
vt 0.769426 1.418760
vt 0.768892 -0.864943
vt 1.170151 -0.802597
vt 0.232053 -0.656621
vt 1.178136 -0.802042
vt 0.767947 -0.656621
vt 1.172737 -0.652327
vt 1.175557 -0.655441
vt -0.208830 -0.002055
vt -0.208831 -0.002055
vt 1.528636 0.997839
vt 1.533541 0.777252
vt 1.166273 0.991989
vt 1.166399 0.792643
vt -0.218926 -0.003040
vt -0.218926 -0.003040
s 1
usemtl wood
f 1/1/1 114/2/2 2/3/2
f 14/4/3 127/5/4 15/6/4
f 178/7/5 108/8/6 191/9/6
f 103/10/7 177/11/8 179/12/7
f 110/13/9 178/7/5 180/14/9
f 104/15/10 179/12/7 181/11/10
f 111/16/11 180/14/9 182/17/11
f 183/18/12 97/19/13 192/20/13
f 105/21/14 181/11/10 184/22/14
f 112/23/15 182/24/11 185/25/15
f 99/10/16 183/18/12 186/12/16
f 187/26/17 105/21/14 184/22/14
f 192/20/13 112/23/15 185/25/15
f 100/27/18 186/28/16 188/29/18
f 107/30/19 187/26/17 189/31/19
f 101/19/20 188/29/18 190/32/20
f 191/9/6 107/33/19 189/34/19
f 161/35/21 33/36/22 174/37/23
f 173/41/26 34/42/27 48/43/28
f 174/37/23 47/44/29 172/45/30
f 173/46/26 46/47/31 171/48/32
f 172/45/30 45/49/33 170/50/34
f 176/51/35 44/52/36 169/53/37
f 171/48/32 43/54/38 168/55/39
f 170/56/34 42/57/40 167/58/41
f 169/53/37 41/59/42 166/60/43
f 168/55/39 39/61/44 165/35/45
f 167/58/41 40/62/46 176/51/35
f 166/63/43 38/64/47 164/65/48
f 165/35/45 37/66/49 163/56/50
f 164/65/48 36/67/51 162/68/52
f 163/56/50 35/61/53 161/35/21
f 162/68/52 34/42/27 175/69/54
f 68/70/55 209/71/56 212/72/55
f 213/113/78 66/114/79 210/115/79
f 70/116/80 212/72/55 214/117/80
f 71/118/81 213/113/78 215/119/81
f 216/72/82 70/116/80 214/117/80
f 73/120/83 215/119/81 217/121/83
f 74/122/84 211/123/85 218/124/84
f 75/125/86 216/72/82 219/126/86
f 76/127/87 217/128/83 220/129/87
f 77/116/88 218/124/84 221/117/88
f 78/130/89 219/126/86 222/131/89
f 67/132/85 220/129/87 211/123/85
f 79/133/90 221/134/88 223/135/90
f 80/136/91 222/131/89 224/137/91
f 65/138/56 223/135/90 209/71/56
f 66/114/79 224/139/91 210/115/79
f 2/140/92 81/141/92 1/142/92
f 2/143/92 83/144/92 82/145/92
f 4/146/92 83/147/92 3/148/92
f 5/149/92 84/150/92 4/151/92
f 5/152/92 86/153/92 85/154/92
f 7/155/92 86/156/92 6/157/92
f 8/158/92 87/159/92 7/160/92
f 9/161/92 88/162/92 8/163/92
f 10/164/92 89/165/92 9/166/92
f 11/167/92 90/168/92 10/169/92
f 12/170/92 91/171/92 11/172/92
f 13/173/92 92/174/92 12/175/92
f 13/176/92 94/177/92 93/178/92
f 15/179/92 94/180/92 14/181/92
f 16/182/92 95/183/92 15/184/92
f 1/185/92 96/186/92 16/187/92
f 18/188/93 97/189/93 98/190/93
f 18/191/93 99/192/93 19/193/93
f 20/194/93 99/195/93 100/196/93
f 21/197/93 100/198/93 101/199/93
f 21/200/93 102/201/93 22/202/93
f 22/203/93 103/204/93 23/205/93
f 23/206/93 104/207/93 24/208/93
f 24/209/93 105/210/93 25/211/93
f 25/212/93 106/213/93 26/214/93
f 26/215/93 107/216/93 27/217/93
f 28/218/93 107/219/93 108/220/93
f 29/221/93 108/222/93 109/223/93
f 29/224/93 110/225/93 30/226/93
f 30/227/93 111/228/93 31/229/93
f 31/230/93 112/231/93 32/232/93
f 32/233/93 97/234/93 17/235/93
f 28/236/94 139/237/95 27/238/95
f 126/239/92 122/240/92 118/241/92
f 136/242/93 140/243/93 144/244/93
f 29/245/96 140/246/94 28/247/94
f 15/6/4 128/248/97 16/249/97
f 3/250/98 114/2/2 115/251/98
f 29/252/96 142/253/99 141/254/96
f 16/249/97 113/255/1 1/1/1
f 3/250/98 116/256/100 4/257/100
f 31/258/101 142/259/99 30/260/99
f 17/261/102 130/262/103 129/263/102
f 5/264/104 116/256/100 117/265/104
f 32/266/105 143/267/101 31/268/101
f 19/269/106 130/270/103 18/271/103
f 5/264/104 118/272/107 6/273/107
f 17/274/102 144/275/105 32/276/105
f 19/277/106 132/278/108 131/279/106
f 7/280/109 118/272/107 119/281/109
f 21/282/110 132/283/108 20/284/108
f 7/285/109 120/286/111 8/287/111
f 22/288/112 133/289/110 21/290/110
f 9/291/113 120/286/111 121/292/113
f 23/293/114 134/294/112 22/295/112
f 9/291/113 122/296/115 10/297/116
f 24/298/117 135/299/114 23/300/114
f 10/297/116 123/301/118 11/302/118
f 24/303/117 137/304/119 136/305/117
f 11/302/118 124/306/120 12/307/120
f 26/308/121 137/309/119 25/310/119
f 12/307/120 125/311/122 13/312/122
f 27/313/95 138/314/121 26/315/121
f 13/312/122 126/316/123 14/4/3
f 148/317/124 33/36/22 35/61/53
f 149/318/125 34/42/27 36/67/51
f 150/319/126 35/61/53 37/66/49
f 151/320/127 36/67/51 38/64/47
f 152/317/128 37/66/49 39/61/44
f 153/321/129 38/64/47 41/322/42
f 154/323/130 40/62/46 42/57/40
f 43/54/38 152/317/128 39/61/44
f 156/324/131 41/59/42 44/52/36
f 157/319/132 42/57/40 45/66/33
f 158/325/133 43/54/38 46/47/31
f 147/326/134 44/52/36 40/62/46
f 159/327/135 45/49/33 47/44/29
f 160/328/136 46/47/31 48/329/28
f 33/36/22 159/327/135 47/44/29
f 146/330/137 48/43/28 34/42/27
f 49/363/147 193/364/148 62/365/148
f 197/397/163 63/398/164 50/399/163
f 51/400/165 196/401/147 49/363/147
f 52/402/166 197/397/163 50/399/163
f 200/401/167 51/400/165 53/363/167
f 201/403/168 52/402/166 54/404/168
f 202/405/169 64/406/170 55/407/169
f 56/408/171 200/401/167 53/363/167
f 204/409/172 54/410/168 57/411/172
f 205/412/173 55/407/169 58/400/173
f 59/413/174 203/414/171 56/408/171
f 195/415/170 57/411/172 64/406/170
f 60/416/175 205/417/173 58/418/173
f 208/419/176 59/413/174 61/420/176
f 193/364/148 60/416/175 62/365/148
f 63/398/164 208/421/176 61/422/176
f 86/425/178 225/426/179 85/427/179
f 92/460/197 229/461/198 226/462/199
f 87/463/200 228/464/201 86/465/178
f 93/466/198 231/467/202 229/461/198
f 88/468/203 230/469/200 87/463/200
f 95/470/204 231/471/202 94/472/202
f 82/473/205 227/474/206 81/427/206
f 89/475/207 232/476/203 88/425/203
f 96/477/208 233/478/204 95/470/204
f 83/479/209 234/480/210 82/481/205
f 90/482/211 235/483/207 89/475/207
f 96/484/208 227/474/206 236/485/208
f 83/479/209 239/486/212 237/487/209
f 91/488/213 238/489/214 90/490/211
f 84/491/215 225/426/179 239/492/212
f 91/488/213 226/493/199 240/494/213
f 102/15/8 190/32/20 177/11/8
f 1/1/1 113/255/1 114/2/2
f 14/4/3 126/316/123 127/5/4
f 178/7/5 109/739/5 108/8/6
f 103/10/7 102/15/8 177/11/8
f 110/13/9 109/739/5 178/7/5
f 104/15/10 103/10/7 179/12/7
f 111/16/11 110/13/9 180/14/9
f 183/18/12 98/740/12 97/19/13
f 105/21/14 104/15/10 181/11/10
f 112/23/15 111/741/11 182/24/11
f 99/10/16 98/740/12 183/18/12
f 187/26/17 106/742/17 105/21/14
f 192/20/13 97/19/13 112/23/15
f 100/27/18 99/743/16 186/28/16
f 107/30/19 106/742/17 187/26/17
f 101/19/20 100/27/18 188/29/18
f 191/9/6 108/8/6 107/33/19
f 161/35/21 35/61/53 33/36/22
f 173/41/26 175/69/54 34/42/27
f 174/37/23 33/36/22 47/44/29
f 173/46/26 48/329/28 46/47/31
f 172/45/30 47/44/29 45/49/33
f 176/51/35 40/62/46 44/52/36
f 171/48/32 46/47/31 43/54/38
f 170/56/34 45/66/33 42/57/40
f 169/53/37 44/52/36 41/59/42
f 168/55/39 43/54/38 39/61/44
f 167/58/41 42/57/40 40/62/46
f 166/63/43 41/322/42 38/64/47
f 165/35/45 39/61/44 37/66/49
f 164/65/48 38/64/47 36/67/51
f 163/56/50 37/66/49 35/61/53
f 162/68/52 36/67/51 34/42/27
f 68/70/55 65/138/56 209/71/56
f 213/113/78 69/744/78 66/114/79
f 70/116/80 68/70/55 212/72/55
f 71/118/81 69/744/78 213/113/78
f 216/72/82 72/70/82 70/116/80
f 73/120/83 71/118/81 215/119/81
f 74/122/84 67/132/85 211/123/85
f 75/125/86 72/70/82 216/72/82
f 76/127/87 73/745/83 217/128/83
f 77/116/88 74/122/84 218/124/84
f 78/130/89 75/125/86 219/126/86
f 67/132/85 76/127/87 220/129/87
f 79/133/90 77/746/88 221/134/88
f 80/136/91 78/130/89 222/131/89
f 65/138/56 79/133/90 223/135/90
f 66/114/79 80/747/91 224/139/91
f 2/140/92 82/748/92 81/141/92
f 2/143/92 3/749/92 83/144/92
f 4/146/92 84/750/92 83/147/92
f 5/149/92 85/751/92 84/150/92
f 5/152/92 6/752/92 86/153/92
f 7/155/92 87/753/92 86/156/92
f 8/158/92 88/754/92 87/159/92
f 9/161/92 89/755/92 88/162/92
f 10/164/92 90/756/92 89/165/92
f 11/167/92 91/757/92 90/168/92
f 12/170/92 92/758/92 91/171/92
f 13/173/92 93/759/92 92/174/92
f 13/176/92 14/760/92 94/177/92
f 15/179/92 95/761/92 94/180/92
f 16/182/92 96/762/92 95/183/92
f 1/185/92 81/763/92 96/186/92
f 18/188/93 17/764/93 97/189/93
f 18/191/93 98/765/93 99/192/93
f 20/194/93 19/766/93 99/195/93
f 21/197/93 20/767/93 100/198/93
f 21/200/93 101/768/93 102/201/93
f 22/203/93 102/769/93 103/204/93
f 23/206/93 103/770/93 104/207/93
f 24/209/93 104/771/93 105/210/93
f 25/212/93 105/772/93 106/213/93
f 26/215/93 106/773/93 107/216/93
f 28/218/93 27/774/93 107/219/93
f 29/221/93 28/775/93 108/222/93
f 29/224/93 109/776/93 110/225/93
f 30/227/93 110/777/93 111/228/93
f 31/230/93 111/778/93 112/231/93
f 32/233/93 112/779/93 97/234/93
f 28/236/94 140/780/94 139/237/95
f 114/781/92 113/782/92 128/783/92
f 128/783/92 127/784/92 126/239/92
f 126/239/92 125/785/92 124/786/92
f 124/786/92 123/787/92 122/240/92
f 122/240/92 121/788/92 120/789/92
f 120/789/92 119/790/92 118/241/92
f 118/241/92 117/791/92 116/792/92
f 116/792/92 115/793/92 114/781/92
f 114/781/92 128/783/92 126/239/92
f 126/239/92 124/786/92 122/240/92
f 122/240/92 120/789/92 118/241/92
f 118/241/92 116/792/92 114/781/92
f 114/781/92 126/239/92 118/241/92
f 144/244/93 129/794/93 130/795/93
f 130/795/93 131/796/93 132/797/93
f 132/797/93 133/798/93 134/799/93
f 134/799/93 135/800/93 136/242/93
f 136/242/93 137/801/93 138/802/93
f 138/802/93 139/803/93 140/243/93
f 140/243/93 141/804/93 142/805/93
f 142/805/93 143/806/93 144/244/93
f 144/244/93 130/795/93 132/797/93
f 132/797/93 134/799/93 136/242/93
f 136/242/93 138/802/93 140/243/93
f 140/243/93 142/805/93 144/244/93
f 144/244/93 132/797/93 136/242/93
f 29/245/96 141/807/96 140/246/94
f 15/6/4 127/5/4 128/248/97
f 3/250/98 2/3/2 114/2/2
f 29/252/96 30/808/99 142/253/99
f 16/249/97 128/248/97 113/255/1
f 3/250/98 115/251/98 116/256/100
f 31/258/101 143/809/101 142/259/99
f 17/261/102 18/810/103 130/262/103
f 5/264/104 4/257/100 116/256/100
f 32/266/105 144/811/105 143/267/101
f 19/269/106 131/812/106 130/270/103
f 5/264/104 117/265/104 118/272/107
f 17/274/102 129/813/102 144/275/105
f 19/277/106 20/814/108 132/278/108
f 7/280/109 6/273/107 118/272/107
f 21/282/110 133/815/110 132/283/108
f 7/285/109 119/816/109 120/286/111
f 22/288/112 134/817/112 133/289/110
f 9/291/113 8/287/111 120/286/111
f 23/293/114 135/818/114 134/294/112
f 9/291/113 121/292/113 122/296/115
f 24/298/117 136/819/117 135/299/114
f 10/297/116 122/296/115 123/301/118
f 24/303/117 25/820/119 137/304/119
f 11/302/118 123/301/118 124/306/120
f 26/308/121 138/821/121 137/309/119
f 12/307/120 124/306/120 125/311/122
f 27/313/95 139/822/95 138/314/121
f 13/312/122 125/311/122 126/316/123
f 148/317/124 145/823/316 33/36/22
f 149/318/125 146/330/137 34/42/27
f 150/319/126 148/317/124 35/61/53
f 151/320/127 149/318/125 36/67/51
f 152/317/128 150/319/126 37/66/49
f 153/321/129 151/320/127 38/64/47
f 154/323/130 147/326/134 40/62/46
f 43/54/38 155/824/317 152/317/128
f 156/324/131 153/825/129 41/59/42
f 157/319/132 154/323/130 42/57/40
f 158/325/133 155/824/317 43/54/38
f 147/326/134 156/324/131 44/52/36
f 159/327/135 157/826/132 45/49/33
f 160/328/136 158/325/133 46/47/31
f 33/36/22 145/823/316 159/327/135
f 146/330/137 160/827/136 48/43/28
f 49/363/147 196/401/147 193/364/148
f 197/397/163 194/828/164 63/398/164
f 51/400/165 198/412/165 196/401/147
f 52/402/166 199/829/166 197/397/163
f 200/401/167 198/412/165 51/400/165
f 201/403/168 199/829/166 52/402/166
f 202/405/169 195/415/170 64/406/170
f 56/408/171 203/414/171 200/401/167
f 204/409/172 201/830/168 54/410/168
f 205/412/173 202/405/169 55/407/169
f 59/413/174 206/831/174 203/414/171
f 195/415/170 204/409/172 57/411/172
f 60/416/175 207/832/175 205/417/173
f 208/419/176 206/831/174 59/413/174
f 193/364/148 207/832/175 60/416/175
f 63/398/164 194/828/164 208/421/176
f 86/425/178 228/476/201 225/426/179
f 92/460/197 93/466/198 229/461/198
f 87/463/200 230/469/200 228/464/201
f 93/466/198 94/833/202 231/467/202
f 88/468/203 232/834/203 230/469/200
f 95/470/204 233/478/204 231/471/202
f 82/473/205 234/835/210 227/474/206
f 89/475/207 235/483/207 232/476/203
f 96/477/208 236/836/208 233/478/204
f 83/479/209 237/487/209 234/480/210
f 90/482/211 238/837/214 235/483/207
f 96/484/208 81/427/206 227/474/206
f 83/479/209 84/838/215 239/486/212
f 91/488/213 240/494/213 238/489/214
f 84/491/215 85/427/179 225/426/179
f 91/488/213 92/839/197 226/493/199
f 102/15/8 101/19/20 190/32/20
usemtl metal
f 65/38/24 287/39/25 79/40/25
f 156/73/57 251/74/58 153/75/58
f 230/76/59 337/77/60 228/78/60
f 207/79/61 334/80/62 327/81/61
f 80/82/63 286/83/64 78/84/64
f 155/85/65 249/86/66 152/87/66
f 229/88/67 367/89/68 226/90/68
f 206/91/69 329/92/70 325/93/69
f 79/40/25 285/94/71 77/95/71
f 147/96/72 253/97/64 291/98/72
f 228/78/60 366/99/73 225/100/73
f 207/79/61 323/101/74 205/102/74
f 76/103/66 275/104/65 284/105/66
f 153/75/58 247/106/75 151/107/75
f 195/108/76 321/109/77 204/110/77
f 78/84/64 283/111/72 75/112/72
f 150/331/138 249/86/66 245/332/138
f 203/333/139 325/93/69 319/334/139
f 74/335/140 285/94/71 282/336/140
f 151/107/75 243/337/24 149/338/24
f 202/339/141 323/101/74 317/340/141
f 76/103/66 281/341/138 73/342/138
f 150/331/138 241/343/142 148/344/142
f 204/110/77 315/345/143 201/346/143
f 75/112/72 280/347/57 72/348/57
f 149/338/24 290/349/25 146/350/25
f 203/333/139 313/351/144 200/352/144
f 74/335/140 275/104/65 67/353/65
f 148/344/142 289/354/145 145/355/145
f 202/339/141 336/356/76 195/108/76
f 73/342/138 279/357/142 71/358/142
f 201/346/143 311/359/146 199/360/146
f 72/348/57 278/361/58 70/362/58
f 200/352/144 309/366/149 198/367/149
f 69/368/145 279/357/142 277/369/145
f 199/360/146 307/370/150 197/371/150
f 70/362/58 276/372/75 68/373/75
f 173/374/151 272/375/152 175/376/152
f 198/367/149 305/377/153 196/378/153
f 69/368/145 273/379/154 66/380/154
f 174/381/155 303/382/156 270/383/155
f 197/371/150 335/384/157 194/385/157
f 68/373/75 271/386/24 65/38/24
f 171/387/158 304/388/151 173/374/151
f 196/378/153 334/80/62 193/389/62
f 172/390/156 301/391/159 303/382/156
f 176/392/160 300/393/161 274/394/160
f 168/395/162 302/396/158 171/387/158
f 167/423/177 301/391/159 170/424/159
f 209/428/180 338/429/181 212/430/181
f 166/431/182 300/393/161 169/432/161
f 210/433/183 340/434/184 213/435/184
f 168/395/162 296/436/185 299/437/162
f 212/430/181 342/438/186 214/439/186
f 176/392/160 298/440/177 167/423/177
f 213/435/184 344/441/187 215/442/187
f 166/431/182 295/443/188 297/444/182
f 216/445/189 342/438/186 346/446/189
f 165/447/185 294/448/190 296/436/185
f 215/442/187 348/449/191 217/450/191
f 164/451/188 293/452/192 295/443/188
f 218/453/193 365/454/194 350/455/193
f 161/456/195 294/448/190 163/457/190
f 216/445/189 352/458/196 219/459/196
f 241/495/216 268/496/217 289/497/217
f 290/498/218 266/499/219 265/500/219
f 289/497/217 264/501/220 263/502/220
f 265/503/219 262/504/221 261/505/221
f 259/506/222 264/501/220 260/507/222
f 257/508/223 269/509/224 258/510/223
f 261/505/221 256/511/225 255/512/225
f 259/513/222 254/514/226 253/515/226
f 251/516/227 258/510/223 252/517/227
f 255/512/225 250/518/228 249/495/228
f 253/515/226 269/509/224 291/519/224
f 251/520/227 248/521/229 247/522/229
f 249/495/228 246/523/230 245/513/230
f 247/522/229 244/524/231 243/525/231
f 245/513/230 242/518/216 241/495/216
f 243/525/231 267/526/218 290/498/218
f 276/527/232 270/528/233 271/529/233
f 277/530/234 272/531/235 273/532/235
f 278/533/236 292/534/232 276/527/232
f 279/535/237 293/536/234 277/530/234
f 280/527/238 294/537/236 278/533/236
f 281/538/239 295/539/237 279/535/237
f 275/540/240 298/541/241 274/542/240
f 280/527/238 299/543/242 296/534/238
f 284/544/243 297/545/239 281/546/239
f 282/547/241 301/537/244 298/541/241
f 286/548/245 299/543/242 283/549/242
f 275/540/240 300/550/243 284/544/243
f 287/551/246 301/552/244 285/553/244
f 286/548/245 304/554/247 302/555/245
f 271/529/233 303/556/246 287/551/246
f 273/532/235 304/557/247 288/558/247
f 305/559/248 332/560/249 334/561/249
f 329/562/250 331/563/251 330/564/250
f 334/561/249 328/565/252 327/566/253
f 329/567/250 326/568/254 325/569/254
f 327/566/253 324/570/255 323/571/255
f 336/572/256 322/573/257 321/574/258
f 325/569/254 320/575/259 319/576/259
f 323/577/255 318/578/260 317/579/260
f 321/574/258 316/580/261 315/581/261
f 319/576/259 314/582/262 313/559/262
f 336/572/256 318/578/260 333/583/256
f 311/584/263 316/585/261 312/586/263
f 309/577/264 314/582/262 310/587/264
f 311/584/263 308/588/265 307/589/265
f 309/577/264 306/582/248 305/559/248
f 335/590/251 308/588/265 331/563/251
f 337/591/266 364/592/267 366/593/267
f 367/594/268 362/595/269 361/596/269
f 366/593/267 360/597/270 359/598/270
f 361/599/269 358/600/271 357/601/271
f 359/598/270 356/602/272 355/603/272
f 368/604/273 354/605/274 353/606/274
f 351/607/275 358/600/271 352/608/275
f 355/609/272 350/610/276 349/611/277
f 353/606/274 348/612/278 347/613/278
f 351/607/275 346/614/279 345/591/279
f 349/611/277 365/615/273 368/604/273
f 347/616/278 344/617/280 343/618/280
f 345/591/279 342/619/281 341/609/281
f 339/620/282 344/617/280 340/621/282
f 341/609/281 338/614/283 337/591/266
f 367/594/268 340/621/282 363/622/268
f 194/385/157 329/92/70 208/623/70
f 231/624/284 339/625/67 229/88/67
f 154/626/64 259/627/63 253/97/64
f 66/380/154 288/628/63 80/82/63
f 232/629/285 341/630/59 230/76/59
f 155/85/65 261/631/140 255/632/65
f 231/624/284 347/633/286 343/634/284
f 147/96/72 257/635/57 156/73/57
f 234/636/287 368/637/288 227/638/288
f 159/639/154 259/627/63 157/640/63
f 189/641/289 331/642/290 191/643/290
f 235/644/291 345/645/285 232/629/285
f 158/646/140 265/647/71 261/631/140
f 188/648/292 332/649/293 190/650/293
f 61/651/159 267/652/156 63/653/156
f 233/654/286 353/655/294 347/633/286
f 145/355/145 263/656/154 159/639/154
f 189/641/289 326/657/295 330/658/289
f 60/659/152 268/660/192 62/661/192
f 237/662/296 349/663/287 234/636/287
f 146/350/25 265/647/71 160/664/71
f 186/665/297 328/666/292 188/648/292
f 61/651/159 262/667/177 266/668/159
f 238/669/298 351/670/291 235/644/291
f 58/671/151 264/672/152 60/659/152
f 185/673/299 333/674/300 192/675/300
f 236/676/294 368/637/288 353/655/294
f 57/677/185 269/678/162 64/679/162
f 187/680/295 320/681/301 326/657/295
f 239/682/302 355/683/296 237/662/296
f 56/684/160 262/667/177 59/685/177
f 183/686/303 324/687/297 186/665/297
f 240/688/304 357/689/298 238/669/298
f 55/690/158 260/691/151 58/671/151
f 182/692/305 322/693/299 185/673/299
f 239/682/302 366/99/73 359/694/302
f 54/695/190 258/696/185 57/677/185
f 181/697/306 320/681/301 184/698/301
f 226/90/68 361/699/304 240/688/304
f 53/700/161 256/701/160 56/684/160
f 192/675/300 318/702/303 183/686/303
f 64/679/162 254/703/158 55/690/158
f 180/704/307 316/705/305 182/692/305
f 52/706/195 252/707/190 54/695/190
f 179/708/308 314/709/306 181/697/306
f 51/710/182 250/711/161 53/700/161
f 180/704/307 308/712/309 312/713/307
f 224/714/310 363/715/183 210/433/183
f 50/716/155 248/717/195 52/706/195
f 179/708/308 306/718/311 310/719/308
f 223/720/312 364/721/180 209/428/180
f 49/722/188 246/723/182 51/710/182
f 178/724/309 331/642/290 308/712/309
f 222/725/313 362/726/310 224/714/310
f 50/716/155 267/652/156 244/727/155
f 177/728/311 332/649/293 306/718/311
f 223/720/312 356/729/314 360/730/312
f 62/661/192 242/731/188 49/722/188
f 220/732/315 365/454/194 211/733/194
f 219/459/196 358/734/313 222/725/313
f 218/453/193 356/729/314 221/735/314
f 174/381/155 292/736/195 161/456/195
f 217/450/191 354/737/315 220/732/315
f 162/738/192 272/375/152 293/452/192
f 65/38/24 271/386/24 287/39/25
f 156/73/57 257/635/57 251/74/58
f 230/76/59 341/630/59 337/77/60
f 207/79/61 193/389/62 334/80/62
f 80/82/63 288/628/63 286/83/64
f 155/85/65 255/632/65 249/86/66
f 229/88/67 339/625/67 367/89/68
f 206/91/69 208/623/70 329/92/70
f 79/40/25 287/39/25 285/94/71
f 147/96/72 154/626/64 253/97/64
f 228/78/60 337/77/60 366/99/73
f 207/79/61 327/81/61 323/101/74
f 76/103/66 67/353/65 275/104/65
f 153/75/58 251/74/58 247/106/75
f 195/108/76 336/356/76 321/109/77
f 78/84/64 286/83/64 283/111/72
f 150/331/138 152/87/66 249/86/66
f 203/333/139 206/91/69 325/93/69
f 74/335/140 77/95/71 285/94/71
f 151/107/75 247/106/75 243/337/24
f 202/339/141 205/102/74 323/101/74
f 76/103/66 284/105/66 281/341/138
f 150/331/138 245/332/138 241/343/142
f 204/110/77 321/109/77 315/345/143
f 75/112/72 283/111/72 280/347/57
f 149/338/24 243/337/24 290/349/25
f 203/333/139 319/334/139 313/351/144
f 74/335/140 282/336/140 275/104/65
f 148/344/142 241/343/142 289/354/145
f 202/339/141 317/340/141 336/356/76
f 73/342/138 281/341/138 279/357/142
f 201/346/143 315/345/143 311/359/146
f 72/348/57 280/347/57 278/361/58
f 200/352/144 313/351/144 309/366/149
f 69/368/145 71/358/142 279/357/142
f 199/360/146 311/359/146 307/370/150
f 70/362/58 278/361/58 276/372/75
f 173/374/151 304/388/151 272/375/152
f 198/367/149 309/366/149 305/377/153
f 69/368/145 277/369/145 273/379/154
f 174/381/155 172/390/156 303/382/156
f 197/371/150 307/370/150 335/384/157
f 68/373/75 276/372/75 271/386/24
f 171/387/158 302/396/158 304/388/151
f 196/378/153 305/377/153 334/80/62
f 172/390/156 170/424/159 301/391/159
f 176/392/160 169/432/161 300/393/161
f 168/395/162 299/437/162 302/396/158
f 167/423/177 298/440/177 301/391/159
f 209/428/180 364/721/180 338/429/181
f 166/431/182 297/444/182 300/393/161
f 210/433/183 363/715/183 340/434/184
f 168/395/162 165/447/185 296/436/185
f 212/430/181 338/429/181 342/438/186
f 176/392/160 274/394/160 298/440/177
f 213/435/184 340/434/184 344/441/187
f 166/431/182 164/451/188 295/443/188
f 216/445/189 214/439/186 342/438/186
f 165/447/185 163/457/190 294/448/190
f 215/442/187 344/441/187 348/449/191
f 164/451/188 162/738/192 293/452/192
f 218/453/193 211/733/194 365/454/194
f 161/456/195 292/736/195 294/448/190
f 216/445/189 346/446/189 352/458/196
f 241/495/216 242/518/216 268/496/217
f 290/498/218 267/526/218 266/499/219
f 289/497/217 268/496/217 264/501/220
f 265/503/219 266/840/219 262/504/221
f 259/506/222 263/502/220 264/501/220
f 257/508/223 291/519/224 269/509/224
f 261/505/221 262/504/221 256/511/225
f 259/513/222 260/523/222 254/514/226
f 251/516/227 257/508/223 258/510/223
f 255/512/225 256/511/225 250/518/228
f 253/515/226 254/514/226 269/509/224
f 251/520/227 252/841/227 248/521/229
f 249/495/228 250/518/228 246/523/230
f 247/522/229 248/521/229 244/524/231
f 245/513/230 246/523/230 242/518/216
f 243/525/231 244/524/231 267/526/218
f 276/527/232 292/534/232 270/528/233
f 277/530/234 293/536/234 272/531/235
f 278/533/236 294/537/236 292/534/232
f 279/535/237 295/539/237 293/536/234
f 280/527/238 296/534/238 294/537/236
f 281/538/239 297/842/239 295/539/237
f 275/540/240 282/547/241 298/541/241
f 280/527/238 283/549/242 299/543/242
f 284/544/243 300/550/243 297/545/239
f 282/547/241 285/533/244 301/537/244
f 286/548/245 302/555/245 299/543/242
f 275/540/240 274/542/240 300/550/243
f 287/551/246 303/556/246 301/552/244
f 286/548/245 288/843/247 304/554/247
f 271/529/233 270/528/233 303/556/246
f 273/532/235 272/531/235 304/557/247
f 305/559/248 306/582/248 332/560/249
f 329/562/250 335/590/251 331/563/251
f 334/561/249 332/560/249 328/565/252
f 329/567/250 330/844/250 326/568/254
f 327/566/253 328/565/252 324/570/255
f 336/572/256 333/583/256 322/573/257
f 325/569/254 326/568/254 320/575/259
f 323/577/255 324/587/255 318/578/260
f 321/574/258 322/573/257 316/580/261
f 319/576/259 320/575/259 314/582/262
f 336/572/256 317/579/260 318/578/260
f 311/584/263 315/845/261 316/585/261
f 309/577/264 313/559/262 314/582/262
f 311/584/263 312/586/263 308/588/265
f 309/577/264 310/587/264 306/582/248
f 335/590/251 307/589/265 308/588/265
f 337/591/266 338/614/283 364/592/267
f 367/594/268 363/622/268 362/595/269
f 366/593/267 364/592/267 360/597/270
f 361/599/269 362/846/269 358/600/271
f 359/598/270 360/597/270 356/602/272
f 368/604/273 365/615/273 354/605/274
f 351/607/275 357/601/271 358/600/271
f 355/609/272 356/619/272 350/610/276
f 353/606/274 354/605/274 348/612/278
f 351/607/275 352/608/275 346/614/279
f 349/611/277 350/610/276 365/615/273
f 347/616/278 348/847/278 344/617/280
f 345/591/279 346/614/279 342/619/281
f 339/620/282 343/618/280 344/617/280
f 341/609/281 342/619/281 338/614/283
f 367/594/268 339/620/282 340/621/282
f 194/385/157 335/384/157 329/92/70
f 231/624/284 343/634/284 339/625/67
f 154/626/64 157/640/63 259/627/63
f 66/380/154 273/379/154 288/628/63
f 232/629/285 345/645/285 341/630/59
f 155/85/65 158/646/140 261/631/140
f 231/624/284 233/654/286 347/633/286
f 147/96/72 291/98/72 257/635/57
f 234/636/287 349/663/287 368/637/288
f 159/639/154 263/656/154 259/627/63
f 189/641/289 330/658/289 331/642/290
f 235/644/291 351/670/291 345/645/285
f 158/646/140 160/664/71 265/647/71
f 188/648/292 328/666/292 332/649/293
f 61/651/159 266/668/159 267/652/156
f 233/654/286 236/676/294 353/655/294
f 145/355/145 289/354/145 263/656/154
f 189/641/289 187/680/295 326/657/295
f 60/659/152 264/672/152 268/660/192
f 237/662/296 355/683/296 349/663/287
f 146/350/25 290/349/25 265/647/71
f 186/665/297 324/687/297 328/666/292
f 61/651/159 59/685/177 262/667/177
f 238/669/298 357/689/298 351/670/291
f 58/671/151 260/691/151 264/672/152
f 185/673/299 322/693/299 333/674/300
f 236/676/294 227/638/288 368/637/288
f 57/677/185 258/696/185 269/678/162
f 187/680/295 184/698/301 320/681/301
f 239/682/302 359/694/302 355/683/296
f 56/684/160 256/701/160 262/667/177
f 183/686/303 318/702/303 324/687/297
f 240/688/304 361/699/304 357/689/298
f 55/690/158 254/703/158 260/691/151
f 182/692/305 316/705/305 322/693/299
f 239/682/302 225/100/73 366/99/73
f 54/695/190 252/707/190 258/696/185
f 181/697/306 314/709/306 320/681/301
f 226/90/68 367/89/68 361/699/304
f 53/700/161 250/711/161 256/701/160
f 192/675/300 333/674/300 318/702/303
f 64/679/162 269/678/162 254/703/158
f 180/704/307 312/713/307 316/705/305
f 52/706/195 248/717/195 252/707/190
f 179/708/308 310/719/308 314/709/306
f 51/710/182 246/723/182 250/711/161
f 180/704/307 178/724/309 308/712/309
f 224/714/310 362/726/310 363/715/183
f 50/716/155 244/727/155 248/717/195
f 179/708/308 177/728/311 306/718/311
f 223/720/312 360/730/312 364/721/180
f 49/722/188 242/731/188 246/723/182
f 178/724/309 191/643/290 331/642/290
f 222/725/313 358/734/313 362/726/310
f 50/716/155 63/653/156 267/652/156
f 177/728/311 190/650/293 332/649/293
f 223/720/312 221/735/314 356/729/314
f 62/661/192 268/660/192 242/731/188
f 220/732/315 354/737/315 365/454/194
f 219/459/196 352/458/196 358/734/313
f 218/453/193 350/455/193 356/729/314
f 174/381/155 270/383/155 292/736/195
f 217/450/191 348/449/191 354/737/315
f 162/738/192 175/376/152 272/375/152
